ISO-10303-21;
HEADER;
FILE_DESCRIPTION((''),'2;1');
FILE_NAME('CABLE_FEEDTROUGH_COVER','2026-07-21T16:16:20',('morit'),(''),
'CREO PARAMETRIC BY PTC INC, 2025123','CREO PARAMETRIC BY PTC INC, 2025123','');
FILE_SCHEMA((
'AP242_MANAGED_MODEL_BASED_3D_ENGINEERING_MIM_LF { 1 0 10303 442 1 1 4 }'));
ENDSEC;
DATA;
#17=CARTESIAN_POINT('',(0.E0,-5.E0,-4.888641935967E-1));
#18=DIRECTION('',(0.E0,1.E0,0.E0));
#19=DIRECTION('',(1.E0,0.E0,0.E0));
#20=AXIS2_PLACEMENT_3D('',#17,#18,#19);
#22=DIRECTION('',(0.E0,0.E0,-1.E0));
#23=VECTOR('',#22,2.4E1);
#24=CARTESIAN_POINT('',(2.E0,-5.E0,2.351113580640E1));
#25=LINE('283',#24,#23);
#26=DIRECTION('',(1.E0,0.E0,0.E0));
#27=VECTOR('',#26,2.85E1);
#28=CARTESIAN_POINT('',(2.E0,-5.E0,2.351113580640E1));
#29=LINE('290',#28,#27);
#30=CARTESIAN_POINT('',(0.E0,-5.E0,7.386620309806E0));
#31=DIRECTION('',(0.E0,1.E0,0.E0));
#32=DIRECTION('',(8.840579710145E-1,0.E0,4.673772607709E-1));
#33=AXIS2_PLACEMENT_3D('',#30,#31,#32);
#35=CARTESIAN_POINT('',(0.E0,-5.E0,4.140398971570E1));
#36=DIRECTION('',(0.E0,1.E0,0.E0));
#37=DIRECTION('',(3.397677710317E-1,0.E0,-9.405093629349E-1));
#38=AXIS2_PLACEMENT_3D('',#35,#36,#37);
#40=CARTESIAN_POINT('',(0.E0,-5.E0,7.386620309806E0));
#41=DIRECTION('',(0.E0,1.E0,0.E0));
#42=DIRECTION('',(-6.352180067113E-1,0.E0,-7.723328841566E-1));
#43=AXIS2_PLACEMENT_3D('',#40,#41,#42);
#45=DIRECTION('',(1.E0,0.E0,0.E0));
#46=VECTOR('',#45,2.85E1);
#47=CARTESIAN_POINT('',(-3.05E1,-5.E0,2.351113580640E1));
#48=LINE('289',#47,#46);
#49=DIRECTION('',(0.E0,0.E0,-1.E0));
#50=VECTOR('',#49,2.4E1);
#51=CARTESIAN_POINT('',(-2.E0,-5.E0,2.351113580640E1));
#52=LINE('282',#51,#50);
#53=CARTESIAN_POINT('',(0.E0,0.E0,-4.888641935967E-1));
#54=DIRECTION('',(0.E0,1.E0,0.E0));
#55=DIRECTION('',(1.E0,0.E0,0.E0));
#56=AXIS2_PLACEMENT_3D('',#53,#54,#55);
#58=DIRECTION('',(0.E0,-1.E0,0.E0));
#59=VECTOR('',#58,5.E0);
#60=CARTESIAN_POINT('',(2.E0,0.E0,-4.888641935967E-1));
#61=LINE('340',#60,#59);
#62=DIRECTION('',(1.E0,0.E0,0.E0));
#63=VECTOR('',#62,7.E0);
#64=CARTESIAN_POINT('',(-9.E0,0.E0,1.051113580640E1));
#65=LINE('342',#64,#63);
#66=DIRECTION('',(0.E0,0.E0,1.E0));
#67=VECTOR('',#66,1.6E1);
#68=CARTESIAN_POINT('',(-9.E0,0.E0,-5.488864193597E0));
#69=LINE('315',#68,#67);
#70=DIRECTION('',(-1.E0,0.E0,0.E0));
#71=VECTOR('',#70,1.8E1);
#72=CARTESIAN_POINT('',(9.E0,0.E0,-5.488864193597E0));
#73=LINE('314',#72,#71);
#74=DIRECTION('',(0.E0,0.E0,-1.E0));
#75=VECTOR('',#74,1.6E1);
#76=CARTESIAN_POINT('',(9.E0,0.E0,1.051113580640E1));
#77=LINE('313',#76,#75);
#78=DIRECTION('',(1.E0,0.E0,0.E0));
#79=VECTOR('',#78,7.E0);
#80=CARTESIAN_POINT('',(2.E0,0.E0,1.051113580640E1));
#81=LINE('343',#80,#79);
#82=DIRECTION('',(0.E0,0.E0,1.E0));
#83=VECTOR('',#82,1.1E1);
#84=CARTESIAN_POINT('',(-2.E0,0.E0,-4.888641935967E-1));
#85=LINE('330',#84,#83);
#86=DIRECTION('',(0.E0,-1.E0,0.E0));
#87=VECTOR('',#86,5.E0);
#88=CARTESIAN_POINT('',(-2.E0,0.E0,-4.888641935967E-1));
#89=LINE('341',#88,#87);
#90=DIRECTION('',(0.E0,-1.E0,0.E0));
#91=VECTOR('',#90,1.E0);
#92=CARTESIAN_POINT('',(-2.E0,1.E0,1.051113580640E1));
#93=LINE('331',#92,#91);
#94=DIRECTION('',(0.E0,1.E0,0.E0));
#95=VECTOR('',#94,6.E0);
#96=CARTESIAN_POINT('',(-2.E0,-5.E0,2.351113580640E1));
#97=LINE('287',#96,#95);
#98=DIRECTION('',(0.E0,1.E0,0.E0));
#99=VECTOR('',#98,1.E1);
#100=CARTESIAN_POINT('',(-3.05E1,-5.E0,2.351113580640E1));
#101=LINE('244',#100,#99);
#102=DIRECTION('',(0.E0,-1.E0,0.E0));
#103=VECTOR('',#102,4.E0);
#104=CARTESIAN_POINT('',(-9.E0,5.E0,2.351113580640E1));
#105=LINE('254',#104,#103);
#106=DIRECTION('',(1.E0,0.E0,0.E0));
#107=VECTOR('',#106,7.E0);
#108=CARTESIAN_POINT('',(-9.E0,1.E0,2.351113580640E1));
#109=LINE('291',#108,#107);
#110=DIRECTION('',(0.E0,1.E0,0.E0));
#111=VECTOR('',#110,6.E0);
#112=CARTESIAN_POINT('',(2.E0,-5.E0,2.351113580640E1));
#113=LINE('288',#112,#111);
#114=DIRECTION('',(1.E0,0.E0,0.E0));
#115=VECTOR('',#114,7.E0);
#116=CARTESIAN_POINT('',(2.E0,1.E0,2.351113580640E1));
#117=LINE('292',#116,#115);
#118=DIRECTION('',(0.E0,-1.E0,0.E0));
#119=VECTOR('',#118,4.E0);
#120=CARTESIAN_POINT('',(9.E0,5.E0,2.351113580640E1));
#121=LINE('253',#120,#119);
#122=DIRECTION('',(0.E0,1.E0,0.E0));
#123=VECTOR('',#122,1.E1);
#124=CARTESIAN_POINT('',(-2.191502123154E1,-5.E0,-1.925886419360E1));
#125=LINE('250',#124,#123);
#126=DIRECTION('',(0.E0,1.E0,0.E0));
#127=VECTOR('',#126,1.E1);
#128=CARTESIAN_POINT('',(2.191502123154E1,-5.E0,-1.925886419360E1));
#129=LINE('248',#128,#127);
#130=DIRECTION('',(0.E0,1.E0,0.E0));
#131=VECTOR('',#130,1.E1);
#132=CARTESIAN_POINT('',(3.05E1,-5.E0,2.351113580640E1));
#133=LINE('246',#132,#131);
#134=DIRECTION('',(0.E0,0.E0,-1.E0));
#135=VECTOR('',#134,2.9E1);
#136=CARTESIAN_POINT('',(9.E0,5.E0,2.351113580640E1));
#137=LINE('128',#136,#135);
#138=DIRECTION('',(-1.E0,0.E0,0.E0));
#139=VECTOR('',#138,1.8E1);
#140=CARTESIAN_POINT('',(9.E0,5.E0,-5.488864193597E0));
#141=LINE('129',#140,#139);
#142=DIRECTION('',(0.E0,0.E0,-1.E0));
#143=VECTOR('',#142,2.9E1);
#144=CARTESIAN_POINT('',(-9.E0,5.E0,2.351113580640E1));
#145=LINE('130',#144,#143);
#146=DIRECTION('',(1.E0,0.E0,0.E0));
#147=VECTOR('',#146,2.15E1);
#148=CARTESIAN_POINT('',(-3.05E1,5.E0,2.351113580640E1));
#149=LINE('257',#148,#147);
#150=CARTESIAN_POINT('',(0.E0,5.E0,7.386620309806E0));
#151=DIRECTION('',(0.E0,1.E0,0.E0));
#152=DIRECTION('',(-6.352180067113E-1,0.E0,-7.723328841566E-1));
#153=AXIS2_PLACEMENT_3D('',#150,#151,#152);
#155=CARTESIAN_POINT('',(0.E0,5.E0,4.140398971570E1));
#156=DIRECTION('',(0.E0,1.E0,0.E0));
#157=DIRECTION('',(3.397677710317E-1,0.E0,-9.405093629349E-1));
#158=AXIS2_PLACEMENT_3D('',#155,#156,#157);
#160=CARTESIAN_POINT('',(0.E0,5.E0,7.386620309806E0));
#161=DIRECTION('',(0.E0,1.E0,0.E0));
#162=DIRECTION('',(8.840579710145E-1,0.E0,4.673772607709E-1));
#163=AXIS2_PLACEMENT_3D('',#160,#161,#162);
#165=DIRECTION('',(1.E0,0.E0,0.E0));
#166=VECTOR('',#165,2.15E1);
#167=CARTESIAN_POINT('',(9.E0,5.E0,2.351113580640E1));
#168=LINE('259',#167,#166);
#169=DIRECTION('',(0.E0,-1.E0,0.E0));
#170=VECTOR('',#169,1.E0);
#171=CARTESIAN_POINT('',(9.E0,1.E0,1.051113580640E1));
#172=LINE('345',#171,#170);
#173=DIRECTION('',(1.E0,0.E0,0.E0));
#174=VECTOR('',#173,7.E0);
#175=CARTESIAN_POINT('',(-9.E0,1.E0,1.051113580640E1));
#176=LINE('324',#175,#174);
#177=DIRECTION('',(0.E0,0.E0,-1.E0));
#178=VECTOR('',#177,1.3E1);
#179=CARTESIAN_POINT('',(-2.E0,1.E0,2.351113580640E1));
#180=LINE('338',#179,#178);
#181=DIRECTION('',(0.E0,0.E0,1.E0));
#182=VECTOR('',#181,1.3E1);
#183=CARTESIAN_POINT('',(-9.E0,1.E0,1.051113580640E1));
#184=LINE('335',#183,#182);
#185=DIRECTION('',(1.E0,0.E0,0.E0));
#186=VECTOR('',#185,7.E0);
#187=CARTESIAN_POINT('',(2.E0,1.E0,1.051113580640E1));
#188=LINE('325',#187,#186);
#189=DIRECTION('',(0.E0,0.E0,-1.E0));
#190=VECTOR('',#189,1.3E1);
#191=CARTESIAN_POINT('',(9.E0,1.E0,2.351113580640E1));
#192=LINE('334',#191,#190);
#193=DIRECTION('',(0.E0,0.E0,-1.E0));
#194=VECTOR('',#193,1.3E1);
#195=CARTESIAN_POINT('',(2.E0,1.E0,2.351113580640E1));
#196=LINE('339',#195,#194);
#197=DIRECTION('',(0.E0,-1.E0,0.E0));
#198=VECTOR('',#197,1.E0);
#199=CARTESIAN_POINT('',(-9.E0,1.E0,1.051113580640E1));
#200=LINE('344',#199,#198);
#201=DIRECTION('',(0.E0,-1.E0,0.E0));
#202=VECTOR('',#201,5.E0);
#203=CARTESIAN_POINT('',(-9.E0,5.E0,-5.488864193597E0));
#204=LINE('349',#203,#202);
#205=DIRECTION('',(0.E0,-1.E0,0.E0));
#206=VECTOR('',#205,5.E0);
#207=CARTESIAN_POINT('',(9.E0,5.E0,-5.488864193597E0));
#208=LINE('348',#207,#206);
#209=DIRECTION('',(0.E0,0.E0,1.E0));
#210=VECTOR('',#209,1.1E1);
#211=CARTESIAN_POINT('',(2.E0,0.E0,-4.888641935967E-1));
#212=LINE('332',#211,#210);
#213=DIRECTION('',(0.E0,-1.E0,0.E0));
#214=VECTOR('',#213,1.E0);
#215=CARTESIAN_POINT('',(2.E0,1.E0,1.051113580640E1));
#216=LINE('333',#215,#214);
#217=CARTESIAN_POINT('',(9.E0,5.E0,2.351113580640E1));
#218=CARTESIAN_POINT('',(9.E0,5.E0,-5.488864193597E0));
#219=VERTEX_POINT('',#217);
#220=VERTEX_POINT('',#218);
#221=CARTESIAN_POINT('',(-9.E0,5.E0,-5.488864193597E0));
#222=VERTEX_POINT('',#221);
#223=CARTESIAN_POINT('',(-9.E0,5.E0,2.351113580640E1));
#224=VERTEX_POINT('',#223);
#225=CARTESIAN_POINT('',(3.05E1,-5.E0,2.351113580640E1));
#226=CARTESIAN_POINT('',(2.191502123154E1,-5.E0,-1.925886419360E1));
#227=VERTEX_POINT('',#225);
#228=VERTEX_POINT('',#226);
#229=CARTESIAN_POINT('',(-2.191502123154E1,-5.E0,-1.925886419360E1));
#230=VERTEX_POINT('',#229);
#231=CARTESIAN_POINT('',(-3.05E1,-5.E0,2.351113580640E1));
#232=VERTEX_POINT('',#231);
#233=CARTESIAN_POINT('',(3.05E1,5.E0,2.351113580640E1));
#234=CARTESIAN_POINT('',(2.191502123154E1,5.E0,-1.925886419360E1));
#235=VERTEX_POINT('',#233);
#236=VERTEX_POINT('',#234);
#237=CARTESIAN_POINT('',(-2.191502123154E1,5.E0,-1.925886419360E1));
#238=VERTEX_POINT('',#237);
#239=CARTESIAN_POINT('',(-3.05E1,5.E0,2.351113580640E1));
#240=VERTEX_POINT('',#239);
#241=CARTESIAN_POINT('',(9.E0,1.E0,2.351113580640E1));
#242=VERTEX_POINT('',#241);
#243=CARTESIAN_POINT('',(-9.E0,1.E0,2.351113580640E1));
#244=VERTEX_POINT('',#243);
#245=CARTESIAN_POINT('',(2.E0,-5.E0,-4.888641935967E-1));
#246=CARTESIAN_POINT('',(-2.E0,-5.E0,-4.888641935967E-1));
#247=VERTEX_POINT('',#245);
#248=VERTEX_POINT('',#246);
#249=CARTESIAN_POINT('',(-2.E0,-5.E0,2.351113580640E1));
#250=VERTEX_POINT('',#249);
#251=CARTESIAN_POINT('',(2.E0,-5.E0,2.351113580640E1));
#252=VERTEX_POINT('',#251);
#253=CARTESIAN_POINT('',(-2.E0,1.E0,2.351113580640E1));
#254=VERTEX_POINT('',#253);
#255=CARTESIAN_POINT('',(2.E0,1.E0,2.351113580640E1));
#256=VERTEX_POINT('',#255);
#257=CARTESIAN_POINT('',(9.E0,0.E0,1.051113580640E1));
#258=CARTESIAN_POINT('',(9.E0,0.E0,-5.488864193597E0));
#259=VERTEX_POINT('',#257);
#260=VERTEX_POINT('',#258);
#261=CARTESIAN_POINT('',(-9.E0,0.E0,-5.488864193597E0));
#262=VERTEX_POINT('',#261);
#263=CARTESIAN_POINT('',(-9.E0,0.E0,1.051113580640E1));
#264=VERTEX_POINT('',#263);
#265=CARTESIAN_POINT('',(-9.E0,1.E0,1.051113580640E1));
#266=CARTESIAN_POINT('',(-2.E0,1.E0,1.051113580640E1));
#267=VERTEX_POINT('',#265);
#268=VERTEX_POINT('',#266);
#269=CARTESIAN_POINT('',(2.E0,1.E0,1.051113580640E1));
#270=CARTESIAN_POINT('',(9.E0,1.E0,1.051113580640E1));
#271=VERTEX_POINT('',#269);
#272=VERTEX_POINT('',#270);
#273=CARTESIAN_POINT('',(2.E0,0.E0,-4.888641935967E-1));
#274=CARTESIAN_POINT('',(-2.E0,0.E0,-4.888641935967E-1));
#275=VERTEX_POINT('',#273);
#276=VERTEX_POINT('',#274);
#277=CARTESIAN_POINT('',(-2.E0,0.E0,1.051113580640E1));
#278=VERTEX_POINT('',#277);
#279=CARTESIAN_POINT('',(2.E0,0.E0,1.051113580640E1));
#280=VERTEX_POINT('',#279);
#281=CARTESIAN_POINT('',(0.E0,-5.E0,0.E0));
#282=DIRECTION('',(0.E0,1.E0,0.E0));
#283=DIRECTION('',(1.E0,0.E0,0.E0));
#284=AXIS2_PLACEMENT_3D('',#281,#282,#283);
#285=PLANE('68',#284);
#287=ORIENTED_EDGE('281',*,*,#286,.F.);
#289=ORIENTED_EDGE('283',*,*,#288,.F.);
#291=ORIENTED_EDGE('290',*,*,#290,.T.);
#293=ORIENTED_EDGE('236',*,*,#292,.T.);
#295=ORIENTED_EDGE('237',*,*,#294,.T.);
#297=ORIENTED_EDGE('238',*,*,#296,.T.);
#299=ORIENTED_EDGE('289',*,*,#298,.T.);
#301=ORIENTED_EDGE('282',*,*,#300,.T.);
#302=EDGE_LOOP('68',(#287,#289,#291,#293,#295,#297,#299,#301));
#303=FACE_OUTER_BOUND('68',#302,.F.);
#305=CARTESIAN_POINT('',(0.E0,5.E0,-4.888641935967E-1));
#306=DIRECTION('',(0.E0,1.E0,0.E0));
#307=DIRECTION('',(0.E0,0.E0,-1.E0));
#308=AXIS2_PLACEMENT_3D('',#305,#306,#307);
#309=CYLINDRICAL_SURFACE('273',#308,2.E0);
#311=ORIENTED_EDGE('329',*,*,#310,.F.);
#313=ORIENTED_EDGE('340',*,*,#312,.T.);
#314=ORIENTED_EDGE('281',*,*,#286,.T.);
#316=ORIENTED_EDGE('341',*,*,#315,.F.);
#317=EDGE_LOOP('273',(#311,#313,#314,#316));
#318=FACE_OUTER_BOUND('273',#317,.F.);
#320=CARTESIAN_POINT('',(0.E0,0.E0,0.E0));
#321=DIRECTION('',(0.E0,1.E0,0.E0));
#322=DIRECTION('',(1.E0,0.E0,0.E0));
#323=AXIS2_PLACEMENT_3D('',#320,#321,#322);
#324=PLANE('311',#323);
#325=ORIENTED_EDGE('329',*,*,#310,.T.);
#327=ORIENTED_EDGE('330',*,*,#326,.T.);
#329=ORIENTED_EDGE('342',*,*,#328,.F.);
#331=ORIENTED_EDGE('315',*,*,#330,.F.);
#333=ORIENTED_EDGE('314',*,*,#332,.F.);
#335=ORIENTED_EDGE('313',*,*,#334,.F.);
#337=ORIENTED_EDGE('343',*,*,#336,.F.);
#339=ORIENTED_EDGE('332',*,*,#338,.F.);
#340=EDGE_LOOP('311',(#325,#327,#329,#331,#333,#335,#337,#339));
#341=FACE_OUTER_BOUND('311',#340,.F.);
#343=CARTESIAN_POINT('',(-2.E0,5.E0,-4.888641935967E-1));
#344=DIRECTION('',(-1.E0,0.E0,0.E0));
#345=DIRECTION('',(0.E0,0.E0,1.E0));
#346=AXIS2_PLACEMENT_3D('',#343,#344,#345);
#347=PLANE('275',#346);
#348=ORIENTED_EDGE('330',*,*,#326,.F.);
#349=ORIENTED_EDGE('341',*,*,#315,.T.);
#350=ORIENTED_EDGE('282',*,*,#300,.F.);
#352=ORIENTED_EDGE('287',*,*,#351,.T.);
#354=ORIENTED_EDGE('338',*,*,#353,.T.);
#356=ORIENTED_EDGE('331',*,*,#355,.T.);
#357=EDGE_LOOP('275',(#348,#349,#350,#352,#354,#356));
#358=FACE_OUTER_BOUND('275',#357,.F.);
#360=CARTESIAN_POINT('',(-3.05E1,-5.E0,2.351113580640E1));
#361=DIRECTION('',(0.E0,0.E0,1.E0));
#362=DIRECTION('',(1.E0,0.E0,0.E0));
#363=AXIS2_PLACEMENT_3D('',#360,#361,#362);
#364=PLANE('243',#363);
#365=ORIENTED_EDGE('287',*,*,#351,.F.);
#366=ORIENTED_EDGE('289',*,*,#298,.F.);
#368=ORIENTED_EDGE('244',*,*,#367,.T.);
#370=ORIENTED_EDGE('257',*,*,#369,.T.);
#372=ORIENTED_EDGE('254',*,*,#371,.T.);
#374=ORIENTED_EDGE('291',*,*,#373,.T.);
#375=EDGE_LOOP('243',(#365,#366,#368,#370,#372,#374));
#376=FACE_OUTER_BOUND('243',#375,.F.);
#378=CARTESIAN_POINT('',(-3.05E1,-5.E0,2.351113580640E1));
#379=DIRECTION('',(0.E0,0.E0,1.E0));
#380=DIRECTION('',(1.E0,0.E0,0.E0));
#381=AXIS2_PLACEMENT_3D('',#378,#379,#380);
#382=PLANE('243',#381);
#384=ORIENTED_EDGE('288',*,*,#383,.T.);
#386=ORIENTED_EDGE('292',*,*,#385,.T.);
#388=ORIENTED_EDGE('253',*,*,#387,.F.);
#390=ORIENTED_EDGE('259',*,*,#389,.T.);
#392=ORIENTED_EDGE('246',*,*,#391,.F.);
#393=ORIENTED_EDGE('290',*,*,#290,.F.);
#394=EDGE_LOOP('243',(#384,#386,#388,#390,#392,#393));
#395=FACE_OUTER_BOUND('243',#394,.F.);
#397=CARTESIAN_POINT('',(0.E0,-5.E0,7.386620309806E0));
#398=DIRECTION('',(0.E0,1.E0,0.E0));
#399=DIRECTION('',(1.E0,0.E0,0.E0));
#400=AXIS2_PLACEMENT_3D('',#397,#398,#399);
#401=CYLINDRICAL_SURFACE('249',#400,3.45E1);
#402=ORIENTED_EDGE('238',*,*,#296,.F.);
#404=ORIENTED_EDGE('250',*,*,#403,.T.);
#406=ORIENTED_EDGE('242',*,*,#405,.T.);
#407=ORIENTED_EDGE('244',*,*,#367,.F.);
#408=EDGE_LOOP('249',(#402,#404,#406,#407));
#409=FACE_OUTER_BOUND('249',#408,.F.);
#411=CARTESIAN_POINT('',(0.E0,-5.E0,4.140398971570E1));
#412=DIRECTION('',(0.E0,1.E0,0.E0));
#413=DIRECTION('',(1.E0,0.E0,0.E0));
#414=AXIS2_PLACEMENT_3D('',#411,#412,#413);
#415=CYLINDRICAL_SURFACE('247',#414,6.45E1);
#416=ORIENTED_EDGE('237',*,*,#294,.F.);
#418=ORIENTED_EDGE('248',*,*,#417,.T.);
#420=ORIENTED_EDGE('241',*,*,#419,.T.);
#421=ORIENTED_EDGE('250',*,*,#403,.F.);
#422=EDGE_LOOP('247',(#416,#418,#420,#421));
#423=FACE_OUTER_BOUND('247',#422,.F.);
#425=CARTESIAN_POINT('',(0.E0,-5.E0,7.386620309806E0));
#426=DIRECTION('',(0.E0,1.E0,0.E0));
#427=DIRECTION('',(1.E0,0.E0,0.E0));
#428=AXIS2_PLACEMENT_3D('',#425,#426,#427);
#429=CYLINDRICAL_SURFACE('245',#428,3.45E1);
#430=ORIENTED_EDGE('236',*,*,#292,.F.);
#431=ORIENTED_EDGE('246',*,*,#391,.T.);
#433=ORIENTED_EDGE('240',*,*,#432,.T.);
#434=ORIENTED_EDGE('248',*,*,#417,.F.);
#435=EDGE_LOOP('245',(#430,#431,#433,#434));
#436=FACE_OUTER_BOUND('245',#435,.F.);
#438=CARTESIAN_POINT('',(0.E0,5.E0,0.E0));
#439=DIRECTION('',(0.E0,1.E0,0.E0));
#440=DIRECTION('',(1.E0,0.E0,0.E0));
#441=AXIS2_PLACEMENT_3D('',#438,#439,#440);
#442=PLANE('73',#441);
#444=ORIENTED_EDGE('128',*,*,#443,.T.);
#446=ORIENTED_EDGE('129',*,*,#445,.T.);
#448=ORIENTED_EDGE('130',*,*,#447,.F.);
#449=ORIENTED_EDGE('257',*,*,#369,.F.);
#450=ORIENTED_EDGE('242',*,*,#405,.F.);
#451=ORIENTED_EDGE('241',*,*,#419,.F.);
#452=ORIENTED_EDGE('240',*,*,#432,.F.);
#453=ORIENTED_EDGE('259',*,*,#389,.F.);
#454=EDGE_LOOP('73',(#444,#446,#448,#449,#450,#451,#452,#453));
#455=FACE_OUTER_BOUND('73',#454,.F.);
#457=CARTESIAN_POINT('',(9.E0,5.E0,2.351113580640E1));
#458=DIRECTION('',(1.E0,0.E0,0.E0));
#459=DIRECTION('',(0.E0,0.E0,-1.E0));
#460=AXIS2_PLACEMENT_3D('',#457,#458,#459);
#461=PLANE('117',#460);
#463=ORIENTED_EDGE('334',*,*,#462,.T.);
#465=ORIENTED_EDGE('345',*,*,#464,.T.);
#466=ORIENTED_EDGE('313',*,*,#334,.T.);
#468=ORIENTED_EDGE('348',*,*,#467,.F.);
#469=ORIENTED_EDGE('128',*,*,#443,.F.);
#470=ORIENTED_EDGE('253',*,*,#387,.T.);
#471=EDGE_LOOP('117',(#463,#465,#466,#468,#469,#470));
#472=FACE_OUTER_BOUND('117',#471,.F.);
#474=CARTESIAN_POINT('',(0.E0,1.E0,0.E0));
#475=DIRECTION('',(0.E0,1.E0,0.E0));
#476=DIRECTION('',(1.E0,0.E0,0.E0));
#477=AXIS2_PLACEMENT_3D('',#474,#475,#476);
#478=PLANE('110',#477);
#480=ORIENTED_EDGE('324',*,*,#479,.T.);
#481=ORIENTED_EDGE('338',*,*,#353,.F.);
#482=ORIENTED_EDGE('291',*,*,#373,.F.);
#484=ORIENTED_EDGE('335',*,*,#483,.F.);
#485=EDGE_LOOP('110',(#480,#481,#482,#484));
#486=FACE_OUTER_BOUND('110',#485,.F.);
#488=CARTESIAN_POINT('',(0.E0,1.E0,0.E0));
#489=DIRECTION('',(0.E0,1.E0,0.E0));
#490=DIRECTION('',(1.E0,0.E0,0.E0));
#491=AXIS2_PLACEMENT_3D('',#488,#489,#490);
#492=PLANE('110',#491);
#494=ORIENTED_EDGE('325',*,*,#493,.T.);
#495=ORIENTED_EDGE('334',*,*,#462,.F.);
#496=ORIENTED_EDGE('292',*,*,#385,.F.);
#498=ORIENTED_EDGE('339',*,*,#497,.T.);
#499=EDGE_LOOP('110',(#494,#495,#496,#498));
#500=FACE_OUTER_BOUND('110',#499,.F.);
#502=CARTESIAN_POINT('',(-9.E0,1.E0,1.051113580640E1));
#503=DIRECTION('',(0.E0,0.E0,1.E0));
#504=DIRECTION('',(1.E0,0.E0,0.E0));
#505=AXIS2_PLACEMENT_3D('',#502,#503,#504);
#506=PLANE('316',#505);
#507=ORIENTED_EDGE('324',*,*,#479,.F.);
#509=ORIENTED_EDGE('344',*,*,#508,.T.);
#510=ORIENTED_EDGE('342',*,*,#328,.T.);
#511=ORIENTED_EDGE('331',*,*,#355,.F.);
#512=EDGE_LOOP('316',(#507,#509,#510,#511));
#513=FACE_OUTER_BOUND('316',#512,.F.);
#515=CARTESIAN_POINT('',(-9.E0,1.E0,1.051113580640E1));
#516=DIRECTION('',(0.E0,0.E0,1.E0));
#517=DIRECTION('',(1.E0,0.E0,0.E0));
#518=AXIS2_PLACEMENT_3D('',#515,#516,#517);
#519=PLANE('316',#518);
#520=ORIENTED_EDGE('325',*,*,#493,.F.);
#522=ORIENTED_EDGE('333',*,*,#521,.T.);
#523=ORIENTED_EDGE('343',*,*,#336,.T.);
#524=ORIENTED_EDGE('345',*,*,#464,.F.);
#525=EDGE_LOOP('316',(#520,#522,#523,#524));
#526=FACE_OUTER_BOUND('316',#525,.F.);
#528=CARTESIAN_POINT('',(-9.E0,5.E0,-5.488864193597E0));
#529=DIRECTION('',(-1.E0,0.E0,0.E0));
#530=DIRECTION('',(0.E0,0.E0,1.E0));
#531=AXIS2_PLACEMENT_3D('',#528,#529,#530);
#532=PLANE('121',#531);
#534=ORIENTED_EDGE('349',*,*,#533,.T.);
#535=ORIENTED_EDGE('315',*,*,#330,.T.);
#536=ORIENTED_EDGE('344',*,*,#508,.F.);
#537=ORIENTED_EDGE('335',*,*,#483,.T.);
#538=ORIENTED_EDGE('254',*,*,#371,.F.);
#539=ORIENTED_EDGE('130',*,*,#447,.T.);
#540=EDGE_LOOP('121',(#534,#535,#536,#537,#538,#539));
#541=FACE_OUTER_BOUND('121',#540,.F.);
#543=CARTESIAN_POINT('',(9.E0,5.E0,-5.488864193597E0));
#544=DIRECTION('',(0.E0,0.E0,-1.E0));
#545=DIRECTION('',(-1.E0,0.E0,0.E0));
#546=AXIS2_PLACEMENT_3D('',#543,#544,#545);
#547=PLANE('119',#546);
#548=ORIENTED_EDGE('348',*,*,#467,.T.);
#549=ORIENTED_EDGE('314',*,*,#332,.T.);
#550=ORIENTED_EDGE('349',*,*,#533,.F.);
#551=ORIENTED_EDGE('129',*,*,#445,.F.);
#552=EDGE_LOOP('119',(#548,#549,#550,#551));
#553=FACE_OUTER_BOUND('119',#552,.F.);
#555=CARTESIAN_POINT('',(2.E0,5.E0,2.351113580640E1));
#556=DIRECTION('',(1.E0,0.E0,0.E0));
#557=DIRECTION('',(0.E0,0.E0,-1.E0));
#558=AXIS2_PLACEMENT_3D('',#555,#556,#557);
#559=PLANE('279',#558);
#560=ORIENTED_EDGE('332',*,*,#338,.T.);
#561=ORIENTED_EDGE('333',*,*,#521,.F.);
#562=ORIENTED_EDGE('339',*,*,#497,.F.);
#563=ORIENTED_EDGE('288',*,*,#383,.F.);
#564=ORIENTED_EDGE('283',*,*,#288,.T.);
#565=ORIENTED_EDGE('340',*,*,#312,.F.);
#566=EDGE_LOOP('279',(#560,#561,#562,#563,#564,#565));
#567=FACE_OUTER_BOUND('279',#566,.F.);
#571=CARTESIAN_POINT('',(0.E0,0.E0,0.E0));
#572=DIRECTION('',(1.E0,0.E0,0.E0));
#573=DIRECTION('',(0.E0,1.E0,0.E0));
#574=AXIS2_PLACEMENT_3D('',#571,#572,#573);
#575=PLANE('RECHTS',#574);
#576=CARTESIAN_POINT('',(0.E0,0.E0,0.E0));
#577=DIRECTION('',(0.E0,1.E0,0.E0));
#578=DIRECTION('',(0.E0,0.E0,1.E0));
#579=AXIS2_PLACEMENT_3D('',#576,#577,#578);
#580=PLANE('OBEN',#579);
#581=CARTESIAN_POINT('',(0.E0,0.E0,0.E0));
#582=DIRECTION('',(0.E0,0.E0,1.E0));
#583=DIRECTION('',(1.E0,0.E0,0.E0));
#584=AXIS2_PLACEMENT_3D('',#581,#582,#583);
#585=PLANE('VORNE',#584);
#586=CARTESIAN_POINT('',(0.E0,0.E0,0.E0));
#587=DIRECTION('',(0.E0,0.E0,1.E0));
#588=DIRECTION('',(1.E0,0.E0,0.E0));
#589=AXIS2_PLACEMENT_3D('PRT_CSYS_DEF',#586,#587,#588);
#590=DRAUGHTING_PRE_DEFINED_CURVE_FONT('continuous');
#591=CURVE_STYLE('',#590,POSITIVE_LENGTH_MEASURE(2.E-2),#6);
#592=PRESENTATION_STYLE_ASSIGNMENT((#591));
#593=STYLED_ITEM('',(#592),#589);
#594=DIRECTION('',(-1.E0,0.E0,0.E0));
#595=VECTOR('',#594,6.900889332306E1);
#596=CARTESIAN_POINT('',(3.450444666153E1,0.E0,0.E0));
#597=LINE('',#596,#595);
#599=CURVE_STYLE('',#590,POSITIVE_LENGTH_MEASURE(2.E-2),#4);
#600=PRESENTATION_STYLE_ASSIGNMENT((#599));
#601=STYLED_ITEM('',(#600),#598);
#602=DIRECTION('',(1.E0,0.E0,0.E0));
#603=VECTOR('',#602,6.1E1);
#604=CARTESIAN_POINT('',(-3.05E1,0.E0,2.351113580640E1));
#605=LINE('',#604,#603);
#607=CURVE_STYLE('',#590,POSITIVE_LENGTH_MEASURE(2.E-2),#1);
#608=PRESENTATION_STYLE_ASSIGNMENT((#607));
#609=STYLED_ITEM('',(#608),#606);
#611=CARTESIAN_POINT('',(0.E0,0.E0,7.386620309806E0));
#612=DIRECTION('',(0.E0,1.E0,0.E0));
#613=DIRECTION('',(8.840579710145E-1,0.E0,4.673772607709E-1));
#614=AXIS2_PLACEMENT_3D('',#611,#612,#613);
#617=CURVE_STYLE('',#590,POSITIVE_LENGTH_MEASURE(2.E-2),#1);
#618=PRESENTATION_STYLE_ASSIGNMENT((#617));
#619=STYLED_ITEM('',(#618),#616);
#621=CARTESIAN_POINT('',(0.E0,0.E0,4.140398971570E1));
#622=DIRECTION('',(0.E0,1.E0,0.E0));
#623=DIRECTION('',(3.397677710317E-1,0.E0,-9.405093629349E-1));
#624=AXIS2_PLACEMENT_3D('',#621,#622,#623);
#627=CURVE_STYLE('',#590,POSITIVE_LENGTH_MEASURE(2.E-2),#1);
#628=PRESENTATION_STYLE_ASSIGNMENT((#627));
#629=STYLED_ITEM('',(#628),#626);
#631=CARTESIAN_POINT('',(0.E0,0.E0,7.386620309806E0));
#632=DIRECTION('',(0.E0,1.E0,0.E0));
#633=DIRECTION('',(-6.352180067113E-1,0.E0,-7.723328841566E-1));
#634=AXIS2_PLACEMENT_3D('',#631,#632,#633);
#637=CURVE_STYLE('',#590,POSITIVE_LENGTH_MEASURE(2.E-2),#1);
#638=PRESENTATION_STYLE_ASSIGNMENT((#637));
#639=STYLED_ITEM('',(#638),#636);
#643=DIRECTION('',(1.E0,0.E0,0.E0));
#644=VECTOR('',#643,7.E0);
#645=CARTESIAN_POINT('',(-9.E0,5.E0,2.351113580640E1));
#646=LINE('',#645,#644);
#648=CURVE_STYLE('',#590,POSITIVE_LENGTH_MEASURE(2.E-2),#1);
#649=PRESENTATION_STYLE_ASSIGNMENT((#648));
#650=STYLED_ITEM('',(#649),#647);
#652=DIRECTION('',(0.E0,0.E0,-1.E0));
#653=VECTOR('',#652,2.4E1);
#654=CARTESIAN_POINT('',(-2.E0,5.E0,2.351113580640E1));
#655=LINE('',#654,#653);
#657=CURVE_STYLE('',#590,POSITIVE_LENGTH_MEASURE(2.E-2),#1);
#658=PRESENTATION_STYLE_ASSIGNMENT((#657));
#659=STYLED_ITEM('',(#658),#656);
#661=CARTESIAN_POINT('',(0.E0,5.E0,-4.888641935967E-1));
#662=DIRECTION('',(0.E0,-1.E0,0.E0));
#663=DIRECTION('',(-1.E0,0.E0,0.E0));
#664=AXIS2_PLACEMENT_3D('',#661,#662,#663);
#667=CURVE_STYLE('',#590,POSITIVE_LENGTH_MEASURE(2.E-2),#1);
#668=PRESENTATION_STYLE_ASSIGNMENT((#667));
#669=STYLED_ITEM('',(#668),#666);
#671=DIRECTION('',(0.E0,0.E0,1.E0));
#672=VECTOR('',#671,2.4E1);
#673=CARTESIAN_POINT('',(2.E0,5.E0,-4.888641935967E-1));
#674=LINE('',#673,#672);
#676=CURVE_STYLE('',#590,POSITIVE_LENGTH_MEASURE(2.E-2),#1);
#677=PRESENTATION_STYLE_ASSIGNMENT((#676));
#678=STYLED_ITEM('',(#677),#675);
#680=DIRECTION('',(1.E0,0.E0,0.E0));
#681=VECTOR('',#680,7.E0);
#682=CARTESIAN_POINT('',(2.E0,5.E0,2.351113580640E1));
#683=LINE('',#682,#681);
#685=CURVE_STYLE('',#590,POSITIVE_LENGTH_MEASURE(2.E-2),#1);
#686=PRESENTATION_STYLE_ASSIGNMENT((#685));
#687=STYLED_ITEM('',(#686),#684);
#689=DIRECTION('',(0.E0,0.E0,-1.E0));
#690=VECTOR('',#689,2.9E1);
#691=CARTESIAN_POINT('',(9.E0,5.E0,2.351113580640E1));
#692=LINE('',#691,#690);
#694=CURVE_STYLE('',#590,POSITIVE_LENGTH_MEASURE(2.E-2),#1);
#695=PRESENTATION_STYLE_ASSIGNMENT((#694));
#696=STYLED_ITEM('',(#695),#693);
#698=DIRECTION('',(-1.E0,0.E0,0.E0));
#699=VECTOR('',#698,1.8E1);
#700=CARTESIAN_POINT('',(9.E0,5.E0,-5.488864193597E0));
#701=LINE('',#700,#699);
#703=CURVE_STYLE('',#590,POSITIVE_LENGTH_MEASURE(2.E-2),#1);
#704=PRESENTATION_STYLE_ASSIGNMENT((#703));
#705=STYLED_ITEM('',(#704),#702);
#707=DIRECTION('',(0.E0,0.E0,1.E0));
#708=VECTOR('',#707,2.9E1);
#709=CARTESIAN_POINT('',(-9.E0,5.E0,-5.488864193597E0));
#710=LINE('',#709,#708);
#712=CURVE_STYLE('',#590,POSITIVE_LENGTH_MEASURE(2.E-2),#1);
#713=PRESENTATION_STYLE_ASSIGNMENT((#712));
#714=STYLED_ITEM('',(#713),#711);
#717=CARTESIAN_POINT('',(0.E0,5.E0,-4.888641935967E-1));
#718=DIRECTION('',(0.E0,1.E0,0.E0));
#719=DIRECTION('',(1.E0,0.E0,0.E0));
#720=AXIS2_PLACEMENT_3D('',#717,#718,#719);
#723=CURVE_STYLE('',#590,POSITIVE_LENGTH_MEASURE(2.E-2),#1);
#724=PRESENTATION_STYLE_ASSIGNMENT((#723));
#725=STYLED_ITEM('',(#724),#722);
#727=DIRECTION('',(0.E0,0.E0,1.E0));
#728=VECTOR('',#727,2.4E1);
#729=CARTESIAN_POINT('',(-2.E0,5.E0,-4.888641935967E-1));
#730=LINE('',#729,#728);
#732=CURVE_STYLE('',#590,POSITIVE_LENGTH_MEASURE(2.E-2),#1);
#733=PRESENTATION_STYLE_ASSIGNMENT((#732));
#734=STYLED_ITEM('',(#733),#731);
#736=DIRECTION('',(1.E0,0.E0,0.E0));
#737=VECTOR('',#736,4.E0);
#738=CARTESIAN_POINT('',(-2.E0,5.E0,2.351113580640E1));
#739=LINE('',#738,#737);
#741=CURVE_STYLE('',#590,POSITIVE_LENGTH_MEASURE(2.E-2),#1);
#742=PRESENTATION_STYLE_ASSIGNMENT((#741));
#743=STYLED_ITEM('',(#742),#740);
#745=DIRECTION('',(0.E0,0.E0,-1.E0));
#746=VECTOR('',#745,2.4E1);
#747=CARTESIAN_POINT('',(2.E0,5.E0,2.351113580640E1));
#748=LINE('',#747,#746);
#750=CURVE_STYLE('',#590,POSITIVE_LENGTH_MEASURE(2.E-2),#1);
#751=PRESENTATION_STYLE_ASSIGNMENT((#750));
#752=STYLED_ITEM('',(#751),#749);
#755=DIRECTION('',(1.E0,0.E0,0.E0));
#756=VECTOR('',#755,1.8E1);
#757=CARTESIAN_POINT('',(-9.E0,1.E0,1.051113580640E1));
#758=LINE('',#757,#756);
#760=CURVE_STYLE('',#590,POSITIVE_LENGTH_MEASURE(2.E-2),#1);
#761=PRESENTATION_STYLE_ASSIGNMENT((#760));
#762=STYLED_ITEM('',(#761),#759);
#764=DIRECTION('',(0.E0,0.E0,-1.E0));
#765=VECTOR('',#764,1.6E1);
#766=CARTESIAN_POINT('',(9.E0,1.E0,1.051113580640E1));
#767=LINE('',#766,#765);
#769=CURVE_STYLE('',#590,POSITIVE_LENGTH_MEASURE(2.E-2),#1);
#770=PRESENTATION_STYLE_ASSIGNMENT((#769));
#771=STYLED_ITEM('',(#770),#768);
#773=DIRECTION('',(-1.E0,0.E0,0.E0));
#774=VECTOR('',#773,1.8E1);
#775=CARTESIAN_POINT('',(9.E0,1.E0,-5.488864193597E0));
#776=LINE('',#775,#774);
#778=CURVE_STYLE('',#590,POSITIVE_LENGTH_MEASURE(2.E-2),#1);
#779=PRESENTATION_STYLE_ASSIGNMENT((#778));
#780=STYLED_ITEM('',(#779),#777);
#782=DIRECTION('',(0.E0,0.E0,1.E0));
#783=VECTOR('',#782,1.6E1);
#784=CARTESIAN_POINT('',(-9.E0,1.E0,-5.488864193597E0));
#785=LINE('',#784,#783);
#787=CURVE_STYLE('',#590,POSITIVE_LENGTH_MEASURE(2.E-2),#1);
#788=PRESENTATION_STYLE_ASSIGNMENT((#787));
#789=STYLED_ITEM('',(#788),#786);
#792=PRESENTATION_LAYER_ASSIGNMENT('_26_BEZUGSACHSEN','',(#598));
#793=PRESENTATION_LAYER_ASSIGNMENT('_27_BEZUGSEBENEN','',(#575,#580,#585));
#794=PRESENTATION_LAYER_ASSIGNMENT('_29_KOORDINATENSYSTEME','',(#589));
#795=PRESENTATION_LAYER_ASSIGNMENT('_00_PRT_START_FEATURES','',(#575,#580,#585,
#589,#598));
#796=PRESENTATION_LAYER_ASSIGNMENT('_21_KURVEN','',(#641,#716,#754,#791));
#797=PRESENTATION_LAYER_ASSIGNMENT('.BLACK_HOLE','',(#641,#716,#754,#791));
#798=INVISIBILITY((#797));
#801=PLANE_ANGLE_MEASURE_WITH_UNIT(PLANE_ANGLE_MEASURE(1.745329251994E-2),#800);
#802=(CONVERSION_BASED_UNIT('DEGREE',#801)NAMED_UNIT(*)PLANE_ANGLE_UNIT());
#804=UNCERTAINTY_MEASURE_WITH_UNIT(LENGTH_MEASURE(1.E-2),#799,'closure',
'Maximum model space distance between geometric entities at asserted connectivities');
#642=GEOMETRIC_CURVE_SET('230',(#641,#716,#754,#791));
#809=CARTESIAN_POINT('',(0.E0,0.E0,0.E0));
#810=DIRECTION('',(0.E0,0.E0,1.E0));
#811=DIRECTION('',(1.E0,0.E0,0.E0));
#814=SHAPE_REPRESENTATION_RELATIONSHIP('','',#813,#806);
#815=SHAPE_REPRESENTATION_RELATIONSHIP('','',#813,#807);
#816=CONSTRUCTIVE_GEOMETRY_REPRESENTATION_RELATIONSHIP('','',#813,#808);
#817=MECHANICAL_DESIGN_GEOMETRIC_PRESENTATION_REPRESENTATION('',(#593,#601,#609,
#619,#629,#639,#650,#659,#669,#678,#687,#696,#705,#714,#725,#734,#743,#752,#762,
#771,#780,#789),#805);
#818=APPLICATION_CONTEXT('automotive design');
#819=APPLICATION_PROTOCOL_DEFINITION('international standard',
'config_control_design',1994,#818);
#820=PRODUCT_DEFINITION_CONTEXT('',#818,'design');
#821=PRODUCT_CONTEXT('',#818,'mechanical');
#822=PRODUCT('CABLE_FEEDTROUGH_COVER','CABLE_FEEDTROUGH_COVER','NOT SPECIFIED',(
#821));
#823=PRODUCT_DEFINITION_FORMATION_WITH_SPECIFIED_SOURCE('12','LAST_VERSION',
#822,.MADE.);
#831=DERIVED_UNIT_ELEMENT(#830,-3.E0);
#833=DERIVED_UNIT_ELEMENT(#832,1.E0);
#834=DERIVED_UNIT((#831,#833));
#835=MEASURE_REPRESENTATION_ITEM('density measure',POSITIVE_RATIO_MEASURE(
7.85E-6),#834);
#839=DESCRIPTIVE_REPRESENTATION_ITEM('STAHL_ALLGEMEIN','');
#848=DERIVED_UNIT_ELEMENT(#847,2.E0);
#849=AREA_UNIT((#848));
#850=MEASURE_REPRESENTATION_ITEM('surface area measure',AREA_MEASURE(
8.002118232281E3),#849);
#855=DERIVED_UNIT_ELEMENT(#854,3.E0);
#856=VOLUME_UNIT((#855));
#857=MEASURE_REPRESENTATION_ITEM('volume measure',VOLUME_MEASURE(
2.523845203753E4),#856);
#861=CARTESIAN_POINT('centre point',(3.140237993426E-7,-2.042700688964E-1,
1.246338503386E0));
#866=DERIVED_UNIT_ELEMENT(#865,2.E0);
#867=AREA_UNIT((#866));
#868=MEASURE_REPRESENTATION_ITEM('surface area measure',AREA_MEASURE(
8.002118232281E3),#867);
#873=DERIVED_UNIT_ELEMENT(#872,3.E0);
#874=VOLUME_UNIT((#873));
#875=MEASURE_REPRESENTATION_ITEM('volume measure',VOLUME_MEASURE(
2.523845203753E4),#874);
#879=CARTESIAN_POINT('centre point',(3.140237993426E-7,-2.042700688964E-1,
1.246338503386E0));
#883=PRODUCT_CONTEXT('',#818,'mechanical');
#884=PRODUCT('STAHL_ALLGEMEIN','allgemeiner Stahl','NOT SPECIFIED',(#883));
#885=PRODUCT_DEFINITION_FORMATION_WITH_SPECIFIED_SOURCE('','LAST_VERSION',#884,
.MADE.);
#888=DIMENSIONAL_EXPONENTS(0.E0,0.E0,0.E0,0.E0,0.E0,0.E0,0.E0);
#889=NAMED_UNIT(#888);
#890=MEASURE_WITH_UNIT(COUNT_MEASURE(1.E0),#889);
#892=DERIVED_UNIT_ELEMENT(#891,-3.E0);
#894=DERIVED_UNIT_ELEMENT(#893,1.E0);
#895=DERIVED_UNIT((#892,#894));
#896=MEASURE_REPRESENTATION_ITEM('density measure',POSITIVE_RATIO_MEASURE(
7.85E-6),#895);
#901=DRAUGHTING_MODEL('Default',(#915,#917,#919,#930,#931),#805);
#902=CARTESIAN_POINT('',(0.E0,0.E0,0.E0));
#903=DIRECTION('',(0.E0,0.E0,1.E0));
#904=DIRECTION('',(1.E0,0.E0,0.E0));
#905=AXIS2_PLACEMENT_3D('',#902,#903,#904);
#906=REPRESENTATION_MAP(#905,#813);
#907=MAPPED_ITEM('',#906,#905);
#908=PRESENTATION_STYLE_ASSIGNMENT((.NULL.));
#909=STYLED_ITEM('',(#908),#907);
#910=DRAUGHTING_MODEL('',(#905,#907,#909),#805);
#911=MECHANICAL_DESIGN_AND_DRAUGHTING_RELATIONSHIP('','',#901,#910);
#912=CARTESIAN_POINT('',(0.E0,0.E0,0.E0));
#913=DIRECTION('',(0.E0,0.E0,1.E0));
#914=DIRECTION('',(1.E0,0.E0,0.E0));
#915=AXIS2_PLACEMENT_3D('',#912,#913,#914);
#916=REPRESENTATION_MAP(#915,#813);
#917=MAPPED_ITEM('',#916,#915);
#918=PRESENTATION_STYLE_ASSIGNMENT((.NULL.));
#919=STYLED_ITEM('',(#918),#917);
#920=CARTESIAN_POINT('',(0.E0,0.E0,0.E0));
#921=CARTESIAN_POINT('',(-4.945694122786E1,-4.172929416100E1,1.702885041424E2));
#922=DIRECTION('',(0.E0,0.E0,1.E0));
#923=DIRECTION('',(1.E0,0.E0,0.E0));
#924=AXIS2_PLACEMENT_3D('',#921,#922,#923);
#926=VIEW_VOLUME(.PARALLEL.,#920,1.702885041424E2,1.702885041424E2,.T.,0.E0,.F.,
.T.,#925);
#927=CARTESIAN_POINT('',(1.570180409252E0,1.224717252225E1,1.817499352642E2));
#928=DIRECTION('',(-2.711738920204E-1,-3.007818704648E-1,-9.143276145268E-1));
#929=DIRECTION('',(-9.600629033078E-1,1.654814065067E-2,2.792944337670E-1));
#930=AXIS2_PLACEMENT_3D('',#927,#928,#929);
#931=CAMERA_MODEL_D3('DEFAULT',#930,#926);
#932=DRAUGHTING_MODEL('V_A',(#937,#939,#941,#952,#953),#805);
#933=MECHANICAL_DESIGN_AND_DRAUGHTING_RELATIONSHIP('','',#932,#910);
#934=CARTESIAN_POINT('',(0.E0,0.E0,0.E0));
#935=DIRECTION('',(0.E0,0.E0,1.E0));
#936=DIRECTION('',(1.E0,0.E0,0.E0));
#937=AXIS2_PLACEMENT_3D('',#934,#935,#936);
#938=REPRESENTATION_MAP(#937,#813);
#939=MAPPED_ITEM('',#938,#937);
#940=PRESENTATION_STYLE_ASSIGNMENT((.NULL.));
#941=STYLED_ITEM('',(#940),#939);
#942=CARTESIAN_POINT('',(0.E0,0.E0,0.E0));
#943=CARTESIAN_POINT('',(-4.945694122786E1,-4.172929416100E1,1.704842991104E2));
#944=DIRECTION('',(0.E0,0.E0,1.E0));
#945=DIRECTION('',(1.E0,0.E0,0.E0));
#946=AXIS2_PLACEMENT_3D('',#943,#944,#945);
#948=VIEW_VOLUME(.PARALLEL.,#942,1.704842991104E2,1.704842991104E2,.T.,0.E0,.F.,
.T.,#947);
#949=CARTESIAN_POINT('',(-4.945694122786E1,-4.172929416100E1,1.704842991104E2));
#950=DIRECTION('',(0.E0,0.E0,-1.E0));
#951=DIRECTION('',(-1.E0,0.E0,0.E0));
#952=AXIS2_PLACEMENT_3D('',#949,#950,#951);
#953=CAMERA_MODEL_D3('FRONT',#952,#948);
#954=DRAUGHTING_MODEL('S_A',(#959,#961,#963,#974,#975),#805);
#955=MECHANICAL_DESIGN_AND_DRAUGHTING_RELATIONSHIP('','',#954,#910);
#956=CARTESIAN_POINT('',(0.E0,0.E0,0.E0));
#957=DIRECTION('',(0.E0,0.E0,1.E0));
#958=DIRECTION('',(1.E0,0.E0,0.E0));
#959=AXIS2_PLACEMENT_3D('',#956,#957,#958);
#960=REPRESENTATION_MAP(#959,#813);
#961=MAPPED_ITEM('',#960,#959);
#962=PRESENTATION_STYLE_ASSIGNMENT((.NULL.));
#963=STYLED_ITEM('',(#962),#961);
#964=CARTESIAN_POINT('',(0.E0,0.E0,0.E0));
#965=CARTESIAN_POINT('',(-4.926114625992E1,-4.172929416100E1,1.702885041424E2));
#966=DIRECTION('',(0.E0,0.E0,1.E0));
#967=DIRECTION('',(1.E0,0.E0,0.E0));
#968=AXIS2_PLACEMENT_3D('',#965,#966,#967);
#970=VIEW_VOLUME(.PARALLEL.,#964,1.702885041424E2,1.702885041424E2,.T.,0.E0,.F.,
.T.,#969);
#971=CARTESIAN_POINT('',(-1.702885041424E2,-4.172929416100E1,
-4.926114625992E1));
#972=DIRECTION('',(1.E0,0.E0,0.E0));
#973=DIRECTION('',(0.E0,0.E0,-1.E0));
#974=AXIS2_PLACEMENT_3D('',#971,#972,#973);
#975=CAMERA_MODEL_D3('LEFT',#974,#970);
#976=DRAUGHTING_MODEL('D_S',(#981,#983,#985,#996,#997),#805);
#977=MECHANICAL_DESIGN_AND_DRAUGHTING_RELATIONSHIP('','',#976,#910);
#978=CARTESIAN_POINT('',(0.E0,0.E0,0.E0));
#979=DIRECTION('',(0.E0,0.E0,1.E0));
#980=DIRECTION('',(1.E0,0.E0,0.E0));
#981=AXIS2_PLACEMENT_3D('',#978,#979,#980);
#982=REPRESENTATION_MAP(#981,#813);
#983=MAPPED_ITEM('',#982,#981);
#984=PRESENTATION_STYLE_ASSIGNMENT((.NULL.));
#985=STYLED_ITEM('',(#984),#983);
#986=CARTESIAN_POINT('',(0.E0,0.E0,0.E0));
#987=CARTESIAN_POINT('',(-4.945694122786E1,-4.192508912894E1,1.702885041424E2));
#988=DIRECTION('',(0.E0,0.E0,1.E0));
#989=DIRECTION('',(1.E0,0.E0,0.E0));
#990=AXIS2_PLACEMENT_3D('',#987,#988,#989);
#992=VIEW_VOLUME(.PARALLEL.,#986,1.702885041424E2,1.702885041424E2,.T.,0.E0,.F.,
.T.,#991);
#993=CARTESIAN_POINT('',(-4.945694122786E1,1.702885041424E2,4.192508912894E1));
#994=DIRECTION('',(0.E0,-1.E0,0.E0));
#995=DIRECTION('',(-1.E0,0.E0,0.E0));
#996=AXIS2_PLACEMENT_3D('',#993,#994,#995);
#997=CAMERA_MODEL_D3('TOP',#996,#992);
#999=GENERAL_PROPERTY('','CAD_APPROVED_BY','user defined attribute');
#1000=GENERAL_PROPERTY_ASSOCIATION('user defined attribute','',#999,#998);
#1001=DESCRIPTIVE_REPRESENTATION_ITEM('CAD_APPROVED_BY','-');
#1005=GENERAL_PROPERTY('','CAD_APPROVED_ON','user defined attribute');
#1006=GENERAL_PROPERTY_ASSOCIATION('user defined attribute','',#1005,#1004);
#1007=DESCRIPTIVE_REPRESENTATION_ITEM('CAD_APPROVED_ON','jjjj-mm-dd');
#1011=GENERAL_PROPERTY('','CAD_CHANGE_NO','user defined attribute');
#1012=GENERAL_PROPERTY_ASSOCIATION('user defined attribute','',#1011,#1010);
#1013=DESCRIPTIVE_REPRESENTATION_ITEM('CAD_CHANGE_NO','-');
#1017=GENERAL_PROPERTY('','CAD_CHANGE_TEXT','user defined attribute');
#1018=GENERAL_PROPERTY_ASSOCIATION('user defined attribute','',#1017,#1016);
#1019=DESCRIPTIVE_REPRESENTATION_ITEM('CAD_CHANGE_TEXT','-');
#1023=GENERAL_PROPERTY('','CAD_CREATED_BY','user defined attribute');
#1024=GENERAL_PROPERTY_ASSOCIATION('user defined attribute','',#1023,#1022);
#1025=DESCRIPTIVE_REPRESENTATION_ITEM('CAD_CREATED_BY','-');
#1029=GENERAL_PROPERTY('','CAD_CREATED_ON','user defined attribute');
#1030=GENERAL_PROPERTY_ASSOCIATION('user defined attribute','',#1029,#1028);
#1031=DESCRIPTIVE_REPRESENTATION_ITEM('CAD_CREATED_ON','jjjj-mm-dd');
#1035=GENERAL_PROPERTY('','CAD_LIFECYCLE_STATE','user defined attribute');
#1036=GENERAL_PROPERTY_ASSOCIATION('user defined attribute','',#1035,#1034);
#1037=DESCRIPTIVE_REPRESENTATION_ITEM('CAD_LIFECYCLE_STATE','-');
#1041=GENERAL_PROPERTY('','CAD_MODIFIED_BY','user defined attribute');
#1042=GENERAL_PROPERTY_ASSOCIATION('user defined attribute','',#1041,#1040);
#1043=DESCRIPTIVE_REPRESENTATION_ITEM('CAD_MODIFIED_BY','-');
#1047=GENERAL_PROPERTY('','CAD_MODIFIED_ON','user defined attribute');
#1048=GENERAL_PROPERTY_ASSOCIATION('user defined attribute','',#1047,#1046);
#1049=DESCRIPTIVE_REPRESENTATION_ITEM('CAD_MODIFIED_ON','jjjj-mm-dd');
#1053=GENERAL_PROPERTY('','CAD_REVISION','user defined attribute');
#1054=GENERAL_PROPERTY_ASSOCIATION('user defined attribute','',#1053,#1052);
#1055=DESCRIPTIVE_REPRESENTATION_ITEM('CAD_REVISION','-');
#1059=GENERAL_PROPERTY('','DEPARTMENT','user defined attribute');
#1060=GENERAL_PROPERTY_ASSOCIATION('user defined attribute','',#1059,#1058);
#1061=DESCRIPTIVE_REPRESENTATION_ITEM('DEPARTMENT','DEV');
#1065=GENERAL_PROPERTY('','DESCRIPTION_1_DE','user defined attribute');
#1066=GENERAL_PROPERTY_ASSOCIATION('user defined attribute','',#1065,#1064);
#1067=DESCRIPTIVE_REPRESENTATION_ITEM('DESCRIPTION_1_DE','-');
#1071=GENERAL_PROPERTY('','DESCRIPTION_1_EN','user defined attribute');
#1072=GENERAL_PROPERTY_ASSOCIATION('user defined attribute','',#1071,#1070);
#1073=DESCRIPTIVE_REPRESENTATION_ITEM('DESCRIPTION_1_EN','-');
#1077=GENERAL_PROPERTY('','DESCRIPTION_2_DE','user defined attribute');
#1078=GENERAL_PROPERTY_ASSOCIATION('user defined attribute','',#1077,#1076);
#1079=DESCRIPTIVE_REPRESENTATION_ITEM('DESCRIPTION_2_DE','-');
#1083=GENERAL_PROPERTY('','DESCRIPTION_2_EN','user defined attribute');
#1084=GENERAL_PROPERTY_ASSOCIATION('user defined attribute','',#1083,#1082);
#1085=DESCRIPTIVE_REPRESENTATION_ITEM('DESCRIPTION_2_EN','-');
#1089=GENERAL_PROPERTY('','DRAWING_NO','user defined attribute');
#1090=GENERAL_PROPERTY_ASSOCIATION('user defined attribute','',#1089,#1088);
#1091=DESCRIPTIVE_REPRESENTATION_ITEM('DRAWING_NO','-');
#1095=GENERAL_PROPERTY('','MC_CHECKTYPE','user defined attribute');
#1096=GENERAL_PROPERTY_ASSOCIATION('user defined attribute','',#1095,#1094);
#1097=DESCRIPTIVE_REPRESENTATION_ITEM('MC_CHECKTYPE','SUT_INT_DE');
#1101=GENERAL_PROPERTY('','COATING','user defined attribute');
#1102=GENERAL_PROPERTY_ASSOCIATION('user defined attribute','',#1101,#1100);
#1103=DESCRIPTIVE_REPRESENTATION_ITEM('COATING','-');
#1107=GENERAL_PROPERTY('','COLORING','user defined attribute');
#1108=GENERAL_PROPERTY_ASSOCIATION('user defined attribute','',#1107,#1106);
#1109=DESCRIPTIVE_REPRESENTATION_ITEM('COLORING','-');
#1113=GENERAL_PROPERTY('','DESC_SEMIFINISHED','user defined attribute');
#1114=GENERAL_PROPERTY_ASSOCIATION('user defined attribute','',#1113,#1112);
#1115=DESCRIPTIVE_REPRESENTATION_ITEM('DESC_SEMIFINISHED','-');
#1119=GENERAL_PROPERTY('','DIMENSION','user defined attribute');
#1120=GENERAL_PROPERTY_ASSOCIATION('user defined attribute','',#1119,#1118);
#1121=DESCRIPTIVE_REPRESENTATION_ITEM('DIMENSION','-');
#1125=GENERAL_PROPERTY('','HARDNESS','user defined attribute');
#1126=GENERAL_PROPERTY_ASSOCIATION('user defined attribute','',#1125,#1124);
#1127=DESCRIPTIVE_REPRESENTATION_ITEM('HARDNESS','-');
#1131=GENERAL_PROPERTY('','MASS','user defined attribute');
#1132=GENERAL_PROPERTY_ASSOCIATION('user defined attribute','',#1131,#1130);
#1133=REAL_REPRESENTATION_ITEM('MASS',1.98E-1);
#1137=GENERAL_PROPERTY('','MATERIAL','user defined attribute');
#1138=GENERAL_PROPERTY_ASSOCIATION('user defined attribute','',#1137,#1136);
#1139=DESCRIPTIVE_REPRESENTATION_ITEM('MATERIAL','Stahl allg.');
#1143=GENERAL_PROPERTY('','PART_NO','user defined attribute');
#1144=GENERAL_PROPERTY_ASSOCIATION('user defined attribute','',#1143,#1142);
#1145=DESCRIPTIVE_REPRESENTATION_ITEM('PART_NO','-');
#1149=GENERAL_PROPERTY('','PART_NO_SEMIFINISHED','user defined attribute');
#1150=GENERAL_PROPERTY_ASSOCIATION('user defined attribute','',#1149,#1148);
#1151=DESCRIPTIVE_REPRESENTATION_ITEM('PART_NO_SEMIFINISHED','-');
#1155=GENERAL_PROPERTY('','STANDARD','user defined attribute');
#1156=GENERAL_PROPERTY_ASSOCIATION('user defined attribute','',#1155,#1154);
#1157=DESCRIPTIVE_REPRESENTATION_ITEM('STANDARD','-');
#1161=GENERAL_PROPERTY('','STANDARD_DIMENSION','user defined attribute');
#1162=GENERAL_PROPERTY_ASSOCIATION('user defined attribute','',#1161,#1160);
#1163=DESCRIPTIVE_REPRESENTATION_ITEM('STANDARD_DIMENSION','DIN EN ISO 14405');
#1167=GENERAL_PROPERTY('','STANDARD_EDGE','user defined attribute');
#1168=GENERAL_PROPERTY_ASSOCIATION('user defined attribute','',#1167,#1166);
#1169=DESCRIPTIVE_REPRESENTATION_ITEM('STANDARD_EDGE','ISO 13715');
#1173=GENERAL_PROPERTY('','STANDARD_INFO_DE','user defined attribute');
#1174=GENERAL_PROPERTY_ASSOCIATION('user defined attribute','',#1173,#1172);
#1175=DESCRIPTIVE_REPRESENTATION_ITEM('STANDARD_INFO_DE','-');
#1179=GENERAL_PROPERTY('','STANDARD_INFO_EN','user defined attribute');
#1180=GENERAL_PROPERTY_ASSOCIATION('user defined attribute','',#1179,#1178);
#1181=DESCRIPTIVE_REPRESENTATION_ITEM('STANDARD_INFO_EN','-');
#1185=GENERAL_PROPERTY('','STANDARD_SURFACE','user defined attribute');
#1186=GENERAL_PROPERTY_ASSOCIATION('user defined attribute','',#1185,#1184);
#1187=DESCRIPTIVE_REPRESENTATION_ITEM('STANDARD_SURFACE','ISO 1302');
#1191=GENERAL_PROPERTY('','STANDARD_TOL_CLASS','user defined attribute');
#1192=GENERAL_PROPERTY_ASSOCIATION('user defined attribute','',#1191,#1190);
#1193=DESCRIPTIVE_REPRESENTATION_ITEM('STANDARD_TOL_CLASS','ISO 2768-mK');
#1197=GENERAL_PROPERTY('','SUPPLIER','user defined attribute');
#1198=GENERAL_PROPERTY_ASSOCIATION('user defined attribute','',#1197,#1196);
#1199=DESCRIPTIVE_REPRESENTATION_ITEM('SUPPLIER','-');
#1203=GENERAL_PROPERTY('','CLASSIFICATION','user defined attribute');
#1204=GENERAL_PROPERTY_ASSOCIATION('user defined attribute','',#1203,#1202);
#1205=DESCRIPTIVE_REPRESENTATION_ITEM('CLASSIFICATION','FERTIGUNG');
#1209=GENERAL_PROPERTY('','CATEGORY','user defined attribute');
#1210=GENERAL_PROPERTY_ASSOCIATION('user defined attribute','',#1209,#1208);
#1211=INTEGER_REPRESENTATION_ITEM('CATEGORY',1);
#1215=GENERAL_PROPERTY('','PROJECT','user defined attribute');
#1216=GENERAL_PROPERTY_ASSOCIATION('user defined attribute','',#1215,#1214);
#1217=DESCRIPTIVE_REPRESENTATION_ITEM('PROJECT','-');
#1221=GENERAL_PROPERTY('','PROJECT_NO','user defined attribute');
#1222=GENERAL_PROPERTY_ASSOCIATION('user defined attribute','',#1221,#1220);
#1223=DESCRIPTIVE_REPRESENTATION_ITEM('PROJECT_NO','-');
#1227=GENERAL_PROPERTY('','ORDER_CODE','user defined attribute');
#1228=GENERAL_PROPERTY_ASSOCIATION('user defined attribute','',#1227,#1226);
#1229=DESCRIPTIVE_REPRESENTATION_ITEM('ORDER_CODE','-');
#1233=GENERAL_PROPERTY('','STANDARD_WELDING','user defined attribute');
#1234=GENERAL_PROPERTY_ASSOCIATION('user defined attribute','',#1233,#1232);
#1235=DESCRIPTIVE_REPRESENTATION_ITEM('STANDARD_WELDING','ISO 9692');
#1239=GENERAL_PROPERTY('','CUSTOMER','user defined attribute');
#1240=GENERAL_PROPERTY_ASSOCIATION('user defined attribute','',#1239,#1238);
#1241=DESCRIPTIVE_REPRESENTATION_ITEM('CUSTOMER','-');
#1245=GENERAL_PROPERTY('','HEAT_TREATMENT','user defined attribute');
#1246=GENERAL_PROPERTY_ASSOCIATION('user defined attribute','',#1245,#1244);
#1247=DESCRIPTIVE_REPRESENTATION_ITEM('HEAT_TREATMENT','-');
#1251=GENERAL_PROPERTY('','PTC_COMMON_NAME','user defined attribute');
#1252=GENERAL_PROPERTY_ASSOCIATION('user defined attribute','',#1251,#1250);
#1253=DESCRIPTIVE_REPRESENTATION_ITEM('PTC_COMMON_NAME',
'deckel_kabelhalterung.prt');
#1257=GENERAL_PROPERTY('','PTC_MASTER_MATERIAL','user defined attribute');
#1258=GENERAL_PROPERTY_ASSOCIATION('user defined attribute','',#1257,#1256);
#1259=DESCRIPTIVE_REPRESENTATION_ITEM('PTC_MASTER_MATERIAL','STAHL_ALLGEMEIN');
#1=COLOUR_RGB('',0.E0,7.450980392157E-1,9.215686274510E-1);
#2=DRAUGHTING_PRE_DEFINED_COLOUR('green');
#3=COLOUR_RGB('',1.1E-2,1.2E-2,1.E0);
#4=COLOUR_RGB('',2.156862745098E-1,0.E0,3.725490196078E-1);
#5=COLOUR_RGB('',4.1E-1,2.61589E-1,1.12848E-1);
#6=COLOUR_RGB('',4.705882352941E-1,3.137254901961E-1,3.333333333333E-1);
#7=COLOUR_RGB('',5.04854E-1,1.5455E-2,1.5455E-2);
#8=COLOUR_RGB('',6.35294E-1,6.86275E-1,7.4902E-1);
#9=COLOUR_RGB('',6.40777E-1,6.40777E-1,6.40777E-1);
#10=COLOUR_RGB('',6.69062E-1,6.69903E-1,6.55217E-1);
#11=COLOUR_RGB('',9.21569E-1,7.05882E-1,4.70588E-1);
#12=DRAUGHTING_PRE_DEFINED_COLOUR('red');
#13=DRAUGHTING_PRE_DEFINED_COLOUR('yellow');
#14=COLOUR_RGB('',1.E0,1.E0,5.3E-1);
#15=COLOUR_RGB('',1.E0,1.E0,9.49E-1);
#16=DRAUGHTING_PRE_DEFINED_COLOUR('white');
#21=CIRCLE('281',#20,2.E0);
#34=CIRCLE('236',#33,3.45E1);
#39=CIRCLE('237',#38,6.45E1);
#44=CIRCLE('238',#43,3.45E1);
#57=CIRCLE('329',#56,2.E0);
#154=CIRCLE('242',#153,3.45E1);
#159=CIRCLE('241',#158,6.45E1);
#164=CIRCLE('240',#163,3.45E1);
#286=EDGE_CURVE('281',#247,#248,#21,.T.);
#288=EDGE_CURVE('283',#252,#247,#25,.T.);
#290=EDGE_CURVE('290',#252,#227,#29,.T.);
#292=EDGE_CURVE('236',#227,#228,#34,.T.);
#294=EDGE_CURVE('237',#228,#230,#39,.T.);
#296=EDGE_CURVE('238',#230,#232,#44,.T.);
#298=EDGE_CURVE('289',#232,#250,#48,.T.);
#300=EDGE_CURVE('282',#250,#248,#52,.T.);
#304=ADVANCED_FACE('68',(#303),#285,.F.);
#310=EDGE_CURVE('329',#275,#276,#57,.T.);
#312=EDGE_CURVE('340',#275,#247,#61,.T.);
#315=EDGE_CURVE('341',#276,#248,#89,.T.);
#319=ADVANCED_FACE('273',(#318),#309,.F.);
#326=EDGE_CURVE('330',#276,#278,#85,.T.);
#328=EDGE_CURVE('342',#264,#278,#65,.T.);
#330=EDGE_CURVE('315',#262,#264,#69,.T.);
#332=EDGE_CURVE('314',#260,#262,#73,.T.);
#334=EDGE_CURVE('313',#259,#260,#77,.T.);
#336=EDGE_CURVE('343',#280,#259,#81,.T.);
#338=EDGE_CURVE('332',#275,#280,#212,.T.);
#342=ADVANCED_FACE('311',(#341),#324,.T.);
#351=EDGE_CURVE('287',#250,#254,#97,.T.);
#353=EDGE_CURVE('338',#254,#268,#180,.T.);
#355=EDGE_CURVE('331',#268,#278,#93,.T.);
#359=ADVANCED_FACE('275',(#358),#347,.F.);
#367=EDGE_CURVE('244',#232,#240,#101,.T.);
#369=EDGE_CURVE('257',#240,#224,#149,.T.);
#371=EDGE_CURVE('254',#224,#244,#105,.T.);
#373=EDGE_CURVE('291',#244,#254,#109,.T.);
#377=ADVANCED_FACE('243',(#376),#364,.T.);
#383=EDGE_CURVE('288',#252,#256,#113,.T.);
#385=EDGE_CURVE('292',#256,#242,#117,.T.);
#387=EDGE_CURVE('253',#219,#242,#121,.T.);
#389=EDGE_CURVE('259',#219,#235,#168,.T.);
#391=EDGE_CURVE('246',#227,#235,#133,.T.);
#396=ADVANCED_FACE('243',(#395),#382,.T.);
#403=EDGE_CURVE('250',#230,#238,#125,.T.);
#405=EDGE_CURVE('242',#238,#240,#154,.T.);
#410=ADVANCED_FACE('249',(#409),#401,.T.);
#417=EDGE_CURVE('248',#228,#236,#129,.T.);
#419=EDGE_CURVE('241',#236,#238,#159,.T.);
#424=ADVANCED_FACE('247',(#423),#415,.T.);
#432=EDGE_CURVE('240',#235,#236,#164,.T.);
#437=ADVANCED_FACE('245',(#436),#429,.T.);
#443=EDGE_CURVE('128',#219,#220,#137,.T.);
#445=EDGE_CURVE('129',#220,#222,#141,.T.);
#447=EDGE_CURVE('130',#224,#222,#145,.T.);
#456=ADVANCED_FACE('73',(#455),#442,.T.);
#462=EDGE_CURVE('334',#242,#272,#192,.T.);
#464=EDGE_CURVE('345',#272,#259,#172,.T.);
#467=EDGE_CURVE('348',#220,#260,#208,.T.);
#473=ADVANCED_FACE('117',(#472),#461,.F.);
#479=EDGE_CURVE('324',#267,#268,#176,.T.);
#483=EDGE_CURVE('335',#267,#244,#184,.T.);
#487=ADVANCED_FACE('110',(#486),#478,.T.);
#493=EDGE_CURVE('325',#271,#272,#188,.T.);
#497=EDGE_CURVE('339',#256,#271,#196,.T.);
#501=ADVANCED_FACE('110',(#500),#492,.T.);
#508=EDGE_CURVE('344',#267,#264,#200,.T.);
#514=ADVANCED_FACE('316',(#513),#506,.F.);
#521=EDGE_CURVE('333',#271,#280,#216,.T.);
#527=ADVANCED_FACE('316',(#526),#519,.F.);
#533=EDGE_CURVE('349',#222,#262,#204,.T.);
#542=ADVANCED_FACE('121',(#541),#532,.F.);
#554=ADVANCED_FACE('119',(#553),#547,.F.);
#568=ADVANCED_FACE('279',(#567),#559,.F.);
#569=CLOSED_SHELL('',(#304,#319,#342,#359,#377,#396,#410,#424,#437,#456,#473,
#487,#501,#514,#527,#542,#554,#568));
#570=MANIFOLD_SOLID_BREP('',#569);
#598=TRIMMED_CURVE('A_PRT_X',#597,(PARAMETER_VALUE(0.E0)),(PARAMETER_VALUE
(1.E0)),.T.,.UNSPECIFIED.);
#606=TRIMMED_CURVE('231',#605,(PARAMETER_VALUE(0.E0)),(PARAMETER_VALUE(1.E0)),
.T.,.UNSPECIFIED.);
#610=COMPOSITE_CURVE_SEGMENT(.CONTINUOUS.,.T.,#606);
#615=CIRCLE('232',#614,3.45E1);
#616=TRIMMED_CURVE('232',#615,(PARAMETER_VALUE(0.E0)),(PARAMETER_VALUE(
7.842802760560E1)),.T.,.UNSPECIFIED.);
#620=COMPOSITE_CURVE_SEGMENT(.CONTINUOUS.,.T.,#616);
#625=CIRCLE('233',#624,6.45E1);
#626=TRIMMED_CURVE('233',#625,(PARAMETER_VALUE(0.E0)),(PARAMETER_VALUE(
3.972545212541E1)),.T.,.UNSPECIFIED.);
#630=COMPOSITE_CURVE_SEGMENT(.CONTINUOUS.,.T.,#626);
#635=CIRCLE('234',#634,3.45E1);
#636=TRIMMED_CURVE('234',#635,(PARAMETER_VALUE(0.E0)),(PARAMETER_VALUE(
7.842802760560E1)),.T.,.UNSPECIFIED.);
#640=COMPOSITE_CURVE_SEGMENT(.CONTINUOUS.,.T.,#636);
#641=COMPOSITE_CURVE('230',(#610,#620,#630,#640),.F.);
#647=TRIMMED_CURVE('145',#646,(PARAMETER_VALUE(0.E0)),(PARAMETER_VALUE(1.E0)),
.T.,.UNSPECIFIED.);
#651=COMPOSITE_CURVE_SEGMENT(.CONTINUOUS.,.T.,#647);
#656=TRIMMED_CURVE('146',#655,(PARAMETER_VALUE(0.E0)),(PARAMETER_VALUE(1.E0)),
.T.,.UNSPECIFIED.);
#660=COMPOSITE_CURVE_SEGMENT(.CONTINUOUS.,.T.,#656);
#665=CIRCLE('147',#664,2.E0);
#666=TRIMMED_CURVE('147',#665,(PARAMETER_VALUE(1.8E2)),(PARAMETER_VALUE(0.E0)),
.F.,.UNSPECIFIED.);
#670=COMPOSITE_CURVE_SEGMENT(.CONTINUOUS.,.T.,#666);
#675=TRIMMED_CURVE('148',#674,(PARAMETER_VALUE(0.E0)),(PARAMETER_VALUE(1.E0)),
.T.,.UNSPECIFIED.);
#679=COMPOSITE_CURVE_SEGMENT(.CONTINUOUS.,.T.,#675);
#684=TRIMMED_CURVE('98',#683,(PARAMETER_VALUE(0.E0)),(PARAMETER_VALUE(1.E0)),
.T.,.UNSPECIFIED.);
#688=COMPOSITE_CURVE_SEGMENT(.CONTINUOUS.,.T.,#684);
#693=TRIMMED_CURVE('99',#692,(PARAMETER_VALUE(0.E0)),(PARAMETER_VALUE(1.E0)),
.T.,.UNSPECIFIED.);
#697=COMPOSITE_CURVE_SEGMENT(.CONTINUOUS.,.T.,#693);
#702=TRIMMED_CURVE('100',#701,(PARAMETER_VALUE(0.E0)),(PARAMETER_VALUE(1.E0)),
.T.,.UNSPECIFIED.);
#706=COMPOSITE_CURVE_SEGMENT(.CONTINUOUS.,.T.,#702);
#711=TRIMMED_CURVE('101',#710,(PARAMETER_VALUE(0.E0)),(PARAMETER_VALUE(1.E0)),
.T.,.UNSPECIFIED.);
#715=COMPOSITE_CURVE_SEGMENT(.CONTINUOUS.,.T.,#711);
#716=COMPOSITE_CURVE('97',(#651,#660,#670,#679,#688,#697,#706,#715),.F.);
#721=CIRCLE('261',#720,2.E0);
#722=TRIMMED_CURVE('261',#721,(PARAMETER_VALUE(0.E0)),(PARAMETER_VALUE(1.8E2)),
.T.,.UNSPECIFIED.);
#726=COMPOSITE_CURVE_SEGMENT(.CONTINUOUS.,.T.,#722);
#731=TRIMMED_CURVE('262',#730,(PARAMETER_VALUE(0.E0)),(PARAMETER_VALUE(1.E0)),
.T.,.UNSPECIFIED.);
#735=COMPOSITE_CURVE_SEGMENT(.CONTINUOUS.,.T.,#731);
#740=TRIMMED_CURVE('263',#739,(PARAMETER_VALUE(0.E0)),(PARAMETER_VALUE(1.E0)),
.T.,.UNSPECIFIED.);
#744=COMPOSITE_CURVE_SEGMENT(.CONTINUOUS.,.T.,#740);
#749=TRIMMED_CURVE('264',#748,(PARAMETER_VALUE(0.E0)),(PARAMETER_VALUE(1.E0)),
.T.,.UNSPECIFIED.);
#753=COMPOSITE_CURVE_SEGMENT(.CONTINUOUS.,.T.,#749);
#754=COMPOSITE_CURVE('260',(#726,#735,#744,#753),.F.);
#759=TRIMMED_CURVE('299',#758,(PARAMETER_VALUE(0.E0)),(PARAMETER_VALUE(1.E0)),
.T.,.UNSPECIFIED.);
#763=COMPOSITE_CURVE_SEGMENT(.CONTINUOUS.,.T.,#759);
#768=TRIMMED_CURVE('300',#767,(PARAMETER_VALUE(0.E0)),(PARAMETER_VALUE(1.E0)),
.T.,.UNSPECIFIED.);
#772=COMPOSITE_CURVE_SEGMENT(.CONTINUOUS.,.T.,#768);
#777=TRIMMED_CURVE('301',#776,(PARAMETER_VALUE(0.E0)),(PARAMETER_VALUE(1.E0)),
.T.,.UNSPECIFIED.);
#781=COMPOSITE_CURVE_SEGMENT(.CONTINUOUS.,.T.,#777);
#786=TRIMMED_CURVE('302',#785,(PARAMETER_VALUE(0.E0)),(PARAMETER_VALUE(1.E0)),
.T.,.UNSPECIFIED.);
#790=COMPOSITE_CURVE_SEGMENT(.CONTINUOUS.,.T.,#786);
#791=COMPOSITE_CURVE('298',(#763,#772,#781,#790),.F.);
#799=(LENGTH_UNIT()NAMED_UNIT(*)SI_UNIT(.MILLI.,.METRE.));
#800=(NAMED_UNIT(*)PLANE_ANGLE_UNIT()SI_UNIT($,.RADIAN.));
#803=(NAMED_UNIT(*)SI_UNIT($,.STERADIAN.)SOLID_ANGLE_UNIT());
#805=(GEOMETRIC_REPRESENTATION_CONTEXT(3)GLOBAL_UNCERTAINTY_ASSIGNED_CONTEXT((
#804))GLOBAL_UNIT_ASSIGNED_CONTEXT((#799,#802,#803))REPRESENTATION_CONTEXT
('ID1','3'));
#806=ADVANCED_BREP_SHAPE_REPRESENTATION('',(#570),#805);
#807=GEOMETRICALLY_BOUNDED_WIREFRAME_SHAPE_REPRESENTATION('',(#642),#805);
#808=CONSTRUCTIVE_GEOMETRY_REPRESENTATION('supplemental geometry',(#575,#580,
#585,#589,#598),#805);
#812=AXIS2_PLACEMENT_3D('',#809,#810,#811);
#813=SHAPE_REPRESENTATION('',(#812),#805);
#824=PRODUCT_DEFINITION('design','',#823,#820);
#825=PRODUCT_DEFINITION_SHAPE('','SHAPE FOR CABLE_FEEDTROUGH_COVER.',#824);
#826=SHAPE_ASPECT('','solid data associated with CABLE_FEEDTROUGH_COVER',#825,
.F.);
#827=PROPERTY_DEFINITION('',
'shape for solid data with which properties are associated',#826);
#828=SHAPE_REPRESENTATION('',(#570),#805);
#829=SHAPE_DEFINITION_REPRESENTATION(#827,#828);
#830=(LENGTH_UNIT()NAMED_UNIT(*)SI_UNIT(.MILLI.,.METRE.));
#832=(MASS_UNIT()NAMED_UNIT(*)SI_UNIT(.KILO.,.GRAM.));
#836=PROPERTY_DEFINITION('material_property','density',#826);
#837=REPRESENTATION('density',(#835),#805);
#838=PROPERTY_DEFINITION_REPRESENTATION(#836,#837);
#840=PROPERTY_DEFINITION('material property','material name',#826);
#841=REPRESENTATION('material name',(#839),#805);
#842=PROPERTY_DEFINITION_REPRESENTATION(#840,#841);
#843=SHAPE_ASPECT('','solid data associated with CABLE_FEEDTROUGH_COVER',#825,
.F.);
#844=PROPERTY_DEFINITION('',
'shape for solid data with which properties are associated',#843);
#845=SHAPE_REPRESENTATION('',(#570),#805);
#846=SHAPE_DEFINITION_REPRESENTATION(#844,#845);
#847=(LENGTH_UNIT()NAMED_UNIT(*)SI_UNIT(.MILLI.,.METRE.));
#851=PROPERTY_DEFINITION('geometric validation property',
'area of CABLE_FEEDTROUGH_COVER',#843);
#852=REPRESENTATION('surface area',(#850),#805);
#853=PROPERTY_DEFINITION_REPRESENTATION(#851,#852);
#854=(LENGTH_UNIT()NAMED_UNIT(*)SI_UNIT(.MILLI.,.METRE.));
#858=PROPERTY_DEFINITION('geometric validation property',
'volume of CABLE_FEEDTROUGH_COVER',#843);
#859=REPRESENTATION('volume',(#857),#805);
#860=PROPERTY_DEFINITION_REPRESENTATION(#858,#859);
#862=PROPERTY_DEFINITION('geometric validation property',
'centroid of CABLE_FEEDTROUGH_COVER',#843);
#863=REPRESENTATION('centroid',(#861),#805);
#864=PROPERTY_DEFINITION_REPRESENTATION(#862,#863);
#865=(LENGTH_UNIT()NAMED_UNIT(*)SI_UNIT(.MILLI.,.METRE.));
#869=PROPERTY_DEFINITION('geometric validation property',
'area of CABLE_FEEDTROUGH_COVER',#825);
#870=REPRESENTATION('surface area',(#868),#805);
#871=PROPERTY_DEFINITION_REPRESENTATION(#869,#870);
#872=(LENGTH_UNIT()NAMED_UNIT(*)SI_UNIT(.MILLI.,.METRE.));
#876=PROPERTY_DEFINITION('geometric validation property',
'volume of CABLE_FEEDTROUGH_COVER',#825);
#877=REPRESENTATION('volume',(#875),#805);
#878=PROPERTY_DEFINITION_REPRESENTATION(#876,#877);
#880=PROPERTY_DEFINITION('geometric validation property',
'centroid of CABLE_FEEDTROUGH_COVER',#825);
#881=REPRESENTATION('centroid',(#879),#805);
#882=PROPERTY_DEFINITION_REPRESENTATION(#880,#881);
#886=PRODUCT_DEFINITION('design','',#885,#820);
#887=MAKE_FROM_USAGE_OPTION(
'Assign material STAHL_ALLGEMEIN to CABLE_FEEDTROUGH_COVER','make from','',#824,
#886,1,'',#890);
#891=(LENGTH_UNIT()NAMED_UNIT(*)SI_UNIT(.MILLI.,.METRE.));
#893=(MASS_UNIT()NAMED_UNIT(*)SI_UNIT(.KILO.,.GRAM.));
#897=PROPERTY_DEFINITION('material_property','density',#886);
#898=REPRESENTATION('density',(#896),#805);
#899=PROPERTY_DEFINITION_REPRESENTATION(#897,#898);
#900=SHAPE_DEFINITION_REPRESENTATION(#825,#813);
#925=PLANAR_BOX('',9.891388245571E1,8.345858832201E1,#924);
#947=PLANAR_BOX('',9.891388245571E1,8.345858832201E1,#946);
#969=PLANAR_BOX('',9.891388245571E1,8.345858832201E1,#968);
#991=PLANAR_BOX('',9.891388245571E1,8.345858832201E1,#990);
#998=PROPERTY_DEFINITION('CAD_APPROVED_BY','user defined attribute',#886);
#1002=REPRESENTATION('',(#1001),#805);
#1003=PROPERTY_DEFINITION_REPRESENTATION(#998,#1002);
#1004=PROPERTY_DEFINITION('CAD_APPROVED_ON','user defined attribute',#886);
#1008=REPRESENTATION('',(#1007),#805);
#1009=PROPERTY_DEFINITION_REPRESENTATION(#1004,#1008);
#1010=PROPERTY_DEFINITION('CAD_CHANGE_NO','user defined attribute',#886);
#1014=REPRESENTATION('',(#1013),#805);
#1015=PROPERTY_DEFINITION_REPRESENTATION(#1010,#1014);
#1016=PROPERTY_DEFINITION('CAD_CHANGE_TEXT','user defined attribute',#886);
#1020=REPRESENTATION('',(#1019),#805);
#1021=PROPERTY_DEFINITION_REPRESENTATION(#1016,#1020);
#1022=PROPERTY_DEFINITION('CAD_CREATED_BY','user defined attribute',#886);
#1026=REPRESENTATION('',(#1025),#805);
#1027=PROPERTY_DEFINITION_REPRESENTATION(#1022,#1026);
#1028=PROPERTY_DEFINITION('CAD_CREATED_ON','user defined attribute',#886);
#1032=REPRESENTATION('',(#1031),#805);
#1033=PROPERTY_DEFINITION_REPRESENTATION(#1028,#1032);
#1034=PROPERTY_DEFINITION('CAD_LIFECYCLE_STATE','user defined attribute',#886);
#1038=REPRESENTATION('',(#1037),#805);
#1039=PROPERTY_DEFINITION_REPRESENTATION(#1034,#1038);
#1040=PROPERTY_DEFINITION('CAD_MODIFIED_BY','user defined attribute',#886);
#1044=REPRESENTATION('',(#1043),#805);
#1045=PROPERTY_DEFINITION_REPRESENTATION(#1040,#1044);
#1046=PROPERTY_DEFINITION('CAD_MODIFIED_ON','user defined attribute',#886);
#1050=REPRESENTATION('',(#1049),#805);
#1051=PROPERTY_DEFINITION_REPRESENTATION(#1046,#1050);
#1052=PROPERTY_DEFINITION('CAD_REVISION','user defined attribute',#886);
#1056=REPRESENTATION('',(#1055),#805);
#1057=PROPERTY_DEFINITION_REPRESENTATION(#1052,#1056);
#1058=PROPERTY_DEFINITION('DEPARTMENT','user defined attribute',#886);
#1062=REPRESENTATION('',(#1061),#805);
#1063=PROPERTY_DEFINITION_REPRESENTATION(#1058,#1062);
#1064=PROPERTY_DEFINITION('DESCRIPTION_1_DE','user defined attribute',#886);
#1068=REPRESENTATION('',(#1067),#805);
#1069=PROPERTY_DEFINITION_REPRESENTATION(#1064,#1068);
#1070=PROPERTY_DEFINITION('DESCRIPTION_1_EN','user defined attribute',#886);
#1074=REPRESENTATION('',(#1073),#805);
#1075=PROPERTY_DEFINITION_REPRESENTATION(#1070,#1074);
#1076=PROPERTY_DEFINITION('DESCRIPTION_2_DE','user defined attribute',#886);
#1080=REPRESENTATION('',(#1079),#805);
#1081=PROPERTY_DEFINITION_REPRESENTATION(#1076,#1080);
#1082=PROPERTY_DEFINITION('DESCRIPTION_2_EN','user defined attribute',#886);
#1086=REPRESENTATION('',(#1085),#805);
#1087=PROPERTY_DEFINITION_REPRESENTATION(#1082,#1086);
#1088=PROPERTY_DEFINITION('DRAWING_NO','user defined attribute',#886);
#1092=REPRESENTATION('',(#1091),#805);
#1093=PROPERTY_DEFINITION_REPRESENTATION(#1088,#1092);
#1094=PROPERTY_DEFINITION('MC_CHECKTYPE','user defined attribute',#886);
#1098=REPRESENTATION('',(#1097),#805);
#1099=PROPERTY_DEFINITION_REPRESENTATION(#1094,#1098);
#1100=PROPERTY_DEFINITION('COATING','user defined attribute',#886);
#1104=REPRESENTATION('',(#1103),#805);
#1105=PROPERTY_DEFINITION_REPRESENTATION(#1100,#1104);
#1106=PROPERTY_DEFINITION('COLORING','user defined attribute',#886);
#1110=REPRESENTATION('',(#1109),#805);
#1111=PROPERTY_DEFINITION_REPRESENTATION(#1106,#1110);
#1112=PROPERTY_DEFINITION('DESC_SEMIFINISHED','user defined attribute',#886);
#1116=REPRESENTATION('',(#1115),#805);
#1117=PROPERTY_DEFINITION_REPRESENTATION(#1112,#1116);
#1118=PROPERTY_DEFINITION('DIMENSION','user defined attribute',#886);
#1122=REPRESENTATION('',(#1121),#805);
#1123=PROPERTY_DEFINITION_REPRESENTATION(#1118,#1122);
#1124=PROPERTY_DEFINITION('HARDNESS','user defined attribute',#886);
#1128=REPRESENTATION('',(#1127),#805);
#1129=PROPERTY_DEFINITION_REPRESENTATION(#1124,#1128);
#1130=PROPERTY_DEFINITION('MASS','user defined attribute',#886);
#1134=REPRESENTATION('',(#1133),#805);
#1135=PROPERTY_DEFINITION_REPRESENTATION(#1130,#1134);
#1136=PROPERTY_DEFINITION('MATERIAL','user defined attribute',#886);
#1140=REPRESENTATION('',(#1139),#805);
#1141=PROPERTY_DEFINITION_REPRESENTATION(#1136,#1140);
#1142=PROPERTY_DEFINITION('PART_NO','user defined attribute',#886);
#1146=REPRESENTATION('',(#1145),#805);
#1147=PROPERTY_DEFINITION_REPRESENTATION(#1142,#1146);
#1148=PROPERTY_DEFINITION('PART_NO_SEMIFINISHED','user defined attribute',#886);
#1152=REPRESENTATION('',(#1151),#805);
#1153=PROPERTY_DEFINITION_REPRESENTATION(#1148,#1152);
#1154=PROPERTY_DEFINITION('STANDARD','user defined attribute',#886);
#1158=REPRESENTATION('',(#1157),#805);
#1159=PROPERTY_DEFINITION_REPRESENTATION(#1154,#1158);
#1160=PROPERTY_DEFINITION('STANDARD_DIMENSION','user defined attribute',#886);
#1164=REPRESENTATION('',(#1163),#805);
#1165=PROPERTY_DEFINITION_REPRESENTATION(#1160,#1164);
#1166=PROPERTY_DEFINITION('STANDARD_EDGE','user defined attribute',#886);
#1170=REPRESENTATION('',(#1169),#805);
#1171=PROPERTY_DEFINITION_REPRESENTATION(#1166,#1170);
#1172=PROPERTY_DEFINITION('STANDARD_INFO_DE','user defined attribute',#886);
#1176=REPRESENTATION('',(#1175),#805);
#1177=PROPERTY_DEFINITION_REPRESENTATION(#1172,#1176);
#1178=PROPERTY_DEFINITION('STANDARD_INFO_EN','user defined attribute',#886);
#1182=REPRESENTATION('',(#1181),#805);
#1183=PROPERTY_DEFINITION_REPRESENTATION(#1178,#1182);
#1184=PROPERTY_DEFINITION('STANDARD_SURFACE','user defined attribute',#886);
#1188=REPRESENTATION('',(#1187),#805);
#1189=PROPERTY_DEFINITION_REPRESENTATION(#1184,#1188);
#1190=PROPERTY_DEFINITION('STANDARD_TOL_CLASS','user defined attribute',#886);
#1194=REPRESENTATION('',(#1193),#805);
#1195=PROPERTY_DEFINITION_REPRESENTATION(#1190,#1194);
#1196=PROPERTY_DEFINITION('SUPPLIER','user defined attribute',#886);
#1200=REPRESENTATION('',(#1199),#805);
#1201=PROPERTY_DEFINITION_REPRESENTATION(#1196,#1200);
#1202=PROPERTY_DEFINITION('CLASSIFICATION','user defined attribute',#886);
#1206=REPRESENTATION('',(#1205),#805);
#1207=PROPERTY_DEFINITION_REPRESENTATION(#1202,#1206);
#1208=PROPERTY_DEFINITION('CATEGORY','user defined attribute',#886);
#1212=REPRESENTATION('',(#1211),#805);
#1213=PROPERTY_DEFINITION_REPRESENTATION(#1208,#1212);
#1214=PROPERTY_DEFINITION('PROJECT','user defined attribute',#886);
#1218=REPRESENTATION('',(#1217),#805);
#1219=PROPERTY_DEFINITION_REPRESENTATION(#1214,#1218);
#1220=PROPERTY_DEFINITION('PROJECT_NO','user defined attribute',#886);
#1224=REPRESENTATION('',(#1223),#805);
#1225=PROPERTY_DEFINITION_REPRESENTATION(#1220,#1224);
#1226=PROPERTY_DEFINITION('ORDER_CODE','user defined attribute',#886);
#1230=REPRESENTATION('',(#1229),#805);
#1231=PROPERTY_DEFINITION_REPRESENTATION(#1226,#1230);
#1232=PROPERTY_DEFINITION('STANDARD_WELDING','user defined attribute',#886);
#1236=REPRESENTATION('',(#1235),#805);
#1237=PROPERTY_DEFINITION_REPRESENTATION(#1232,#1236);
#1238=PROPERTY_DEFINITION('CUSTOMER','user defined attribute',#886);
#1242=REPRESENTATION('',(#1241),#805);
#1243=PROPERTY_DEFINITION_REPRESENTATION(#1238,#1242);
#1244=PROPERTY_DEFINITION('HEAT_TREATMENT','user defined attribute',#886);
#1248=REPRESENTATION('',(#1247),#805);
#1249=PROPERTY_DEFINITION_REPRESENTATION(#1244,#1248);
#1250=PROPERTY_DEFINITION('PTC_COMMON_NAME','user defined attribute',#886);
#1254=REPRESENTATION('',(#1253),#805);
#1255=PROPERTY_DEFINITION_REPRESENTATION(#1250,#1254);
#1256=PROPERTY_DEFINITION('PTC_MASTER_MATERIAL','user defined attribute',#886);
#1260=REPRESENTATION('',(#1259),#805);
#1261=PROPERTY_DEFINITION_REPRESENTATION(#1256,#1260);
ENDSEC;
END-ISO-10303-21;
