ISO-10303-21;
HEADER;
FILE_DESCRIPTION((''),'2;1');
FILE_NAME('ELECTRONICS_ENCLOSURE_COVER','2026-07-21T16:18:16',('morit'),(''),
'CREO PARAMETRIC BY PTC INC, 2025123','CREO PARAMETRIC BY PTC INC, 2025123','');
FILE_SCHEMA((
'AP242_MANAGED_MODEL_BASED_3D_ENGINEERING_MIM_LF { 1 0 10303 442 1 1 4 }'));
ENDSEC;
DATA;
#17=DIRECTION('',(0.E0,0.E0,-1.E0));
#18=VECTOR('',#17,1.051E2);
#19=CARTESIAN_POINT('',(4.04E1,0.E0,1.051E2));
#20=LINE('194',#19,#18);
#21=DIRECTION('',(-1.E0,0.E0,0.E0));
#22=VECTOR('',#21,8.08E1);
#23=CARTESIAN_POINT('',(4.04E1,0.E0,0.E0));
#24=LINE('199',#23,#22);
#25=DIRECTION('',(0.E0,0.E0,-1.E0));
#26=VECTOR('',#25,1.051E2);
#27=CARTESIAN_POINT('',(-4.04E1,0.E0,1.051E2));
#28=LINE('107',#27,#26);
#29=DIRECTION('',(1.E0,0.E0,0.E0));
#30=VECTOR('',#29,8.08E1);
#31=CARTESIAN_POINT('',(-4.04E1,0.E0,1.051E2));
#32=LINE('198',#31,#30);
#33=DIRECTION('',(0.E0,0.E0,1.E0));
#34=VECTOR('',#33,9.69E1);
#35=CARTESIAN_POINT('',(1.6E0,0.E0,4.1E0));
#36=LINE('608',#35,#34);
#37=DIRECTION('',(-1.E0,0.E0,0.E0));
#38=VECTOR('',#37,1.6E0);
#39=CARTESIAN_POINT('',(1.6E0,0.E0,1.01E2));
#40=LINE('591',#39,#38);
#41=CARTESIAN_POINT('',(0.E0,0.E0,1.026E2));
#42=DIRECTION('',(0.E0,1.E0,0.E0));
#43=DIRECTION('',(1.E0,0.E0,0.E0));
#44=AXIS2_PLACEMENT_3D('',#41,#42,#43);
#46=CARTESIAN_POINT('',(0.E0,0.E0,1.026E2));
#47=DIRECTION('',(0.E0,1.E0,0.E0));
#48=DIRECTION('',(-1.E0,0.E0,0.E0));
#49=AXIS2_PLACEMENT_3D('',#46,#47,#48);
#51=CARTESIAN_POINT('',(0.E0,0.E0,1.026E2));
#52=DIRECTION('',(0.E0,1.E0,0.E0));
#53=DIRECTION('',(0.E0,0.E0,-1.E0));
#54=AXIS2_PLACEMENT_3D('',#51,#52,#53);
#56=DIRECTION('',(-1.E0,0.E0,0.E0));
#57=VECTOR('',#56,1.6E0);
#58=CARTESIAN_POINT('',(0.E0,0.E0,1.01E2));
#59=LINE('592',#58,#57);
#60=DIRECTION('',(0.E0,0.E0,-1.E0));
#61=VECTOR('',#60,9.69E1);
#62=CARTESIAN_POINT('',(-1.6E0,0.E0,1.01E2));
#63=LINE('607',#62,#61);
#64=DIRECTION('',(-1.E0,0.E0,0.E0));
#65=VECTOR('',#64,1.6E0);
#66=CARTESIAN_POINT('',(0.E0,0.E0,4.1E0));
#67=LINE('590',#66,#65);
#68=CARTESIAN_POINT('',(0.E0,0.E0,2.5E0));
#69=DIRECTION('',(0.E0,-1.E0,0.E0));
#70=DIRECTION('',(-2.122123064142E-14,0.E0,1.E0));
#71=AXIS2_PLACEMENT_3D('',#68,#69,#70);
#73=CARTESIAN_POINT('',(0.E0,0.E0,2.5E0));
#74=DIRECTION('',(0.E0,-1.E0,0.E0));
#75=DIRECTION('',(-1.E0,0.E0,0.E0));
#76=AXIS2_PLACEMENT_3D('',#73,#74,#75);
#78=CARTESIAN_POINT('',(0.E0,0.E0,2.5E0));
#79=DIRECTION('',(0.E0,-1.E0,0.E0));
#80=DIRECTION('',(1.E0,0.E0,0.E0));
#81=AXIS2_PLACEMENT_3D('',#78,#79,#80);
#83=DIRECTION('',(-1.E0,0.E0,0.E0));
#84=VECTOR('',#83,1.6E0);
#85=CARTESIAN_POINT('',(1.6E0,0.E0,4.1E0));
#86=LINE('589',#85,#84);
#87=DIRECTION('',(-4.351686605403E-1,9.003489528419E-1,0.E0));
#88=VECTOR('',#87,6.664082832618E0);
#89=CARTESIAN_POINT('',(4.04E1,0.E0,1.051E2));
#90=LINE('196',#89,#88);
#91=DIRECTION('',(4.351686605403E-1,9.003489528419E-1,0.E0));
#92=VECTOR('',#91,6.664082832618E0);
#93=CARTESIAN_POINT('',(-4.04E1,0.E0,1.051E2));
#94=LINE('109',#93,#92);
#95=DIRECTION('',(-4.351686605403E-1,9.003489528419E-1,0.E0));
#96=VECTOR('',#95,6.664082832618E0);
#97=CARTESIAN_POINT('',(4.04E1,0.E0,0.E0));
#98=LINE('197',#97,#96);
#99=DIRECTION('',(4.351686605403E-1,9.003489528419E-1,0.E0));
#100=VECTOR('',#99,6.664082832618E0);
#101=CARTESIAN_POINT('',(-4.04E1,0.E0,0.E0));
#102=LINE('110',#101,#100);
#103=DIRECTION('',(0.E0,0.E0,-1.E0));
#104=VECTOR('',#103,1.051E2);
#105=CARTESIAN_POINT('',(3.75E1,6.E0,1.051E2));
#106=LINE('195',#105,#104);
#107=DIRECTION('',(1.E0,0.E0,0.E0));
#108=VECTOR('',#107,7.5E1);
#109=CARTESIAN_POINT('',(-3.75E1,6.E0,1.051E2));
#110=LINE('200',#109,#108);
#111=DIRECTION('',(0.E0,0.E0,-1.E0));
#112=VECTOR('',#111,1.051E2);
#113=CARTESIAN_POINT('',(-3.75E1,6.E0,1.051E2));
#114=LINE('108',#113,#112);
#115=DIRECTION('',(-1.E0,0.E0,0.E0));
#116=VECTOR('',#115,7.5E1);
#117=CARTESIAN_POINT('',(3.75E1,6.E0,0.E0));
#118=LINE('201',#117,#116);
#119=DIRECTION('',(-1.E0,0.E0,0.E0));
#120=VECTOR('',#119,5.E1);
#121=CARTESIAN_POINT('',(2.5E1,6.E0,9.51E1));
#122=LINE('643',#121,#120);
#123=DIRECTION('',(0.E0,0.E0,1.E0));
#124=VECTOR('',#123,1.E1);
#125=CARTESIAN_POINT('',(2.5E1,6.E0,8.51E1));
#126=LINE('679',#125,#124);
#127=DIRECTION('',(1.E0,0.E0,0.E0));
#128=VECTOR('',#127,5.E1);
#129=CARTESIAN_POINT('',(-2.5E1,6.E0,8.51E1));
#130=LINE('659',#129,#128);
#131=DIRECTION('',(0.E0,0.E0,1.E0));
#132=VECTOR('',#131,1.E1);
#133=CARTESIAN_POINT('',(-2.5E1,6.E0,8.51E1));
#134=LINE('678',#133,#132);
#135=DIRECTION('',(7.071067811865E-1,-7.071067811865E-1,0.E0));
#136=VECTOR('',#135,4.242640687119E0);
#137=CARTESIAN_POINT('',(-2.5E1,6.E0,9.51E1));
#138=LINE('680',#137,#136);
#139=DIRECTION('',(1.E0,0.E0,0.E0));
#140=VECTOR('',#139,4.4E1);
#141=CARTESIAN_POINT('',(-2.2E1,3.E0,9.51E1));
#142=LINE('666',#141,#140);
#143=DIRECTION('',(7.071067811865E-1,7.071067811865E-1,0.E0));
#144=VECTOR('',#143,4.242640687119E0);
#145=CARTESIAN_POINT('',(2.2E1,3.E0,9.51E1));
#146=LINE('681',#145,#144);
#147=DIRECTION('',(7.071067811865E-1,7.071067811865E-1,0.E0));
#148=VECTOR('',#147,4.242640687119E0);
#149=CARTESIAN_POINT('',(2.2E1,3.E0,8.51E1));
#150=LINE('683',#149,#148);
#151=DIRECTION('',(1.E0,0.E0,0.E0));
#152=VECTOR('',#151,4.4E1);
#153=CARTESIAN_POINT('',(-2.2E1,3.E0,8.51E1));
#154=LINE('669',#153,#152);
#155=DIRECTION('',(7.071067811865E-1,-7.071067811865E-1,0.E0));
#156=VECTOR('',#155,4.242640687119E0);
#157=CARTESIAN_POINT('',(-2.5E1,6.E0,8.51E1));
#158=LINE('682',#157,#156);
#159=DIRECTION('',(0.E0,0.E0,-1.E0));
#160=VECTOR('',#159,1.E1);
#161=CARTESIAN_POINT('',(2.2E1,3.E0,9.51E1));
#162=LINE('676',#161,#160);
#163=DIRECTION('',(0.E0,0.E0,-1.E0));
#164=VECTOR('',#163,1.E1);
#165=CARTESIAN_POINT('',(-2.2E1,3.E0,9.51E1));
#166=LINE('674',#165,#164);
#167=DIRECTION('',(0.E0,-3.111177372174E-1,-9.503713766674E-1));
#168=VECTOR('',#167,5.142747611596E0);
#169=CARTESIAN_POINT('',(1.6E0,1.6E0,8.987520127486E0));
#170=LINE('603',#169,#168);
#171=DIRECTION('',(0.E0,3.111177372174E-1,-9.503713766674E-1));
#172=VECTOR('',#171,5.142747611596E0);
#173=CARTESIAN_POINT('',(1.6E0,0.E0,1.01E2));
#174=LINE('604',#173,#172);
#175=DIRECTION('',(0.E0,-3.111177372174E-1,-9.503713766674E-1));
#176=VECTOR('',#175,5.142747611596E0);
#177=CARTESIAN_POINT('',(-1.6E0,1.6E0,8.987520127486E0));
#178=LINE('601',#177,#176);
#179=DIRECTION('',(0.E0,3.111177372174E-1,-9.503713766674E-1));
#180=VECTOR('',#179,5.142747611596E0);
#181=CARTESIAN_POINT('',(-1.6E0,0.E0,1.01E2));
#182=LINE('602',#181,#180);
#183=DIRECTION('',(1.E0,0.E0,0.E0));
#184=VECTOR('',#183,3.2E0);
#185=CARTESIAN_POINT('',(-1.6E0,1.6E0,8.987520127486E0));
#186=LINE('599',#185,#184);
#187=DIRECTION('',(0.E0,0.E0,-1.E0));
#188=VECTOR('',#187,8.712495974503E1);
#189=CARTESIAN_POINT('',(-1.6E0,1.6E0,9.611247987251E1));
#190=LINE('605',#189,#188);
#191=DIRECTION('',(1.E0,0.E0,0.E0));
#192=VECTOR('',#191,3.2E0);
#193=CARTESIAN_POINT('',(-1.6E0,1.6E0,9.611247987251E1));
#194=LINE('600',#193,#192);
#195=DIRECTION('',(0.E0,0.E0,1.E0));
#196=VECTOR('',#195,8.712495974503E1);
#197=CARTESIAN_POINT('',(1.6E0,1.6E0,8.987520127486E0));
#198=LINE('606',#197,#196);
#199=CARTESIAN_POINT('',(0.E0,0.E0,1.026E2));
#200=DIRECTION('',(0.E0,0.E0,1.E0));
#201=DIRECTION('',(1.E0,0.E0,0.E0));
#202=AXIS2_PLACEMENT_3D('',#199,#200,#201);
#204=CARTESIAN_POINT('',(0.E0,0.E0,1.026E2));
#205=DIRECTION('',(0.E0,0.E0,-1.E0));
#206=DIRECTION('',(-1.E0,0.E0,0.E0));
#207=AXIS2_PLACEMENT_3D('',#204,#205,#206);
#209=CARTESIAN_POINT('',(0.E0,0.E0,2.5E0));
#210=DIRECTION('',(0.E0,0.E0,1.E0));
#211=DIRECTION('',(1.E0,0.E0,0.E0));
#212=AXIS2_PLACEMENT_3D('',#209,#210,#211);
#214=CARTESIAN_POINT('',(0.E0,0.E0,2.5E0));
#215=DIRECTION('',(0.E0,0.E0,-1.E0));
#216=DIRECTION('',(-1.E0,0.E0,0.E0));
#217=AXIS2_PLACEMENT_3D('',#214,#215,#216);
#219=CARTESIAN_POINT('',(-4.04E1,0.E0,1.051E2));
#220=CARTESIAN_POINT('',(-4.04E1,0.E0,0.E0));
#221=VERTEX_POINT('',#219);
#222=VERTEX_POINT('',#220);
#223=CARTESIAN_POINT('',(-3.75E1,6.E0,1.051E2));
#224=CARTESIAN_POINT('',(-3.75E1,6.E0,0.E0));
#225=VERTEX_POINT('',#223);
#226=VERTEX_POINT('',#224);
#227=CARTESIAN_POINT('',(4.04E1,0.E0,1.051E2));
#228=CARTESIAN_POINT('',(4.04E1,0.E0,0.E0));
#229=VERTEX_POINT('',#227);
#230=VERTEX_POINT('',#228);
#231=CARTESIAN_POINT('',(3.75E1,6.E0,1.051E2));
#232=CARTESIAN_POINT('',(3.75E1,6.E0,0.E0));
#233=VERTEX_POINT('',#231);
#234=VERTEX_POINT('',#232);
#235=CARTESIAN_POINT('',(1.6E0,0.E0,1.026E2));
#236=CARTESIAN_POINT('',(0.E0,1.6E0,1.026E2));
#237=VERTEX_POINT('',#235);
#238=VERTEX_POINT('',#236);
#239=CARTESIAN_POINT('',(-1.6E0,0.E0,1.026E2));
#240=VERTEX_POINT('',#239);
#241=CARTESIAN_POINT('',(1.6E0,0.E0,2.5E0));
#242=CARTESIAN_POINT('',(0.E0,1.6E0,2.5E0));
#243=VERTEX_POINT('',#241);
#244=VERTEX_POINT('',#242);
#245=CARTESIAN_POINT('',(-1.6E0,0.E0,2.5E0));
#246=VERTEX_POINT('',#245);
#247=CARTESIAN_POINT('',(1.6E0,0.E0,4.1E0));
#248=CARTESIAN_POINT('',(0.E0,0.E0,4.1E0));
#249=VERTEX_POINT('',#247);
#250=VERTEX_POINT('',#248);
#251=CARTESIAN_POINT('',(-1.6E0,0.E0,4.1E0));
#252=VERTEX_POINT('',#251);
#253=CARTESIAN_POINT('',(1.6E0,0.E0,1.01E2));
#254=CARTESIAN_POINT('',(0.E0,0.E0,1.01E2));
#255=VERTEX_POINT('',#253);
#256=VERTEX_POINT('',#254);
#257=CARTESIAN_POINT('',(-1.6E0,0.E0,1.01E2));
#258=VERTEX_POINT('',#257);
#259=CARTESIAN_POINT('',(-1.6E0,1.6E0,8.987520127486E0));
#260=CARTESIAN_POINT('',(1.6E0,1.6E0,8.987520127486E0));
#261=VERTEX_POINT('',#259);
#262=VERTEX_POINT('',#260);
#263=CARTESIAN_POINT('',(-1.6E0,1.6E0,9.611247987251E1));
#264=CARTESIAN_POINT('',(1.6E0,1.6E0,9.611247987251E1));
#265=VERTEX_POINT('',#263);
#266=VERTEX_POINT('',#264);
#267=CARTESIAN_POINT('',(2.5E1,6.E0,9.51E1));
#268=CARTESIAN_POINT('',(-2.5E1,6.E0,9.51E1));
#269=VERTEX_POINT('',#267);
#270=VERTEX_POINT('',#268);
#271=CARTESIAN_POINT('',(-2.5E1,6.E0,8.51E1));
#272=CARTESIAN_POINT('',(2.5E1,6.E0,8.51E1));
#273=VERTEX_POINT('',#271);
#274=VERTEX_POINT('',#272);
#275=CARTESIAN_POINT('',(-2.2E1,3.E0,9.51E1));
#276=CARTESIAN_POINT('',(2.2E1,3.E0,9.51E1));
#277=VERTEX_POINT('',#275);
#278=VERTEX_POINT('',#276);
#279=CARTESIAN_POINT('',(-2.2E1,3.E0,8.51E1));
#280=CARTESIAN_POINT('',(2.2E1,3.E0,8.51E1));
#281=VERTEX_POINT('',#279);
#282=VERTEX_POINT('',#280);
#283=CARTESIAN_POINT('',(0.E0,0.E0,0.E0));
#284=DIRECTION('',(0.E0,1.E0,0.E0));
#285=DIRECTION('',(1.E0,0.E0,0.E0));
#286=AXIS2_PLACEMENT_3D('',#283,#284,#285);
#287=PLANE('57',#286);
#289=ORIENTED_EDGE('194',*,*,#288,.T.);
#291=ORIENTED_EDGE('199',*,*,#290,.T.);
#293=ORIENTED_EDGE('107',*,*,#292,.F.);
#295=ORIENTED_EDGE('198',*,*,#294,.T.);
#296=EDGE_LOOP('57',(#289,#291,#293,#295));
#297=FACE_OUTER_BOUND('57',#296,.F.);
#299=ORIENTED_EDGE('608',*,*,#298,.T.);
#301=ORIENTED_EDGE('591',*,*,#300,.T.);
#303=ORIENTED_EDGE('609',*,*,#302,.F.);
#305=ORIENTED_EDGE('486',*,*,#304,.F.);
#307=ORIENTED_EDGE('610',*,*,#306,.F.);
#309=ORIENTED_EDGE('592',*,*,#308,.T.);
#311=ORIENTED_EDGE('607',*,*,#310,.T.);
#313=ORIENTED_EDGE('590',*,*,#312,.F.);
#315=ORIENTED_EDGE('612',*,*,#314,.T.);
#317=ORIENTED_EDGE('489',*,*,#316,.T.);
#319=ORIENTED_EDGE('611',*,*,#318,.T.);
#321=ORIENTED_EDGE('589',*,*,#320,.F.);
#322=EDGE_LOOP('57',(#299,#301,#303,#305,#307,#309,#311,#313,#315,#317,#319,
#321));
#323=FACE_BOUND('57',#322,.F.);
#325=CARTESIAN_POINT('',(4.04E1,0.E0,1.051E2));
#326=DIRECTION('',(9.003489528419E-1,4.351686605403E-1,0.E0));
#327=DIRECTION('',(-4.351686605403E-1,9.003489528419E-1,0.E0));
#328=AXIS2_PLACEMENT_3D('',#325,#326,#327);
#329=PLANE('183',#328);
#330=ORIENTED_EDGE('194',*,*,#288,.F.);
#332=ORIENTED_EDGE('196',*,*,#331,.T.);
#334=ORIENTED_EDGE('195',*,*,#333,.T.);
#336=ORIENTED_EDGE('197',*,*,#335,.F.);
#337=EDGE_LOOP('183',(#330,#332,#334,#336));
#338=FACE_OUTER_BOUND('183',#337,.F.);
#340=CARTESIAN_POINT('',(-4.04E1,0.E0,1.051E2));
#341=DIRECTION('',(0.E0,0.E0,1.E0));
#342=DIRECTION('',(1.E0,0.E0,0.E0));
#343=AXIS2_PLACEMENT_3D('',#340,#341,#342);
#344=PLANE('69',#343);
#345=ORIENTED_EDGE('196',*,*,#331,.F.);
#346=ORIENTED_EDGE('198',*,*,#294,.F.);
#348=ORIENTED_EDGE('109',*,*,#347,.T.);
#350=ORIENTED_EDGE('200',*,*,#349,.T.);
#351=EDGE_LOOP('69',(#345,#346,#348,#350));
#352=FACE_OUTER_BOUND('69',#351,.F.);
#354=CARTESIAN_POINT('',(-4.04E1,0.E0,1.051E2));
#355=DIRECTION('',(9.003489528419E-1,-4.351686605403E-1,0.E0));
#356=DIRECTION('',(4.351686605403E-1,9.003489528419E-1,0.E0));
#357=AXIS2_PLACEMENT_3D('',#354,#355,#356);
#358=PLANE('103',#357);
#359=ORIENTED_EDGE('107',*,*,#292,.T.);
#361=ORIENTED_EDGE('110',*,*,#360,.T.);
#363=ORIENTED_EDGE('108',*,*,#362,.F.);
#364=ORIENTED_EDGE('109',*,*,#347,.F.);
#365=EDGE_LOOP('103',(#359,#361,#363,#364));
#366=FACE_OUTER_BOUND('103',#365,.F.);
#368=CARTESIAN_POINT('',(4.04E1,0.E0,0.E0));
#369=DIRECTION('',(0.E0,0.E0,-1.E0));
#370=DIRECTION('',(-1.E0,0.E0,0.E0));
#371=AXIS2_PLACEMENT_3D('',#368,#369,#370);
#372=PLANE('73',#371);
#373=ORIENTED_EDGE('197',*,*,#335,.T.);
#375=ORIENTED_EDGE('201',*,*,#374,.T.);
#376=ORIENTED_EDGE('110',*,*,#360,.F.);
#377=ORIENTED_EDGE('199',*,*,#290,.F.);
#378=EDGE_LOOP('73',(#373,#375,#376,#377));
#379=FACE_OUTER_BOUND('73',#378,.F.);
#381=CARTESIAN_POINT('',(0.E0,6.E0,0.E0));
#382=DIRECTION('',(0.E0,1.E0,0.E0));
#383=DIRECTION('',(1.E0,0.E0,0.E0));
#384=AXIS2_PLACEMENT_3D('',#381,#382,#383);
#385=PLANE('62',#384);
#386=ORIENTED_EDGE('195',*,*,#333,.F.);
#387=ORIENTED_EDGE('200',*,*,#349,.F.);
#388=ORIENTED_EDGE('108',*,*,#362,.T.);
#389=ORIENTED_EDGE('201',*,*,#374,.F.);
#390=EDGE_LOOP('62',(#386,#387,#388,#389));
#391=FACE_OUTER_BOUND('62',#390,.F.);
#393=ORIENTED_EDGE('643',*,*,#392,.F.);
#395=ORIENTED_EDGE('679',*,*,#394,.F.);
#397=ORIENTED_EDGE('659',*,*,#396,.F.);
#399=ORIENTED_EDGE('678',*,*,#398,.T.);
#400=EDGE_LOOP('62',(#393,#395,#397,#399));
#401=FACE_BOUND('62',#400,.F.);
#403=CARTESIAN_POINT('',(0.E0,0.E0,9.51E1));
#404=DIRECTION('',(0.E0,0.E0,1.E0));
#405=DIRECTION('',(1.E0,0.E0,0.E0));
#406=AXIS2_PLACEMENT_3D('',#403,#404,#405);
#407=PLANE('633',#406);
#408=ORIENTED_EDGE('643',*,*,#392,.T.);
#410=ORIENTED_EDGE('680',*,*,#409,.T.);
#412=ORIENTED_EDGE('666',*,*,#411,.T.);
#414=ORIENTED_EDGE('681',*,*,#413,.T.);
#415=EDGE_LOOP('633',(#408,#410,#412,#414));
#416=FACE_OUTER_BOUND('633',#415,.F.);
#418=CARTESIAN_POINT('',(-2.5E1,6.E0,9.51E1));
#419=DIRECTION('',(-7.071067811865E-1,-7.071067811865E-1,0.E0));
#420=DIRECTION('',(7.071067811865E-1,-7.071067811865E-1,0.E0));
#421=AXIS2_PLACEMENT_3D('',#418,#419,#420);
#422=PLANE('671',#421);
#423=ORIENTED_EDGE('678',*,*,#398,.F.);
#425=ORIENTED_EDGE('682',*,*,#424,.T.);
#427=ORIENTED_EDGE('674',*,*,#426,.F.);
#428=ORIENTED_EDGE('680',*,*,#409,.F.);
#429=EDGE_LOOP('671',(#423,#425,#427,#428));
#430=FACE_OUTER_BOUND('671',#429,.F.);
#432=CARTESIAN_POINT('',(0.E0,0.E0,8.51E1));
#433=DIRECTION('',(0.E0,0.E0,1.E0));
#434=DIRECTION('',(1.E0,0.E0,0.E0));
#435=AXIS2_PLACEMENT_3D('',#432,#433,#434);
#436=PLANE('636',#435);
#437=ORIENTED_EDGE('659',*,*,#396,.T.);
#439=ORIENTED_EDGE('683',*,*,#438,.F.);
#441=ORIENTED_EDGE('669',*,*,#440,.F.);
#442=ORIENTED_EDGE('682',*,*,#424,.F.);
#443=EDGE_LOOP('636',(#437,#439,#441,#442));
#444=FACE_OUTER_BOUND('636',#443,.F.);
#446=CARTESIAN_POINT('',(2.2E1,3.E0,9.51E1));
#447=DIRECTION('',(7.071067811865E-1,-7.071067811865E-1,0.E0));
#448=DIRECTION('',(7.071067811865E-1,7.071067811865E-1,0.E0));
#449=AXIS2_PLACEMENT_3D('',#446,#447,#448);
#450=PLANE('675',#449);
#451=ORIENTED_EDGE('679',*,*,#394,.T.);
#452=ORIENTED_EDGE('681',*,*,#413,.F.);
#454=ORIENTED_EDGE('676',*,*,#453,.T.);
#455=ORIENTED_EDGE('683',*,*,#438,.T.);
#456=EDGE_LOOP('675',(#451,#452,#454,#455));
#457=FACE_OUTER_BOUND('675',#456,.F.);
#459=CARTESIAN_POINT('',(-2.2E1,3.E0,9.51E1));
#460=DIRECTION('',(0.E0,-1.E0,0.E0));
#461=DIRECTION('',(1.E0,0.E0,0.E0));
#462=AXIS2_PLACEMENT_3D('',#459,#460,#461);
#463=PLANE('673',#462);
#464=ORIENTED_EDGE('666',*,*,#411,.F.);
#465=ORIENTED_EDGE('674',*,*,#426,.T.);
#466=ORIENTED_EDGE('669',*,*,#440,.T.);
#467=ORIENTED_EDGE('676',*,*,#453,.F.);
#468=EDGE_LOOP('673',(#464,#465,#466,#467));
#469=FACE_OUTER_BOUND('673',#468,.F.);
#471=CARTESIAN_POINT('',(1.6E0,0.E0,4.1E0));
#472=DIRECTION('',(1.E0,0.E0,0.E0));
#473=DIRECTION('',(0.E0,0.E0,1.E0));
#474=AXIS2_PLACEMENT_3D('',#471,#472,#473);
#475=PLANE('523',#474);
#477=ORIENTED_EDGE('603',*,*,#476,.F.);
#479=ORIENTED_EDGE('606',*,*,#478,.T.);
#481=ORIENTED_EDGE('604',*,*,#480,.F.);
#482=ORIENTED_EDGE('608',*,*,#298,.F.);
#483=EDGE_LOOP('523',(#477,#479,#481,#482));
#484=FACE_OUTER_BOUND('523',#483,.F.);
#486=CARTESIAN_POINT('',(-1.6E0,1.6E0,8.987520127486E0));
#487=DIRECTION('',(0.E0,-9.503713766674E-1,3.111177372174E-1));
#488=DIRECTION('',(0.E0,-3.111177372174E-1,-9.503713766674E-1));
#489=AXIS2_PLACEMENT_3D('',#486,#487,#488);
#490=PLANE('581',#489);
#491=ORIENTED_EDGE('589',*,*,#320,.T.);
#492=ORIENTED_EDGE('590',*,*,#312,.T.);
#494=ORIENTED_EDGE('601',*,*,#493,.F.);
#496=ORIENTED_EDGE('599',*,*,#495,.T.);
#497=ORIENTED_EDGE('603',*,*,#476,.T.);
#498=EDGE_LOOP('581',(#491,#492,#494,#496,#497));
#499=FACE_OUTER_BOUND('581',#498,.F.);
#501=CARTESIAN_POINT('',(-1.6E0,0.E0,1.01E2));
#502=DIRECTION('',(-1.E0,0.E0,0.E0));
#503=DIRECTION('',(0.E0,0.E0,-1.E0));
#504=AXIS2_PLACEMENT_3D('',#501,#502,#503);
#505=PLANE('519',#504);
#506=ORIENTED_EDGE('601',*,*,#493,.T.);
#507=ORIENTED_EDGE('607',*,*,#310,.F.);
#509=ORIENTED_EDGE('602',*,*,#508,.T.);
#511=ORIENTED_EDGE('605',*,*,#510,.T.);
#512=EDGE_LOOP('519',(#506,#507,#509,#511));
#513=FACE_OUTER_BOUND('519',#512,.F.);
#515=CARTESIAN_POINT('',(-1.6E0,0.E0,1.01E2));
#516=DIRECTION('',(0.E0,-9.503713766674E-1,-3.111177372174E-1));
#517=DIRECTION('',(0.E0,3.111177372174E-1,-9.503713766674E-1));
#518=AXIS2_PLACEMENT_3D('',#515,#516,#517);
#519=PLANE('583',#518);
#520=ORIENTED_EDGE('591',*,*,#300,.F.);
#521=ORIENTED_EDGE('604',*,*,#480,.T.);
#523=ORIENTED_EDGE('600',*,*,#522,.F.);
#524=ORIENTED_EDGE('602',*,*,#508,.F.);
#525=ORIENTED_EDGE('592',*,*,#308,.F.);
#526=EDGE_LOOP('583',(#520,#521,#523,#524,#525));
#527=FACE_OUTER_BOUND('583',#526,.F.);
#529=CARTESIAN_POINT('',(0.E0,1.6E0,0.E0));
#530=DIRECTION('',(0.E0,-1.E0,0.E0));
#531=DIRECTION('',(1.E0,0.E0,0.E0));
#532=AXIS2_PLACEMENT_3D('',#529,#530,#531);
#533=PLANE('509',#532);
#534=ORIENTED_EDGE('599',*,*,#495,.F.);
#535=ORIENTED_EDGE('605',*,*,#510,.F.);
#536=ORIENTED_EDGE('600',*,*,#522,.T.);
#537=ORIENTED_EDGE('606',*,*,#478,.F.);
#538=EDGE_LOOP('509',(#534,#535,#536,#537));
#539=FACE_OUTER_BOUND('509',#538,.F.);
#541=CARTESIAN_POINT('',(0.E0,0.E0,1.026E2));
#542=DIRECTION('',(0.E0,1.E0,0.E0));
#543=DIRECTION('',(1.E0,0.E0,0.E0));
#544=AXIS2_PLACEMENT_3D('',#541,#542,#543);
#545=SPHERICAL_SURFACE('238',#544,1.6E0);
#546=ORIENTED_EDGE('609',*,*,#302,.T.);
#547=ORIENTED_EDGE('610',*,*,#306,.T.);
#549=ORIENTED_EDGE('257',*,*,#548,.T.);
#551=ORIENTED_EDGE('256',*,*,#550,.F.);
#552=EDGE_LOOP('238',(#546,#547,#549,#551));
#553=FACE_OUTER_BOUND('238',#552,.F.);
#555=CARTESIAN_POINT('',(0.E0,0.E0,1.026E2));
#556=DIRECTION('',(0.E0,1.E0,0.E0));
#557=DIRECTION('',(1.E0,0.E0,0.E0));
#558=AXIS2_PLACEMENT_3D('',#555,#556,#557);
#559=SPHERICAL_SURFACE('248',#558,1.6E0);
#560=ORIENTED_EDGE('256',*,*,#550,.T.);
#561=ORIENTED_EDGE('257',*,*,#548,.F.);
#562=ORIENTED_EDGE('486',*,*,#304,.T.);
#563=EDGE_LOOP('248',(#560,#561,#562));
#564=FACE_OUTER_BOUND('248',#563,.F.);
#566=CARTESIAN_POINT('',(0.E0,0.E0,2.5E0));
#567=DIRECTION('',(0.E0,-1.E0,0.E0));
#568=DIRECTION('',(1.E0,0.E0,0.E0));
#569=AXIS2_PLACEMENT_3D('',#566,#567,#568);
#570=SPHERICAL_SURFACE('269',#569,1.6E0);
#571=ORIENTED_EDGE('611',*,*,#318,.F.);
#573=ORIENTED_EDGE('287',*,*,#572,.T.);
#575=ORIENTED_EDGE('288',*,*,#574,.F.);
#576=ORIENTED_EDGE('612',*,*,#314,.F.);
#577=EDGE_LOOP('269',(#571,#573,#575,#576));
#578=FACE_OUTER_BOUND('269',#577,.F.);
#580=CARTESIAN_POINT('',(0.E0,0.E0,2.5E0));
#581=DIRECTION('',(0.E0,-1.E0,0.E0));
#582=DIRECTION('',(1.E0,0.E0,0.E0));
#583=AXIS2_PLACEMENT_3D('',#580,#581,#582);
#584=SPHERICAL_SURFACE('273',#583,1.6E0);
#585=ORIENTED_EDGE('287',*,*,#572,.F.);
#586=ORIENTED_EDGE('489',*,*,#316,.F.);
#587=ORIENTED_EDGE('288',*,*,#574,.T.);
#588=EDGE_LOOP('273',(#585,#586,#587));
#589=FACE_OUTER_BOUND('273',#588,.F.);
#593=CARTESIAN_POINT('',(0.E0,0.E0,0.E0));
#594=DIRECTION('',(1.E0,0.E0,0.E0));
#595=DIRECTION('',(0.E0,1.E0,0.E0));
#596=AXIS2_PLACEMENT_3D('',#593,#594,#595);
#597=PLANE('RIGHT',#596);
#598=CARTESIAN_POINT('',(0.E0,0.E0,0.E0));
#599=DIRECTION('',(0.E0,1.E0,0.E0));
#600=DIRECTION('',(0.E0,0.E0,1.E0));
#601=AXIS2_PLACEMENT_3D('',#598,#599,#600);
#602=PLANE('TOP',#601);
#603=CARTESIAN_POINT('',(0.E0,0.E0,0.E0));
#604=DIRECTION('',(0.E0,0.E0,1.E0));
#605=DIRECTION('',(1.E0,0.E0,0.E0));
#606=AXIS2_PLACEMENT_3D('',#603,#604,#605);
#607=PLANE('FRONT',#606);
#608=CARTESIAN_POINT('',(0.E0,0.E0,0.E0));
#609=DIRECTION('',(0.E0,0.E0,1.E0));
#610=DIRECTION('',(1.E0,0.E0,0.E0));
#611=AXIS2_PLACEMENT_3D('PRT_CSYS_DEF',#608,#609,#610);
#612=DRAUGHTING_PRE_DEFINED_CURVE_FONT('continuous');
#613=CURVE_STYLE('',#612,POSITIVE_LENGTH_MEASURE(2.E-2),#6);
#614=PRESENTATION_STYLE_ASSIGNMENT((#613));
#615=STYLED_ITEM('',(#614),#611);
#616=DIRECTION('',(-1.E0,0.E0,0.E0));
#617=VECTOR('',#616,8.08E1);
#618=CARTESIAN_POINT('',(4.04E1,0.E0,0.E0));
#619=LINE('',#618,#617);
#621=CURVE_STYLE('',#612,POSITIVE_LENGTH_MEASURE(2.E-2),#4);
#622=PRESENTATION_STYLE_ASSIGNMENT((#621));
#623=STYLED_ITEM('',(#622),#620);
#624=DIRECTION('',(0.E0,0.E0,1.E0));
#625=VECTOR('',#624,1.051E2);
#626=CARTESIAN_POINT('',(-4.04E1,0.E0,0.E0));
#627=LINE('',#626,#625);
#629=CURVE_STYLE('',#612,POSITIVE_LENGTH_MEASURE(2.E-2),#1);
#630=PRESENTATION_STYLE_ASSIGNMENT((#629));
#631=STYLED_ITEM('',(#630),#628);
#633=DIRECTION('',(1.E0,0.E0,0.E0));
#634=VECTOR('',#633,8.08E1);
#635=CARTESIAN_POINT('',(-4.04E1,0.E0,1.051E2));
#636=LINE('',#635,#634);
#638=CURVE_STYLE('',#612,POSITIVE_LENGTH_MEASURE(2.E-2),#1);
#639=PRESENTATION_STYLE_ASSIGNMENT((#638));
#640=STYLED_ITEM('',(#639),#637);
#642=DIRECTION('',(0.E0,0.E0,-1.E0));
#643=VECTOR('',#642,1.051E2);
#644=CARTESIAN_POINT('',(4.04E1,0.E0,1.051E2));
#645=LINE('',#644,#643);
#647=CURVE_STYLE('',#612,POSITIVE_LENGTH_MEASURE(2.E-2),#1);
#648=PRESENTATION_STYLE_ASSIGNMENT((#647));
#649=STYLED_ITEM('',(#648),#646);
#651=DIRECTION('',(-1.E0,0.E0,0.E0));
#652=VECTOR('',#651,8.08E1);
#653=CARTESIAN_POINT('',(4.04E1,0.E0,0.E0));
#654=LINE('',#653,#652);
#656=CURVE_STYLE('',#612,POSITIVE_LENGTH_MEASURE(2.E-2),#1);
#657=PRESENTATION_STYLE_ASSIGNMENT((#656));
#658=STYLED_ITEM('',(#657),#655);
#662=DIRECTION('',(0.E0,-1.E0,0.E0));
#663=VECTOR('',#662,6.E0);
#664=CARTESIAN_POINT('',(-4.04E1,6.E0,1.051E2));
#665=LINE('',#664,#663);
#667=CURVE_STYLE('',#612,POSITIVE_LENGTH_MEASURE(2.E-2),#1);
#668=PRESENTATION_STYLE_ASSIGNMENT((#667));
#669=STYLED_ITEM('',(#668),#666);
#671=DIRECTION('',(4.351686605403E-1,9.003489528419E-1,0.E0));
#672=VECTOR('',#671,6.664082832618E0);
#673=CARTESIAN_POINT('',(-4.04E1,0.E0,1.051E2));
#674=LINE('',#673,#672);
#676=CURVE_STYLE('',#612,POSITIVE_LENGTH_MEASURE(2.E-2),#1);
#677=PRESENTATION_STYLE_ASSIGNMENT((#676));
#678=STYLED_ITEM('',(#677),#675);
#680=DIRECTION('',(-1.E0,0.E0,0.E0));
#681=VECTOR('',#680,2.9E0);
#682=CARTESIAN_POINT('',(-3.75E1,6.E0,1.051E2));
#683=LINE('',#682,#681);
#685=CURVE_STYLE('',#612,POSITIVE_LENGTH_MEASURE(2.E-2),#1);
#686=PRESENTATION_STYLE_ASSIGNMENT((#685));
#687=STYLED_ITEM('',(#686),#684);
#690=CARTESIAN_POINT('',(0.E0,0.E0,5.255E1));
#691=DIRECTION('',(0.E0,0.E0,1.E0));
#692=DIRECTION('',(1.E0,0.E0,0.E0));
#693=AXIS2_PLACEMENT_3D('',#690,#691,#692);
#694=PLANE('DTM2',#693);
#695=DIRECTION('',(0.E0,1.E0,0.E0));
#696=VECTOR('',#695,7.6E0);
#697=CARTESIAN_POINT('',(0.E0,-1.6E0,1.026E2));
#698=LINE('',#697,#696);
#700=CURVE_STYLE('',#612,POSITIVE_LENGTH_MEASURE(2.E-2),#4);
#701=PRESENTATION_STYLE_ASSIGNMENT((#700));
#702=STYLED_ITEM('',(#701),#699);
#703=CARTESIAN_POINT('',(0.E0,0.E0,1.026E2));
#704=DIRECTION('',(0.E0,0.E0,1.E0));
#705=DIRECTION('',(0.E0,1.E0,0.E0));
#706=AXIS2_PLACEMENT_3D('',#703,#704,#705);
#707=PLANE('DTM1',#706);
#708=CARTESIAN_POINT('',(0.E0,0.E0,1.026E2));
#709=DIRECTION('',(0.E0,0.E0,1.E0));
#710=DIRECTION('',(0.E0,-1.E0,0.E0));
#711=AXIS2_PLACEMENT_3D('',#708,#709,#710);
#714=CURVE_STYLE('',#612,POSITIVE_LENGTH_MEASURE(2.E-2),#1);
#715=PRESENTATION_STYLE_ASSIGNMENT((#714));
#716=STYLED_ITEM('',(#715),#713);
#718=DIRECTION('',(0.E0,-1.E0,0.E0));
#719=VECTOR('',#718,3.2E0);
#720=CARTESIAN_POINT('',(0.E0,1.6E0,1.026E2));
#721=LINE('',#720,#719);
#723=CURVE_STYLE('',#612,POSITIVE_LENGTH_MEASURE(2.E-2),#1);
#724=PRESENTATION_STYLE_ASSIGNMENT((#723));
#725=STYLED_ITEM('',(#724),#722);
#728=DIRECTION('',(0.E0,1.E0,0.E0));
#729=VECTOR('',#728,3.2E0);
#730=CARTESIAN_POINT('',(0.E0,-1.6E0,2.5E0));
#731=LINE('',#730,#729);
#733=CURVE_STYLE('',#612,POSITIVE_LENGTH_MEASURE(2.E-2),#4);
#734=PRESENTATION_STYLE_ASSIGNMENT((#733));
#735=STYLED_ITEM('',(#734),#732);
#736=DIRECTION('',(-1.E0,0.E0,0.E0));
#737=VECTOR('',#736,1.6E0);
#738=CARTESIAN_POINT('',(1.6E0,0.E0,1.01E2));
#739=LINE('',#738,#737);
#741=CURVE_STYLE('',#612,POSITIVE_LENGTH_MEASURE(2.E-2),#1);
#742=PRESENTATION_STYLE_ASSIGNMENT((#741));
#743=STYLED_ITEM('',(#742),#740);
#745=DIRECTION('',(-1.E0,0.E0,0.E0));
#746=VECTOR('',#745,1.6E0);
#747=CARTESIAN_POINT('',(0.E0,0.E0,1.01E2));
#748=LINE('',#747,#746);
#750=CURVE_STYLE('',#612,POSITIVE_LENGTH_MEASURE(2.E-2),#1);
#751=PRESENTATION_STYLE_ASSIGNMENT((#750));
#752=STYLED_ITEM('',(#751),#749);
#754=DIRECTION('',(0.E0,0.E0,-1.E0));
#755=VECTOR('',#754,9.69E1);
#756=CARTESIAN_POINT('',(-1.6E0,0.E0,1.01E2));
#757=LINE('',#756,#755);
#759=CURVE_STYLE('',#612,POSITIVE_LENGTH_MEASURE(2.E-2),#1);
#760=PRESENTATION_STYLE_ASSIGNMENT((#759));
#761=STYLED_ITEM('',(#760),#758);
#763=DIRECTION('',(1.E0,0.E0,0.E0));
#764=VECTOR('',#763,3.2E0);
#765=CARTESIAN_POINT('',(-1.6E0,0.E0,4.1E0));
#766=LINE('',#765,#764);
#768=CURVE_STYLE('',#612,POSITIVE_LENGTH_MEASURE(2.E-2),#1);
#769=PRESENTATION_STYLE_ASSIGNMENT((#768));
#770=STYLED_ITEM('',(#769),#767);
#772=DIRECTION('',(0.E0,0.E0,1.E0));
#773=VECTOR('',#772,9.69E1);
#774=CARTESIAN_POINT('',(1.6E0,0.E0,4.1E0));
#775=LINE('',#774,#773);
#777=CURVE_STYLE('',#612,POSITIVE_LENGTH_MEASURE(2.E-2),#1);
#778=PRESENTATION_STYLE_ASSIGNMENT((#777));
#779=STYLED_ITEM('',(#778),#776);
#782=DIRECTION('',(0.E0,1.E0,0.E0));
#783=VECTOR('',#782,1.6E0);
#784=CARTESIAN_POINT('',(-1.6E0,0.E0,4.1E0));
#785=LINE('',#784,#783);
#787=CURVE_STYLE('',#612,POSITIVE_LENGTH_MEASURE(2.E-2),#1);
#788=PRESENTATION_STYLE_ASSIGNMENT((#787));
#789=STYLED_ITEM('',(#788),#786);
#791=DIRECTION('',(0.E0,0.E0,1.E0));
#792=VECTOR('',#791,4.887520127486E0);
#793=CARTESIAN_POINT('',(-1.6E0,1.6E0,4.1E0));
#794=LINE('',#793,#792);
#796=CURVE_STYLE('',#612,POSITIVE_LENGTH_MEASURE(2.E-2),#1);
#797=PRESENTATION_STYLE_ASSIGNMENT((#796));
#798=STYLED_ITEM('',(#797),#795);
#800=DIRECTION('',(0.E0,-3.111177372174E-1,-9.503713766674E-1));
#801=VECTOR('',#800,5.142747611596E0);
#802=CARTESIAN_POINT('',(-1.6E0,1.6E0,8.987520127486E0));
#803=LINE('',#802,#801);
#805=CURVE_STYLE('',#612,POSITIVE_LENGTH_MEASURE(2.E-2),#1);
#806=PRESENTATION_STYLE_ASSIGNMENT((#805));
#807=STYLED_ITEM('',(#806),#804);
#810=DIRECTION('',(0.E0,3.111177372174E-1,-9.503713766674E-1));
#811=VECTOR('',#810,5.142747611596E0);
#812=CARTESIAN_POINT('',(-1.6E0,0.E0,1.01E2));
#813=LINE('',#812,#811);
#815=CURVE_STYLE('',#612,POSITIVE_LENGTH_MEASURE(2.E-2),#1);
#816=PRESENTATION_STYLE_ASSIGNMENT((#815));
#817=STYLED_ITEM('',(#816),#814);
#819=DIRECTION('',(0.E0,0.E0,1.E0));
#820=VECTOR('',#819,4.887520127486E0);
#821=CARTESIAN_POINT('',(-1.6E0,1.6E0,9.611247987251E1));
#822=LINE('',#821,#820);
#824=CURVE_STYLE('',#612,POSITIVE_LENGTH_MEASURE(2.E-2),#1);
#825=PRESENTATION_STYLE_ASSIGNMENT((#824));
#826=STYLED_ITEM('',(#825),#823);
#828=DIRECTION('',(0.E0,-1.E0,0.E0));
#829=VECTOR('',#828,1.6E0);
#830=CARTESIAN_POINT('',(-1.6E0,1.6E0,1.01E2));
#831=LINE('',#830,#829);
#833=CURVE_STYLE('',#612,POSITIVE_LENGTH_MEASURE(2.E-2),#1);
#834=PRESENTATION_STYLE_ASSIGNMENT((#833));
#835=STYLED_ITEM('',(#834),#832);
#838=CARTESIAN_POINT('',(-4.04E1,0.E0,9.51E1));
#839=DIRECTION('',(0.E0,0.E0,1.E0));
#840=DIRECTION('',(1.E0,0.E0,0.E0));
#841=AXIS2_PLACEMENT_3D('',#838,#839,#840);
#842=PLANE('DTM3',#841);
#843=DIRECTION('',(7.071067811865E-1,-7.071067811865E-1,0.E0));
#844=VECTOR('',#843,4.242640687119E0);
#845=CARTESIAN_POINT('',(-2.5E1,6.E0,9.51E1));
#846=LINE('',#845,#844);
#848=CURVE_STYLE('',#612,POSITIVE_LENGTH_MEASURE(2.E-2),#1);
#849=PRESENTATION_STYLE_ASSIGNMENT((#848));
#850=STYLED_ITEM('',(#849),#847);
#852=DIRECTION('',(1.E0,0.E0,0.E0));
#853=VECTOR('',#852,4.4E1);
#854=CARTESIAN_POINT('',(-2.2E1,3.E0,9.51E1));
#855=LINE('',#854,#853);
#857=CURVE_STYLE('',#612,POSITIVE_LENGTH_MEASURE(2.E-2),#1);
#858=PRESENTATION_STYLE_ASSIGNMENT((#857));
#859=STYLED_ITEM('',(#858),#856);
#861=DIRECTION('',(7.071067811865E-1,7.071067811865E-1,0.E0));
#862=VECTOR('',#861,4.242640687119E0);
#863=CARTESIAN_POINT('',(2.2E1,3.E0,9.51E1));
#864=LINE('',#863,#862);
#866=CURVE_STYLE('',#612,POSITIVE_LENGTH_MEASURE(2.E-2),#1);
#867=PRESENTATION_STYLE_ASSIGNMENT((#866));
#868=STYLED_ITEM('',(#867),#865);
#870=DIRECTION('',(-1.E0,0.E0,0.E0));
#871=VECTOR('',#870,5.E1);
#872=CARTESIAN_POINT('',(2.5E1,6.E0,9.51E1));
#873=LINE('',#872,#871);
#875=CURVE_STYLE('',#612,POSITIVE_LENGTH_MEASURE(2.E-2),#1);
#876=PRESENTATION_STYLE_ASSIGNMENT((#875));
#877=STYLED_ITEM('',(#876),#874);
#880=PRESENTATION_LAYER_ASSIGNMENT('_26_BEZUGSACHSEN','',(#620,#699,#732));
#881=PRESENTATION_LAYER_ASSIGNMENT('_27_BEZUGSEBENEN','',(#597,#602,#607,#694,
#707,#842));
#882=PRESENTATION_LAYER_ASSIGNMENT('_29_KOORDINATENSYSTEME','',(#611));
#883=PRESENTATION_LAYER_ASSIGNMENT('_00_PRT_START_FEATURES','',(#597,#602,#607,
#611,#620));
#884=PRESENTATION_LAYER_ASSIGNMENT('_21_KURVEN','',(#660,#689,#727,#781,#809,
#837,#879));
#885=PRESENTATION_LAYER_ASSIGNMENT('.BLACK_HOLE','',(#660,#689,#727,#781,#809,
#837,#879));
#886=INVISIBILITY((#885));
#889=PLANE_ANGLE_MEASURE_WITH_UNIT(PLANE_ANGLE_MEASURE(1.745329251994E-2),#888);
#890=(CONVERSION_BASED_UNIT('DEGREE',#889)NAMED_UNIT(*)PLANE_ANGLE_UNIT());
#892=UNCERTAINTY_MEASURE_WITH_UNIT(LENGTH_MEASURE(1.E-2),#887,'closure',
'Maximum model space distance between geometric entities at asserted connectivities');
#661=GEOMETRIC_CURVE_SET('48',(#660,#689,#727,#781,#809,#837,#879));
#897=CARTESIAN_POINT('',(0.E0,0.E0,0.E0));
#898=DIRECTION('',(0.E0,0.E0,1.E0));
#899=DIRECTION('',(1.E0,0.E0,0.E0));
#902=SHAPE_REPRESENTATION_RELATIONSHIP('','',#901,#894);
#903=SHAPE_REPRESENTATION_RELATIONSHIP('','',#901,#895);
#904=CONSTRUCTIVE_GEOMETRY_REPRESENTATION_RELATIONSHIP('','',#901,#896);
#905=MECHANICAL_DESIGN_GEOMETRIC_PRESENTATION_REPRESENTATION('',(#615,#623,#631,
#640,#649,#658,#669,#678,#687,#702,#716,#725,#735,#743,#752,#761,#770,#779,#789,
#798,#807,#817,#826,#835,#850,#859,#868,#877),#893);
#906=APPLICATION_CONTEXT('automotive design');
#907=APPLICATION_PROTOCOL_DEFINITION('international standard',
'config_control_design',1994,#906);
#908=PRODUCT_DEFINITION_CONTEXT('',#906,'design');
#909=PRODUCT_CONTEXT('',#906,'mechanical');
#910=PRODUCT('ELECTRONICS_ENCLOSURE_COVER','ELECTRONICS_ENCLOSURE_COVER',
'NOT SPECIFIED',(#909));
#911=PRODUCT_DEFINITION_FORMATION_WITH_SPECIFIED_SOURCE('9','LAST_VERSION',#910,
.MADE.);
#919=DERIVED_UNIT_ELEMENT(#918,-3.E0);
#921=DERIVED_UNIT_ELEMENT(#920,1.E0);
#922=DERIVED_UNIT((#919,#921));
#923=MEASURE_REPRESENTATION_ITEM('density measure',POSITIVE_RATIO_MEASURE(
7.85E-6),#922);
#927=DESCRIPTIVE_REPRESENTATION_ITEM('STAHL_ALLGEMEIN','');
#936=DERIVED_UNIT_ELEMENT(#935,2.E0);
#937=AREA_UNIT((#936));
#938=MEASURE_REPRESENTATION_ITEM('surface area measure',AREA_MEASURE(
1.932918137103E4),#937);
#943=DERIVED_UNIT_ELEMENT(#942,3.E0);
#944=VOLUME_UNIT((#943));
#945=MEASURE_REPRESENTATION_ITEM('volume measure',VOLUME_MEASURE(
4.722547864001E4),#944);
#949=CARTESIAN_POINT('centre point',(-9.566452834706E-8,2.938498016547E0,
5.142887848838E1));
#954=DERIVED_UNIT_ELEMENT(#953,2.E0);
#955=AREA_UNIT((#954));
#956=MEASURE_REPRESENTATION_ITEM('surface area measure',AREA_MEASURE(
1.932918137103E4),#955);
#961=DERIVED_UNIT_ELEMENT(#960,3.E0);
#962=VOLUME_UNIT((#961));
#963=MEASURE_REPRESENTATION_ITEM('volume measure',VOLUME_MEASURE(
4.722547864001E4),#962);
#967=CARTESIAN_POINT('centre point',(-9.566452834706E-8,2.938498016547E0,
5.142887848838E1));
#971=PRODUCT_CONTEXT('',#906,'mechanical');
#972=PRODUCT('STAHL_ALLGEMEIN','allgemeiner Stahl','NOT SPECIFIED',(#971));
#973=PRODUCT_DEFINITION_FORMATION_WITH_SPECIFIED_SOURCE('','LAST_VERSION',#972,
.MADE.);
#976=DIMENSIONAL_EXPONENTS(0.E0,0.E0,0.E0,0.E0,0.E0,0.E0,0.E0);
#977=NAMED_UNIT(#976);
#978=MEASURE_WITH_UNIT(COUNT_MEASURE(1.E0),#977);
#980=DERIVED_UNIT_ELEMENT(#979,-3.E0);
#982=DERIVED_UNIT_ELEMENT(#981,1.E0);
#983=DERIVED_UNIT((#980,#982));
#984=MEASURE_REPRESENTATION_ITEM('density measure',POSITIVE_RATIO_MEASURE(
7.85E-6),#983);
#989=DRAUGHTING_MODEL('Default',(#1003,#1005,#1007,#1018,#1019),#893);
#990=CARTESIAN_POINT('',(0.E0,0.E0,0.E0));
#991=DIRECTION('',(0.E0,0.E0,1.E0));
#992=DIRECTION('',(1.E0,0.E0,0.E0));
#993=AXIS2_PLACEMENT_3D('',#990,#991,#992);
#994=REPRESENTATION_MAP(#993,#901);
#995=MAPPED_ITEM('',#994,#993);
#996=PRESENTATION_STYLE_ASSIGNMENT((.NULL.));
#997=STYLED_ITEM('',(#996),#995);
#998=DRAUGHTING_MODEL('',(#993,#995,#997),#893);
#999=MECHANICAL_DESIGN_AND_DRAUGHTING_RELATIONSHIP('','',#989,#998);
#1000=CARTESIAN_POINT('',(0.E0,0.E0,0.E0));
#1001=DIRECTION('',(0.E0,0.E0,1.E0));
#1002=DIRECTION('',(1.E0,0.E0,0.E0));
#1003=AXIS2_PLACEMENT_3D('',#1000,#1001,#1002);
#1004=REPRESENTATION_MAP(#1003,#901);
#1005=MAPPED_ITEM('',#1004,#1003);
#1006=PRESENTATION_STYLE_ASSIGNMENT((.NULL.));
#1007=STYLED_ITEM('',(#1006),#1005);
#1008=CARTESIAN_POINT('',(0.E0,0.E0,0.E0));
#1009=CARTESIAN_POINT('',(-7.925646902381E1,-9.536970510197E1,
3.011299375682E2));
#1010=DIRECTION('',(0.E0,0.E0,1.E0));
#1011=DIRECTION('',(1.E0,0.E0,0.E0));
#1012=AXIS2_PLACEMENT_3D('',#1009,#1010,#1011);
#1014=VIEW_VOLUME(.PARALLEL.,#1008,3.011299375682E2,3.011299375682E2,.T.,0.E0,
.F.,.T.,#1013);
#1015=CARTESIAN_POINT('',(4.426547896708E1,1.821565812546E2,2.663001222505E2));
#1016=DIRECTION('',(-3.894183423087E-1,-7.214918620107E-1,-5.725406952575E-1));
#1017=DIRECTION('',(-9.210609940029E-1,3.050418666329E-1,2.420663234065E-1));
#1018=AXIS2_PLACEMENT_3D('',#1015,#1016,#1017);
#1019=CAMERA_MODEL_D3('DEFAULT',#1018,#1014);
#1021=GENERAL_PROPERTY('','CAD_APPROVED_BY','user defined attribute');
#1022=GENERAL_PROPERTY_ASSOCIATION('user defined attribute','',#1021,#1020);
#1023=DESCRIPTIVE_REPRESENTATION_ITEM('CAD_APPROVED_BY','-');
#1027=GENERAL_PROPERTY('','CAD_APPROVED_ON','user defined attribute');
#1028=GENERAL_PROPERTY_ASSOCIATION('user defined attribute','',#1027,#1026);
#1029=DESCRIPTIVE_REPRESENTATION_ITEM('CAD_APPROVED_ON','jjjj-mm-dd');
#1033=GENERAL_PROPERTY('','CAD_CHANGE_NO','user defined attribute');
#1034=GENERAL_PROPERTY_ASSOCIATION('user defined attribute','',#1033,#1032);
#1035=DESCRIPTIVE_REPRESENTATION_ITEM('CAD_CHANGE_NO','-');
#1039=GENERAL_PROPERTY('','CAD_CHANGE_TEXT','user defined attribute');
#1040=GENERAL_PROPERTY_ASSOCIATION('user defined attribute','',#1039,#1038);
#1041=DESCRIPTIVE_REPRESENTATION_ITEM('CAD_CHANGE_TEXT','-');
#1045=GENERAL_PROPERTY('','CAD_CREATED_BY','user defined attribute');
#1046=GENERAL_PROPERTY_ASSOCIATION('user defined attribute','',#1045,#1044);
#1047=DESCRIPTIVE_REPRESENTATION_ITEM('CAD_CREATED_BY','-');
#1051=GENERAL_PROPERTY('','CAD_CREATED_ON','user defined attribute');
#1052=GENERAL_PROPERTY_ASSOCIATION('user defined attribute','',#1051,#1050);
#1053=DESCRIPTIVE_REPRESENTATION_ITEM('CAD_CREATED_ON','jjjj-mm-dd');
#1057=GENERAL_PROPERTY('','CAD_LIFECYCLE_STATE','user defined attribute');
#1058=GENERAL_PROPERTY_ASSOCIATION('user defined attribute','',#1057,#1056);
#1059=DESCRIPTIVE_REPRESENTATION_ITEM('CAD_LIFECYCLE_STATE','-');
#1063=GENERAL_PROPERTY('','CAD_MODIFIED_BY','user defined attribute');
#1064=GENERAL_PROPERTY_ASSOCIATION('user defined attribute','',#1063,#1062);
#1065=DESCRIPTIVE_REPRESENTATION_ITEM('CAD_MODIFIED_BY','-');
#1069=GENERAL_PROPERTY('','CAD_MODIFIED_ON','user defined attribute');
#1070=GENERAL_PROPERTY_ASSOCIATION('user defined attribute','',#1069,#1068);
#1071=DESCRIPTIVE_REPRESENTATION_ITEM('CAD_MODIFIED_ON','jjjj-mm-dd');
#1075=GENERAL_PROPERTY('','CAD_REVISION','user defined attribute');
#1076=GENERAL_PROPERTY_ASSOCIATION('user defined attribute','',#1075,#1074);
#1077=DESCRIPTIVE_REPRESENTATION_ITEM('CAD_REVISION','-');
#1081=GENERAL_PROPERTY('','DEPARTMENT','user defined attribute');
#1082=GENERAL_PROPERTY_ASSOCIATION('user defined attribute','',#1081,#1080);
#1083=DESCRIPTIVE_REPRESENTATION_ITEM('DEPARTMENT','DEV');
#1087=GENERAL_PROPERTY('','DESCRIPTION_1_DE','user defined attribute');
#1088=GENERAL_PROPERTY_ASSOCIATION('user defined attribute','',#1087,#1086);
#1089=DESCRIPTIVE_REPRESENTATION_ITEM('DESCRIPTION_1_DE','-');
#1093=GENERAL_PROPERTY('','DESCRIPTION_1_EN','user defined attribute');
#1094=GENERAL_PROPERTY_ASSOCIATION('user defined attribute','',#1093,#1092);
#1095=DESCRIPTIVE_REPRESENTATION_ITEM('DESCRIPTION_1_EN','-');
#1099=GENERAL_PROPERTY('','DESCRIPTION_2_DE','user defined attribute');
#1100=GENERAL_PROPERTY_ASSOCIATION('user defined attribute','',#1099,#1098);
#1101=DESCRIPTIVE_REPRESENTATION_ITEM('DESCRIPTION_2_DE','-');
#1105=GENERAL_PROPERTY('','DESCRIPTION_2_EN','user defined attribute');
#1106=GENERAL_PROPERTY_ASSOCIATION('user defined attribute','',#1105,#1104);
#1107=DESCRIPTIVE_REPRESENTATION_ITEM('DESCRIPTION_2_EN','-');
#1111=GENERAL_PROPERTY('','DRAWING_NO','user defined attribute');
#1112=GENERAL_PROPERTY_ASSOCIATION('user defined attribute','',#1111,#1110);
#1113=DESCRIPTIVE_REPRESENTATION_ITEM('DRAWING_NO','-');
#1117=GENERAL_PROPERTY('','MC_CHECKTYPE','user defined attribute');
#1118=GENERAL_PROPERTY_ASSOCIATION('user defined attribute','',#1117,#1116);
#1119=DESCRIPTIVE_REPRESENTATION_ITEM('MC_CHECKTYPE','SUT_INT_DE');
#1123=GENERAL_PROPERTY('','COATING','user defined attribute');
#1124=GENERAL_PROPERTY_ASSOCIATION('user defined attribute','',#1123,#1122);
#1125=DESCRIPTIVE_REPRESENTATION_ITEM('COATING','-');
#1129=GENERAL_PROPERTY('','COLORING','user defined attribute');
#1130=GENERAL_PROPERTY_ASSOCIATION('user defined attribute','',#1129,#1128);
#1131=DESCRIPTIVE_REPRESENTATION_ITEM('COLORING','-');
#1135=GENERAL_PROPERTY('','DESC_SEMIFINISHED','user defined attribute');
#1136=GENERAL_PROPERTY_ASSOCIATION('user defined attribute','',#1135,#1134);
#1137=DESCRIPTIVE_REPRESENTATION_ITEM('DESC_SEMIFINISHED','-');
#1141=GENERAL_PROPERTY('','DIMENSION','user defined attribute');
#1142=GENERAL_PROPERTY_ASSOCIATION('user defined attribute','',#1141,#1140);
#1143=DESCRIPTIVE_REPRESENTATION_ITEM('DIMENSION','-');
#1147=GENERAL_PROPERTY('','HARDNESS','user defined attribute');
#1148=GENERAL_PROPERTY_ASSOCIATION('user defined attribute','',#1147,#1146);
#1149=DESCRIPTIVE_REPRESENTATION_ITEM('HARDNESS','-');
#1153=GENERAL_PROPERTY('','MASS','user defined attribute');
#1154=GENERAL_PROPERTY_ASSOCIATION('user defined attribute','',#1153,#1152);
#1155=REAL_REPRESENTATION_ITEM('MASS',3.7E-1);
#1159=GENERAL_PROPERTY('','MATERIAL','user defined attribute');
#1160=GENERAL_PROPERTY_ASSOCIATION('user defined attribute','',#1159,#1158);
#1161=DESCRIPTIVE_REPRESENTATION_ITEM('MATERIAL','Stahl allg.');
#1165=GENERAL_PROPERTY('','PART_NO','user defined attribute');
#1166=GENERAL_PROPERTY_ASSOCIATION('user defined attribute','',#1165,#1164);
#1167=DESCRIPTIVE_REPRESENTATION_ITEM('PART_NO','-');
#1171=GENERAL_PROPERTY('','PART_NO_SEMIFINISHED','user defined attribute');
#1172=GENERAL_PROPERTY_ASSOCIATION('user defined attribute','',#1171,#1170);
#1173=DESCRIPTIVE_REPRESENTATION_ITEM('PART_NO_SEMIFINISHED','-');
#1177=GENERAL_PROPERTY('','STANDARD','user defined attribute');
#1178=GENERAL_PROPERTY_ASSOCIATION('user defined attribute','',#1177,#1176);
#1179=DESCRIPTIVE_REPRESENTATION_ITEM('STANDARD','-');
#1183=GENERAL_PROPERTY('','STANDARD_DIMENSION','user defined attribute');
#1184=GENERAL_PROPERTY_ASSOCIATION('user defined attribute','',#1183,#1182);
#1185=DESCRIPTIVE_REPRESENTATION_ITEM('STANDARD_DIMENSION','DIN EN ISO 14405');
#1189=GENERAL_PROPERTY('','STANDARD_EDGE','user defined attribute');
#1190=GENERAL_PROPERTY_ASSOCIATION('user defined attribute','',#1189,#1188);
#1191=DESCRIPTIVE_REPRESENTATION_ITEM('STANDARD_EDGE','ISO 13715');
#1195=GENERAL_PROPERTY('','STANDARD_INFO_DE','user defined attribute');
#1196=GENERAL_PROPERTY_ASSOCIATION('user defined attribute','',#1195,#1194);
#1197=DESCRIPTIVE_REPRESENTATION_ITEM('STANDARD_INFO_DE','-');
#1201=GENERAL_PROPERTY('','STANDARD_INFO_EN','user defined attribute');
#1202=GENERAL_PROPERTY_ASSOCIATION('user defined attribute','',#1201,#1200);
#1203=DESCRIPTIVE_REPRESENTATION_ITEM('STANDARD_INFO_EN','-');
#1207=GENERAL_PROPERTY('','STANDARD_SURFACE','user defined attribute');
#1208=GENERAL_PROPERTY_ASSOCIATION('user defined attribute','',#1207,#1206);
#1209=DESCRIPTIVE_REPRESENTATION_ITEM('STANDARD_SURFACE','ISO 1302');
#1213=GENERAL_PROPERTY('','STANDARD_TOL_CLASS','user defined attribute');
#1214=GENERAL_PROPERTY_ASSOCIATION('user defined attribute','',#1213,#1212);
#1215=DESCRIPTIVE_REPRESENTATION_ITEM('STANDARD_TOL_CLASS','ISO 2768-mK');
#1219=GENERAL_PROPERTY('','SUPPLIER','user defined attribute');
#1220=GENERAL_PROPERTY_ASSOCIATION('user defined attribute','',#1219,#1218);
#1221=DESCRIPTIVE_REPRESENTATION_ITEM('SUPPLIER','-');
#1225=GENERAL_PROPERTY('','CLASSIFICATION','user defined attribute');
#1226=GENERAL_PROPERTY_ASSOCIATION('user defined attribute','',#1225,#1224);
#1227=DESCRIPTIVE_REPRESENTATION_ITEM('CLASSIFICATION','FERTIGUNG');
#1231=GENERAL_PROPERTY('','CATEGORY','user defined attribute');
#1232=GENERAL_PROPERTY_ASSOCIATION('user defined attribute','',#1231,#1230);
#1233=INTEGER_REPRESENTATION_ITEM('CATEGORY',1);
#1237=GENERAL_PROPERTY('','PROJECT','user defined attribute');
#1238=GENERAL_PROPERTY_ASSOCIATION('user defined attribute','',#1237,#1236);
#1239=DESCRIPTIVE_REPRESENTATION_ITEM('PROJECT','-');
#1243=GENERAL_PROPERTY('','PROJECT_NO','user defined attribute');
#1244=GENERAL_PROPERTY_ASSOCIATION('user defined attribute','',#1243,#1242);
#1245=DESCRIPTIVE_REPRESENTATION_ITEM('PROJECT_NO','-');
#1249=GENERAL_PROPERTY('','ORDER_CODE','user defined attribute');
#1250=GENERAL_PROPERTY_ASSOCIATION('user defined attribute','',#1249,#1248);
#1251=DESCRIPTIVE_REPRESENTATION_ITEM('ORDER_CODE','-');
#1255=GENERAL_PROPERTY('','STANDARD_WELDING','user defined attribute');
#1256=GENERAL_PROPERTY_ASSOCIATION('user defined attribute','',#1255,#1254);
#1257=DESCRIPTIVE_REPRESENTATION_ITEM('STANDARD_WELDING','ISO 9692');
#1261=GENERAL_PROPERTY('','CUSTOMER','user defined attribute');
#1262=GENERAL_PROPERTY_ASSOCIATION('user defined attribute','',#1261,#1260);
#1263=DESCRIPTIVE_REPRESENTATION_ITEM('CUSTOMER','-');
#1267=GENERAL_PROPERTY('','HEAT_TREATMENT','user defined attribute');
#1268=GENERAL_PROPERTY_ASSOCIATION('user defined attribute','',#1267,#1266);
#1269=DESCRIPTIVE_REPRESENTATION_ITEM('HEAT_TREATMENT','-');
#1273=GENERAL_PROPERTY('','PTC_COMMON_NAME','user defined attribute');
#1274=GENERAL_PROPERTY_ASSOCIATION('user defined attribute','',#1273,#1272);
#1275=DESCRIPTIVE_REPRESENTATION_ITEM('PTC_COMMON_NAME',
'deckel_platinenbox_1.prt');
#1279=GENERAL_PROPERTY('','PTC_MASTER_MATERIAL','user defined attribute');
#1280=GENERAL_PROPERTY_ASSOCIATION('user defined attribute','',#1279,#1278);
#1281=DESCRIPTIVE_REPRESENTATION_ITEM('PTC_MASTER_MATERIAL','STAHL_ALLGEMEIN');
#1=COLOUR_RGB('',0.E0,7.450980392157E-1,9.215686274510E-1);
#2=DRAUGHTING_PRE_DEFINED_COLOUR('green');
#3=COLOUR_RGB('',1.1E-2,1.2E-2,1.E0);
#4=COLOUR_RGB('',2.156862745098E-1,0.E0,3.725490196078E-1);
#5=COLOUR_RGB('',4.1E-1,2.61589E-1,1.12848E-1);
#6=COLOUR_RGB('',4.705882352941E-1,3.137254901961E-1,3.333333333333E-1);
#7=COLOUR_RGB('',5.04854E-1,1.5455E-2,1.5455E-2);
#8=COLOUR_RGB('',6.35294E-1,6.86275E-1,7.4902E-1);
#9=COLOUR_RGB('',6.40777E-1,6.40777E-1,6.40777E-1);
#10=COLOUR_RGB('',6.69062E-1,6.69903E-1,6.55217E-1);
#11=COLOUR_RGB('',9.21569E-1,7.05882E-1,4.70588E-1);
#12=DRAUGHTING_PRE_DEFINED_COLOUR('red');
#13=DRAUGHTING_PRE_DEFINED_COLOUR('yellow');
#14=COLOUR_RGB('',1.E0,1.E0,5.3E-1);
#15=COLOUR_RGB('',1.E0,1.E0,9.49E-1);
#16=DRAUGHTING_PRE_DEFINED_COLOUR('white');
#45=CIRCLE('609',#44,1.6E0);
#50=CIRCLE('486',#49,1.6E0);
#55=CIRCLE('610',#54,1.6E0);
#72=CIRCLE('612',#71,1.6E0);
#77=CIRCLE('489',#76,1.6E0);
#82=CIRCLE('611',#81,1.6E0);
#203=CIRCLE('256',#202,1.6E0);
#208=CIRCLE('257',#207,1.6E0);
#213=CIRCLE('287',#212,1.6E0);
#218=CIRCLE('288',#217,1.6E0);
#288=EDGE_CURVE('194',#229,#230,#20,.T.);
#290=EDGE_CURVE('199',#230,#222,#24,.T.);
#292=EDGE_CURVE('107',#221,#222,#28,.T.);
#294=EDGE_CURVE('198',#221,#229,#32,.T.);
#298=EDGE_CURVE('608',#249,#255,#36,.T.);
#300=EDGE_CURVE('591',#255,#256,#40,.T.);
#302=EDGE_CURVE('609',#237,#256,#45,.T.);
#304=EDGE_CURVE('486',#240,#237,#50,.T.);
#306=EDGE_CURVE('610',#256,#240,#55,.T.);
#308=EDGE_CURVE('592',#256,#258,#59,.T.);
#310=EDGE_CURVE('607',#258,#252,#63,.T.);
#312=EDGE_CURVE('590',#250,#252,#67,.T.);
#314=EDGE_CURVE('612',#250,#246,#72,.T.);
#316=EDGE_CURVE('489',#246,#243,#77,.T.);
#318=EDGE_CURVE('611',#243,#250,#82,.T.);
#320=EDGE_CURVE('589',#249,#250,#86,.T.);
#324=ADVANCED_FACE('57',(#297,#323),#287,.F.);
#331=EDGE_CURVE('196',#229,#233,#90,.T.);
#333=EDGE_CURVE('195',#233,#234,#106,.T.);
#335=EDGE_CURVE('197',#230,#234,#98,.T.);
#339=ADVANCED_FACE('183',(#338),#329,.T.);
#347=EDGE_CURVE('109',#221,#225,#94,.T.);
#349=EDGE_CURVE('200',#225,#233,#110,.T.);
#353=ADVANCED_FACE('69',(#352),#344,.T.);
#360=EDGE_CURVE('110',#222,#226,#102,.T.);
#362=EDGE_CURVE('108',#225,#226,#114,.T.);
#367=ADVANCED_FACE('103',(#366),#358,.F.);
#374=EDGE_CURVE('201',#234,#226,#118,.T.);
#380=ADVANCED_FACE('73',(#379),#372,.T.);
#392=EDGE_CURVE('643',#269,#270,#122,.T.);
#394=EDGE_CURVE('679',#274,#269,#126,.T.);
#396=EDGE_CURVE('659',#273,#274,#130,.T.);
#398=EDGE_CURVE('678',#273,#270,#134,.T.);
#402=ADVANCED_FACE('62',(#391,#401),#385,.T.);
#409=EDGE_CURVE('680',#270,#277,#138,.T.);
#411=EDGE_CURVE('666',#277,#278,#142,.T.);
#413=EDGE_CURVE('681',#278,#269,#146,.T.);
#417=ADVANCED_FACE('633',(#416),#407,.F.);
#424=EDGE_CURVE('682',#273,#281,#158,.T.);
#426=EDGE_CURVE('674',#277,#281,#166,.T.);
#431=ADVANCED_FACE('671',(#430),#422,.F.);
#438=EDGE_CURVE('683',#282,#274,#150,.T.);
#440=EDGE_CURVE('669',#281,#282,#154,.T.);
#445=ADVANCED_FACE('636',(#444),#436,.T.);
#453=EDGE_CURVE('676',#278,#282,#162,.T.);
#458=ADVANCED_FACE('675',(#457),#450,.F.);
#470=ADVANCED_FACE('673',(#469),#463,.F.);
#476=EDGE_CURVE('603',#262,#249,#170,.T.);
#478=EDGE_CURVE('606',#262,#266,#198,.T.);
#480=EDGE_CURVE('604',#255,#266,#174,.T.);
#485=ADVANCED_FACE('523',(#484),#475,.F.);
#493=EDGE_CURVE('601',#261,#252,#178,.T.);
#495=EDGE_CURVE('599',#261,#262,#186,.T.);
#500=ADVANCED_FACE('581',(#499),#490,.T.);
#508=EDGE_CURVE('602',#258,#265,#182,.T.);
#510=EDGE_CURVE('605',#265,#261,#190,.T.);
#514=ADVANCED_FACE('519',(#513),#505,.F.);
#522=EDGE_CURVE('600',#265,#266,#194,.T.);
#528=ADVANCED_FACE('583',(#527),#519,.T.);
#540=ADVANCED_FACE('509',(#539),#533,.T.);
#548=EDGE_CURVE('257',#240,#238,#208,.T.);
#550=EDGE_CURVE('256',#237,#238,#203,.T.);
#554=ADVANCED_FACE('238',(#553),#545,.F.);
#565=ADVANCED_FACE('248',(#564),#559,.F.);
#572=EDGE_CURVE('287',#243,#244,#213,.T.);
#574=EDGE_CURVE('288',#246,#244,#218,.T.);
#579=ADVANCED_FACE('269',(#578),#570,.F.);
#590=ADVANCED_FACE('273',(#589),#584,.F.);
#591=CLOSED_SHELL('',(#324,#339,#353,#367,#380,#402,#417,#431,#445,#458,#470,
#485,#500,#514,#528,#540,#554,#565,#579,#590));
#592=MANIFOLD_SOLID_BREP('',#591);
#620=TRIMMED_CURVE('A_PRT_X',#619,(PARAMETER_VALUE(0.E0)),(PARAMETER_VALUE
(1.E0)),.T.,.UNSPECIFIED.);
#628=TRIMMED_CURVE('49',#627,(PARAMETER_VALUE(0.E0)),(PARAMETER_VALUE(1.E0)),
.T.,.UNSPECIFIED.);
#632=COMPOSITE_CURVE_SEGMENT(.CONTINUOUS.,.T.,#628);
#637=TRIMMED_CURVE('50',#636,(PARAMETER_VALUE(0.E0)),(PARAMETER_VALUE(1.E0)),
.T.,.UNSPECIFIED.);
#641=COMPOSITE_CURVE_SEGMENT(.CONTINUOUS.,.T.,#637);
#646=TRIMMED_CURVE('51',#645,(PARAMETER_VALUE(0.E0)),(PARAMETER_VALUE(1.E0)),
.T.,.UNSPECIFIED.);
#650=COMPOSITE_CURVE_SEGMENT(.CONTINUOUS.,.T.,#646);
#655=TRIMMED_CURVE('52',#654,(PARAMETER_VALUE(0.E0)),(PARAMETER_VALUE(1.E0)),
.T.,.UNSPECIFIED.);
#659=COMPOSITE_CURVE_SEGMENT(.CONTINUOUS.,.T.,#655);
#660=COMPOSITE_CURVE('48',(#632,#641,#650,#659),.F.);
#666=TRIMMED_CURVE('87',#665,(PARAMETER_VALUE(0.E0)),(PARAMETER_VALUE(1.E0)),
.T.,.UNSPECIFIED.);
#670=COMPOSITE_CURVE_SEGMENT(.CONTINUOUS.,.T.,#666);
#675=TRIMMED_CURVE('88',#674,(PARAMETER_VALUE(0.E0)),(PARAMETER_VALUE(1.E0)),
.T.,.UNSPECIFIED.);
#679=COMPOSITE_CURVE_SEGMENT(.CONTINUOUS.,.T.,#675);
#684=TRIMMED_CURVE('89',#683,(PARAMETER_VALUE(0.E0)),(PARAMETER_VALUE(1.E0)),
.T.,.UNSPECIFIED.);
#688=COMPOSITE_CURVE_SEGMENT(.CONTINUOUS.,.T.,#684);
#689=COMPOSITE_CURVE('86',(#670,#679,#688),.F.);
#699=TRIMMED_CURVE('A_1',#698,(PARAMETER_VALUE(0.E0)),(PARAMETER_VALUE(1.E0)),
.T.,.UNSPECIFIED.);
#712=CIRCLE('227',#711,1.6E0);
#713=TRIMMED_CURVE('227',#712,(PARAMETER_VALUE(0.E0)),(PARAMETER_VALUE(1.8E2)),
.T.,.UNSPECIFIED.);
#717=COMPOSITE_CURVE_SEGMENT(.CONTINUOUS.,.T.,#713);
#722=TRIMMED_CURVE('228',#721,(PARAMETER_VALUE(0.E0)),(PARAMETER_VALUE(1.E0)),
.T.,.UNSPECIFIED.);
#726=COMPOSITE_CURVE_SEGMENT(.CONTINUOUS.,.T.,#722);
#727=COMPOSITE_CURVE('226',(#717,#726),.F.);
#732=TRIMMED_CURVE('A_3',#731,(PARAMETER_VALUE(0.E0)),(PARAMETER_VALUE(1.E0)),
.T.,.UNSPECIFIED.);
#740=TRIMMED_CURVE('495',#739,(PARAMETER_VALUE(0.E0)),(PARAMETER_VALUE(1.E0)),
.T.,.UNSPECIFIED.);
#744=COMPOSITE_CURVE_SEGMENT(.CONTINUOUS.,.T.,#740);
#749=TRIMMED_CURVE('496',#748,(PARAMETER_VALUE(0.E0)),(PARAMETER_VALUE(1.E0)),
.T.,.UNSPECIFIED.);
#753=COMPOSITE_CURVE_SEGMENT(.CONTINUOUS.,.T.,#749);
#758=TRIMMED_CURVE('497',#757,(PARAMETER_VALUE(0.E0)),(PARAMETER_VALUE(1.E0)),
.T.,.UNSPECIFIED.);
#762=COMPOSITE_CURVE_SEGMENT(.CONTINUOUS.,.T.,#758);
#767=TRIMMED_CURVE('498',#766,(PARAMETER_VALUE(0.E0)),(PARAMETER_VALUE(1.E0)),
.T.,.UNSPECIFIED.);
#771=COMPOSITE_CURVE_SEGMENT(.CONTINUOUS.,.T.,#767);
#776=TRIMMED_CURVE('499',#775,(PARAMETER_VALUE(0.E0)),(PARAMETER_VALUE(1.E0)),
.T.,.UNSPECIFIED.);
#780=COMPOSITE_CURVE_SEGMENT(.CONTINUOUS.,.T.,#776);
#781=COMPOSITE_CURVE('494',(#744,#753,#762,#771,#780),.F.);
#786=TRIMMED_CURVE('554',#785,(PARAMETER_VALUE(0.E0)),(PARAMETER_VALUE(1.E0)),
.T.,.UNSPECIFIED.);
#790=COMPOSITE_CURVE_SEGMENT(.CONTINUOUS.,.T.,#786);
#795=TRIMMED_CURVE('555',#794,(PARAMETER_VALUE(0.E0)),(PARAMETER_VALUE(1.E0)),
.T.,.UNSPECIFIED.);
#799=COMPOSITE_CURVE_SEGMENT(.CONTINUOUS.,.T.,#795);
#804=TRIMMED_CURVE('556',#803,(PARAMETER_VALUE(0.E0)),(PARAMETER_VALUE(1.E0)),
.T.,.UNSPECIFIED.);
#808=COMPOSITE_CURVE_SEGMENT(.CONTINUOUS.,.T.,#804);
#809=COMPOSITE_CURVE('552',(#790,#799,#808),.F.);
#814=TRIMMED_CURVE('557',#813,(PARAMETER_VALUE(0.E0)),(PARAMETER_VALUE(1.E0)),
.T.,.UNSPECIFIED.);
#818=COMPOSITE_CURVE_SEGMENT(.CONTINUOUS.,.T.,#814);
#823=TRIMMED_CURVE('558',#822,(PARAMETER_VALUE(0.E0)),(PARAMETER_VALUE(1.E0)),
.T.,.UNSPECIFIED.);
#827=COMPOSITE_CURVE_SEGMENT(.CONTINUOUS.,.T.,#823);
#832=TRIMMED_CURVE('559',#831,(PARAMETER_VALUE(0.E0)),(PARAMETER_VALUE(1.E0)),
.T.,.UNSPECIFIED.);
#836=COMPOSITE_CURVE_SEGMENT(.CONTINUOUS.,.T.,#832);
#837=COMPOSITE_CURVE('553',(#818,#827,#836),.F.);
#847=TRIMMED_CURVE('662',#846,(PARAMETER_VALUE(0.E0)),(PARAMETER_VALUE(1.E0)),
.T.,.UNSPECIFIED.);
#851=COMPOSITE_CURVE_SEGMENT(.CONTINUOUS.,.T.,#847);
#856=TRIMMED_CURVE('663',#855,(PARAMETER_VALUE(0.E0)),(PARAMETER_VALUE(1.E0)),
.T.,.UNSPECIFIED.);
#860=COMPOSITE_CURVE_SEGMENT(.CONTINUOUS.,.T.,#856);
#865=TRIMMED_CURVE('664',#864,(PARAMETER_VALUE(0.E0)),(PARAMETER_VALUE(1.E0)),
.T.,.UNSPECIFIED.);
#869=COMPOSITE_CURVE_SEGMENT(.CONTINUOUS.,.T.,#865);
#874=TRIMMED_CURVE('629',#873,(PARAMETER_VALUE(0.E0)),(PARAMETER_VALUE(1.E0)),
.T.,.UNSPECIFIED.);
#878=COMPOSITE_CURVE_SEGMENT(.CONTINUOUS.,.T.,#874);
#879=COMPOSITE_CURVE('627',(#851,#860,#869,#878),.F.);
#887=(LENGTH_UNIT()NAMED_UNIT(*)SI_UNIT(.MILLI.,.METRE.));
#888=(NAMED_UNIT(*)PLANE_ANGLE_UNIT()SI_UNIT($,.RADIAN.));
#891=(NAMED_UNIT(*)SI_UNIT($,.STERADIAN.)SOLID_ANGLE_UNIT());
#893=(GEOMETRIC_REPRESENTATION_CONTEXT(3)GLOBAL_UNCERTAINTY_ASSIGNED_CONTEXT((
#892))GLOBAL_UNIT_ASSIGNED_CONTEXT((#887,#890,#891))REPRESENTATION_CONTEXT
('ID1','3'));
#894=ADVANCED_BREP_SHAPE_REPRESENTATION('',(#592),#893);
#895=GEOMETRICALLY_BOUNDED_WIREFRAME_SHAPE_REPRESENTATION('',(#661),#893);
#896=CONSTRUCTIVE_GEOMETRY_REPRESENTATION('supplemental geometry',(#597,#602,
#607,#611,#620,#694,#699,#707,#732,#842),#893);
#900=AXIS2_PLACEMENT_3D('',#897,#898,#899);
#901=SHAPE_REPRESENTATION('',(#900),#893);
#912=PRODUCT_DEFINITION('design','',#911,#908);
#913=PRODUCT_DEFINITION_SHAPE('','SHAPE FOR ELECTRONICS_ENCLOSURE_COVER.',#912);
#914=SHAPE_ASPECT('','solid data associated with ELECTRONICS_ENCLOSURE_COVER',
#913,.F.);
#915=PROPERTY_DEFINITION('',
'shape for solid data with which properties are associated',#914);
#916=SHAPE_REPRESENTATION('',(#592),#893);
#917=SHAPE_DEFINITION_REPRESENTATION(#915,#916);
#918=(LENGTH_UNIT()NAMED_UNIT(*)SI_UNIT(.MILLI.,.METRE.));
#920=(MASS_UNIT()NAMED_UNIT(*)SI_UNIT(.KILO.,.GRAM.));
#924=PROPERTY_DEFINITION('material_property','density',#914);
#925=REPRESENTATION('density',(#923),#893);
#926=PROPERTY_DEFINITION_REPRESENTATION(#924,#925);
#928=PROPERTY_DEFINITION('material property','material name',#914);
#929=REPRESENTATION('material name',(#927),#893);
#930=PROPERTY_DEFINITION_REPRESENTATION(#928,#929);
#931=SHAPE_ASPECT('','solid data associated with ELECTRONICS_ENCLOSURE_COVER',
#913,.F.);
#932=PROPERTY_DEFINITION('',
'shape for solid data with which properties are associated',#931);
#933=SHAPE_REPRESENTATION('',(#592),#893);
#934=SHAPE_DEFINITION_REPRESENTATION(#932,#933);
#935=(LENGTH_UNIT()NAMED_UNIT(*)SI_UNIT(.MILLI.,.METRE.));
#939=PROPERTY_DEFINITION('geometric validation property',
'area of ELECTRONICS_ENCLOSURE_COVER',#931);
#940=REPRESENTATION('surface area',(#938),#893);
#941=PROPERTY_DEFINITION_REPRESENTATION(#939,#940);
#942=(LENGTH_UNIT()NAMED_UNIT(*)SI_UNIT(.MILLI.,.METRE.));
#946=PROPERTY_DEFINITION('geometric validation property',
'volume of ELECTRONICS_ENCLOSURE_COVER',#931);
#947=REPRESENTATION('volume',(#945),#893);
#948=PROPERTY_DEFINITION_REPRESENTATION(#946,#947);
#950=PROPERTY_DEFINITION('geometric validation property',
'centroid of ELECTRONICS_ENCLOSURE_COVER',#931);
#951=REPRESENTATION('centroid',(#949),#893);
#952=PROPERTY_DEFINITION_REPRESENTATION(#950,#951);
#953=(LENGTH_UNIT()NAMED_UNIT(*)SI_UNIT(.MILLI.,.METRE.));
#957=PROPERTY_DEFINITION('geometric validation property',
'area of ELECTRONICS_ENCLOSURE_COVER',#913);
#958=REPRESENTATION('surface area',(#956),#893);
#959=PROPERTY_DEFINITION_REPRESENTATION(#957,#958);
#960=(LENGTH_UNIT()NAMED_UNIT(*)SI_UNIT(.MILLI.,.METRE.));
#964=PROPERTY_DEFINITION('geometric validation property',
'volume of ELECTRONICS_ENCLOSURE_COVER',#913);
#965=REPRESENTATION('volume',(#963),#893);
#966=PROPERTY_DEFINITION_REPRESENTATION(#964,#965);
#968=PROPERTY_DEFINITION('geometric validation property',
'centroid of ELECTRONICS_ENCLOSURE_COVER',#913);
#969=REPRESENTATION('centroid',(#967),#893);
#970=PROPERTY_DEFINITION_REPRESENTATION(#968,#969);
#974=PRODUCT_DEFINITION('design','',#973,#908);
#975=MAKE_FROM_USAGE_OPTION(
'Assign material STAHL_ALLGEMEIN to ELECTRONICS_ENCLOSURE_COVER','make from','',
#912,#974,1,'',#978);
#979=(LENGTH_UNIT()NAMED_UNIT(*)SI_UNIT(.MILLI.,.METRE.));
#981=(MASS_UNIT()NAMED_UNIT(*)SI_UNIT(.KILO.,.GRAM.));
#985=PROPERTY_DEFINITION('material_property','density',#974);
#986=REPRESENTATION('density',(#984),#893);
#987=PROPERTY_DEFINITION_REPRESENTATION(#985,#986);
#988=SHAPE_DEFINITION_REPRESENTATION(#913,#901);
#1013=PLANAR_BOX('',1.317295832444E2,1.111468358625E2,#1012);
#1020=PROPERTY_DEFINITION('CAD_APPROVED_BY','user defined attribute',#974);
#1024=REPRESENTATION('',(#1023),#893);
#1025=PROPERTY_DEFINITION_REPRESENTATION(#1020,#1024);
#1026=PROPERTY_DEFINITION('CAD_APPROVED_ON','user defined attribute',#974);
#1030=REPRESENTATION('',(#1029),#893);
#1031=PROPERTY_DEFINITION_REPRESENTATION(#1026,#1030);
#1032=PROPERTY_DEFINITION('CAD_CHANGE_NO','user defined attribute',#974);
#1036=REPRESENTATION('',(#1035),#893);
#1037=PROPERTY_DEFINITION_REPRESENTATION(#1032,#1036);
#1038=PROPERTY_DEFINITION('CAD_CHANGE_TEXT','user defined attribute',#974);
#1042=REPRESENTATION('',(#1041),#893);
#1043=PROPERTY_DEFINITION_REPRESENTATION(#1038,#1042);
#1044=PROPERTY_DEFINITION('CAD_CREATED_BY','user defined attribute',#974);
#1048=REPRESENTATION('',(#1047),#893);
#1049=PROPERTY_DEFINITION_REPRESENTATION(#1044,#1048);
#1050=PROPERTY_DEFINITION('CAD_CREATED_ON','user defined attribute',#974);
#1054=REPRESENTATION('',(#1053),#893);
#1055=PROPERTY_DEFINITION_REPRESENTATION(#1050,#1054);
#1056=PROPERTY_DEFINITION('CAD_LIFECYCLE_STATE','user defined attribute',#974);
#1060=REPRESENTATION('',(#1059),#893);
#1061=PROPERTY_DEFINITION_REPRESENTATION(#1056,#1060);
#1062=PROPERTY_DEFINITION('CAD_MODIFIED_BY','user defined attribute',#974);
#1066=REPRESENTATION('',(#1065),#893);
#1067=PROPERTY_DEFINITION_REPRESENTATION(#1062,#1066);
#1068=PROPERTY_DEFINITION('CAD_MODIFIED_ON','user defined attribute',#974);
#1072=REPRESENTATION('',(#1071),#893);
#1073=PROPERTY_DEFINITION_REPRESENTATION(#1068,#1072);
#1074=PROPERTY_DEFINITION('CAD_REVISION','user defined attribute',#974);
#1078=REPRESENTATION('',(#1077),#893);
#1079=PROPERTY_DEFINITION_REPRESENTATION(#1074,#1078);
#1080=PROPERTY_DEFINITION('DEPARTMENT','user defined attribute',#974);
#1084=REPRESENTATION('',(#1083),#893);
#1085=PROPERTY_DEFINITION_REPRESENTATION(#1080,#1084);
#1086=PROPERTY_DEFINITION('DESCRIPTION_1_DE','user defined attribute',#974);
#1090=REPRESENTATION('',(#1089),#893);
#1091=PROPERTY_DEFINITION_REPRESENTATION(#1086,#1090);
#1092=PROPERTY_DEFINITION('DESCRIPTION_1_EN','user defined attribute',#974);
#1096=REPRESENTATION('',(#1095),#893);
#1097=PROPERTY_DEFINITION_REPRESENTATION(#1092,#1096);
#1098=PROPERTY_DEFINITION('DESCRIPTION_2_DE','user defined attribute',#974);
#1102=REPRESENTATION('',(#1101),#893);
#1103=PROPERTY_DEFINITION_REPRESENTATION(#1098,#1102);
#1104=PROPERTY_DEFINITION('DESCRIPTION_2_EN','user defined attribute',#974);
#1108=REPRESENTATION('',(#1107),#893);
#1109=PROPERTY_DEFINITION_REPRESENTATION(#1104,#1108);
#1110=PROPERTY_DEFINITION('DRAWING_NO','user defined attribute',#974);
#1114=REPRESENTATION('',(#1113),#893);
#1115=PROPERTY_DEFINITION_REPRESENTATION(#1110,#1114);
#1116=PROPERTY_DEFINITION('MC_CHECKTYPE','user defined attribute',#974);
#1120=REPRESENTATION('',(#1119),#893);
#1121=PROPERTY_DEFINITION_REPRESENTATION(#1116,#1120);
#1122=PROPERTY_DEFINITION('COATING','user defined attribute',#974);
#1126=REPRESENTATION('',(#1125),#893);
#1127=PROPERTY_DEFINITION_REPRESENTATION(#1122,#1126);
#1128=PROPERTY_DEFINITION('COLORING','user defined attribute',#974);
#1132=REPRESENTATION('',(#1131),#893);
#1133=PROPERTY_DEFINITION_REPRESENTATION(#1128,#1132);
#1134=PROPERTY_DEFINITION('DESC_SEMIFINISHED','user defined attribute',#974);
#1138=REPRESENTATION('',(#1137),#893);
#1139=PROPERTY_DEFINITION_REPRESENTATION(#1134,#1138);
#1140=PROPERTY_DEFINITION('DIMENSION','user defined attribute',#974);
#1144=REPRESENTATION('',(#1143),#893);
#1145=PROPERTY_DEFINITION_REPRESENTATION(#1140,#1144);
#1146=PROPERTY_DEFINITION('HARDNESS','user defined attribute',#974);
#1150=REPRESENTATION('',(#1149),#893);
#1151=PROPERTY_DEFINITION_REPRESENTATION(#1146,#1150);
#1152=PROPERTY_DEFINITION('MASS','user defined attribute',#974);
#1156=REPRESENTATION('',(#1155),#893);
#1157=PROPERTY_DEFINITION_REPRESENTATION(#1152,#1156);
#1158=PROPERTY_DEFINITION('MATERIAL','user defined attribute',#974);
#1162=REPRESENTATION('',(#1161),#893);
#1163=PROPERTY_DEFINITION_REPRESENTATION(#1158,#1162);
#1164=PROPERTY_DEFINITION('PART_NO','user defined attribute',#974);
#1168=REPRESENTATION('',(#1167),#893);
#1169=PROPERTY_DEFINITION_REPRESENTATION(#1164,#1168);
#1170=PROPERTY_DEFINITION('PART_NO_SEMIFINISHED','user defined attribute',#974);
#1174=REPRESENTATION('',(#1173),#893);
#1175=PROPERTY_DEFINITION_REPRESENTATION(#1170,#1174);
#1176=PROPERTY_DEFINITION('STANDARD','user defined attribute',#974);
#1180=REPRESENTATION('',(#1179),#893);
#1181=PROPERTY_DEFINITION_REPRESENTATION(#1176,#1180);
#1182=PROPERTY_DEFINITION('STANDARD_DIMENSION','user defined attribute',#974);
#1186=REPRESENTATION('',(#1185),#893);
#1187=PROPERTY_DEFINITION_REPRESENTATION(#1182,#1186);
#1188=PROPERTY_DEFINITION('STANDARD_EDGE','user defined attribute',#974);
#1192=REPRESENTATION('',(#1191),#893);
#1193=PROPERTY_DEFINITION_REPRESENTATION(#1188,#1192);
#1194=PROPERTY_DEFINITION('STANDARD_INFO_DE','user defined attribute',#974);
#1198=REPRESENTATION('',(#1197),#893);
#1199=PROPERTY_DEFINITION_REPRESENTATION(#1194,#1198);
#1200=PROPERTY_DEFINITION('STANDARD_INFO_EN','user defined attribute',#974);
#1204=REPRESENTATION('',(#1203),#893);
#1205=PROPERTY_DEFINITION_REPRESENTATION(#1200,#1204);
#1206=PROPERTY_DEFINITION('STANDARD_SURFACE','user defined attribute',#974);
#1210=REPRESENTATION('',(#1209),#893);
#1211=PROPERTY_DEFINITION_REPRESENTATION(#1206,#1210);
#1212=PROPERTY_DEFINITION('STANDARD_TOL_CLASS','user defined attribute',#974);
#1216=REPRESENTATION('',(#1215),#893);
#1217=PROPERTY_DEFINITION_REPRESENTATION(#1212,#1216);
#1218=PROPERTY_DEFINITION('SUPPLIER','user defined attribute',#974);
#1222=REPRESENTATION('',(#1221),#893);
#1223=PROPERTY_DEFINITION_REPRESENTATION(#1218,#1222);
#1224=PROPERTY_DEFINITION('CLASSIFICATION','user defined attribute',#974);
#1228=REPRESENTATION('',(#1227),#893);
#1229=PROPERTY_DEFINITION_REPRESENTATION(#1224,#1228);
#1230=PROPERTY_DEFINITION('CATEGORY','user defined attribute',#974);
#1234=REPRESENTATION('',(#1233),#893);
#1235=PROPERTY_DEFINITION_REPRESENTATION(#1230,#1234);
#1236=PROPERTY_DEFINITION('PROJECT','user defined attribute',#974);
#1240=REPRESENTATION('',(#1239),#893);
#1241=PROPERTY_DEFINITION_REPRESENTATION(#1236,#1240);
#1242=PROPERTY_DEFINITION('PROJECT_NO','user defined attribute',#974);
#1246=REPRESENTATION('',(#1245),#893);
#1247=PROPERTY_DEFINITION_REPRESENTATION(#1242,#1246);
#1248=PROPERTY_DEFINITION('ORDER_CODE','user defined attribute',#974);
#1252=REPRESENTATION('',(#1251),#893);
#1253=PROPERTY_DEFINITION_REPRESENTATION(#1248,#1252);
#1254=PROPERTY_DEFINITION('STANDARD_WELDING','user defined attribute',#974);
#1258=REPRESENTATION('',(#1257),#893);
#1259=PROPERTY_DEFINITION_REPRESENTATION(#1254,#1258);
#1260=PROPERTY_DEFINITION('CUSTOMER','user defined attribute',#974);
#1264=REPRESENTATION('',(#1263),#893);
#1265=PROPERTY_DEFINITION_REPRESENTATION(#1260,#1264);
#1266=PROPERTY_DEFINITION('HEAT_TREATMENT','user defined attribute',#974);
#1270=REPRESENTATION('',(#1269),#893);
#1271=PROPERTY_DEFINITION_REPRESENTATION(#1266,#1270);
#1272=PROPERTY_DEFINITION('PTC_COMMON_NAME','user defined attribute',#974);
#1276=REPRESENTATION('',(#1275),#893);
#1277=PROPERTY_DEFINITION_REPRESENTATION(#1272,#1276);
#1278=PROPERTY_DEFINITION('PTC_MASTER_MATERIAL','user defined attribute',#974);
#1282=REPRESENTATION('',(#1281),#893);
#1283=PROPERTY_DEFINITION_REPRESENTATION(#1278,#1282);
ENDSEC;
END-ISO-10303-21;
