ISO-10303-21;
HEADER;
FILE_DESCRIPTION((''),'2;1');
FILE_NAME('IMMERSION_HEATER_MOUNT','2026-07-21T16:19:20',('morit'),(''),
'CREO PARAMETRIC BY PTC INC, 2025123','CREO PARAMETRIC BY PTC INC, 2025123','');
FILE_SCHEMA((
'AP242_MANAGED_MODEL_BASED_3D_ENGINEERING_MIM_LF { 1 0 10303 442 1 1 4 }'));
ENDSEC;
DATA;
#17=CARTESIAN_POINT('',(1.2E1,2.45E1,5.E0));
#18=DIRECTION('',(0.E0,0.E0,1.E0));
#19=DIRECTION('',(1.E0,0.E0,0.E0));
#20=AXIS2_PLACEMENT_3D('',#17,#18,#19);
#22=DIRECTION('',(0.E0,-1.E0,0.E0));
#23=VECTOR('',#22,4.5E0);
#24=CARTESIAN_POINT('',(1.25E1,2.45E1,5.E0));
#25=LINE('579',#24,#23);
#26=DIRECTION('',(1.E0,0.E0,0.E0));
#27=VECTOR('',#26,1.E0);
#28=CARTESIAN_POINT('',(1.25E1,2.E1,5.E0));
#29=LINE('527',#28,#27);
#30=DIRECTION('',(0.E0,-1.E0,0.E0));
#31=VECTOR('',#30,4.5E0);
#32=CARTESIAN_POINT('',(1.35E1,2.45E1,5.E0));
#33=LINE('617',#32,#31);
#34=CARTESIAN_POINT('',(1.4E1,2.45E1,5.E0));
#35=DIRECTION('',(0.E0,0.E0,1.E0));
#36=DIRECTION('',(0.E0,1.E0,0.E0));
#37=AXIS2_PLACEMENT_3D('',#34,#35,#36);
#39=DIRECTION('',(-1.E0,0.E0,0.E0));
#40=VECTOR('',#39,1.2E1);
#41=CARTESIAN_POINT('',(2.6E1,2.5E1,5.E0));
#42=LINE('619',#41,#40);
#43=DIRECTION('',(0.E0,1.E0,0.E0));
#44=VECTOR('',#43,2.E1);
#45=CARTESIAN_POINT('',(2.6E1,5.E0,5.E0));
#46=LINE('64',#45,#44);
#47=DIRECTION('',(-1.E0,0.E0,0.E0));
#48=VECTOR('',#47,1.E1);
#49=CARTESIAN_POINT('',(3.6E1,5.E0,5.E0));
#50=LINE('365',#49,#48);
#51=DIRECTION('',(0.E0,1.E0,0.E0));
#52=VECTOR('',#51,5.E0);
#53=CARTESIAN_POINT('',(3.6E1,0.E0,5.E0));
#54=LINE('364',#53,#52);
#55=DIRECTION('',(0.E0,-1.E0,0.E0));
#56=VECTOR('',#55,5.E0);
#57=CARTESIAN_POINT('',(-1.E1,5.E0,5.E0));
#58=LINE('367',#57,#56);
#59=DIRECTION('',(-1.E0,0.E0,0.E0));
#60=VECTOR('',#59,1.E1);
#61=CARTESIAN_POINT('',(1.467902612904E-14,5.E0,5.E0));
#62=LINE('366',#61,#60);
#63=DIRECTION('',(0.E0,-1.E0,0.E0));
#64=VECTOR('',#63,2.E1);
#65=CARTESIAN_POINT('',(0.E0,2.5E1,5.E0));
#66=LINE('66',#65,#64);
#67=DIRECTION('',(-1.E0,0.E0,0.E0));
#68=VECTOR('',#67,1.2E1);
#69=CARTESIAN_POINT('',(1.2E1,2.5E1,5.E0));
#70=LINE('581',#69,#68);
#71=CARTESIAN_POINT('',(1.2E1,2.45E1,3.65E0));
#72=DIRECTION('',(0.E0,0.E0,-1.E0));
#73=DIRECTION('',(0.E0,1.E0,0.E0));
#74=AXIS2_PLACEMENT_3D('',#71,#72,#73);
#76=DIRECTION('',(0.E0,-1.E0,0.E0));
#77=VECTOR('',#76,1.13E1);
#78=CARTESIAN_POINT('',(9.E0,2.5E1,3.65E0));
#79=LINE('487',#78,#77);
#80=CARTESIAN_POINT('',(1.4E1,2.45E1,3.65E0));
#81=DIRECTION('',(0.E0,0.E0,-1.E0));
#82=DIRECTION('',(-1.E0,0.E0,0.E0));
#83=AXIS2_PLACEMENT_3D('',#80,#81,#82);
#85=DIRECTION('',(0.E0,-1.E0,0.E0));
#86=VECTOR('',#85,4.5E0);
#87=CARTESIAN_POINT('',(1.35E1,2.45E1,3.65E0));
#88=LINE('618',#87,#86);
#89=DIRECTION('',(1.E0,0.E0,0.E0));
#90=VECTOR('',#89,1.E0);
#91=CARTESIAN_POINT('',(1.25E1,2.E1,3.65E0));
#92=LINE('532',#91,#90);
#93=DIRECTION('',(0.E0,-1.E0,0.E0));
#94=VECTOR('',#93,4.5E0);
#95=CARTESIAN_POINT('',(1.25E1,2.45E1,3.65E0));
#96=LINE('580',#95,#94);
#97=DIRECTION('',(0.E0,0.E0,-1.E0));
#98=VECTOR('',#97,8.E0);
#99=CARTESIAN_POINT('',(0.E0,2.5E1,5.E0));
#100=LINE('733',#99,#98);
#101=DIRECTION('',(0.E0,0.E0,1.E0));
#102=VECTOR('',#101,1.35E0);
#103=CARTESIAN_POINT('',(1.4E1,2.5E1,3.65E0));
#104=LINE('616',#103,#102);
#105=DIRECTION('',(1.E0,0.E0,0.E0));
#106=VECTOR('',#105,3.E0);
#107=CARTESIAN_POINT('',(1.4E1,2.5E1,3.65E0));
#108=LINE('620',#107,#106);
#109=DIRECTION('',(0.E0,0.E0,-1.E0));
#110=VECTOR('',#109,2.3E0);
#111=CARTESIAN_POINT('',(1.7E1,2.5E1,3.65E0));
#112=LINE('484',#111,#110);
#113=DIRECTION('',(-1.E0,0.E0,0.E0));
#114=VECTOR('',#113,8.E0);
#115=CARTESIAN_POINT('',(1.7E1,2.5E1,1.35E0));
#116=LINE('485',#115,#114);
#117=DIRECTION('',(0.E0,0.E0,1.E0));
#118=VECTOR('',#117,2.3E0);
#119=CARTESIAN_POINT('',(9.E0,2.5E1,1.35E0));
#120=LINE('482',#119,#118);
#121=DIRECTION('',(1.E0,0.E0,0.E0));
#122=VECTOR('',#121,3.E0);
#123=CARTESIAN_POINT('',(9.E0,2.5E1,3.65E0));
#124=LINE('582',#123,#122);
#125=DIRECTION('',(0.E0,0.E0,-1.E0));
#126=VECTOR('',#125,1.35E0);
#127=CARTESIAN_POINT('',(1.2E1,2.5E1,5.E0));
#128=LINE('578',#127,#126);
#129=DIRECTION('',(0.E0,0.E0,-1.E0));
#130=VECTOR('',#129,8.E0);
#131=CARTESIAN_POINT('',(1.467902612904E-14,5.E0,5.E0));
#132=LINE('732',#131,#130);
#133=DIRECTION('',(0.E0,0.E0,-1.E0));
#134=VECTOR('',#133,8.E0);
#135=CARTESIAN_POINT('',(-1.E1,5.E0,5.E0));
#136=LINE('731',#135,#134);
#137=CARTESIAN_POINT('',(-5.E0,5.E0,1.E0));
#138=DIRECTION('',(0.E0,-1.E0,0.E0));
#139=DIRECTION('',(1.E0,0.E0,0.E0));
#140=AXIS2_PLACEMENT_3D('',#137,#138,#139);
#142=CARTESIAN_POINT('',(-5.E0,5.E0,1.E0));
#143=DIRECTION('',(0.E0,-1.E0,0.E0));
#144=DIRECTION('',(-1.E0,0.E0,0.E0));
#145=AXIS2_PLACEMENT_3D('',#142,#143,#144);
#147=DIRECTION('',(0.E0,0.E0,-1.E0));
#148=VECTOR('',#147,8.E0);
#149=CARTESIAN_POINT('',(-1.E1,0.E0,5.E0));
#150=LINE('730',#149,#148);
#151=DIRECTION('',(1.E0,0.E0,0.E0));
#152=VECTOR('',#151,4.6E1);
#153=CARTESIAN_POINT('',(-1.E1,0.E0,5.E0));
#154=LINE('821',#153,#152);
#155=DIRECTION('',(0.E0,0.E0,-1.E0));
#156=VECTOR('',#155,8.E0);
#157=CARTESIAN_POINT('',(3.6E1,0.E0,5.E0));
#158=LINE('729',#157,#156);
#159=CARTESIAN_POINT('',(-5.E0,0.E0,1.E0));
#160=DIRECTION('',(0.E0,-1.E0,0.E0));
#161=DIRECTION('',(1.E0,0.E0,0.E0));
#162=AXIS2_PLACEMENT_3D('',#159,#160,#161);
#164=CARTESIAN_POINT('',(-5.E0,0.E0,1.E0));
#165=DIRECTION('',(0.E0,-1.E0,0.E0));
#166=DIRECTION('',(-1.E0,0.E0,0.E0));
#167=AXIS2_PLACEMENT_3D('',#164,#165,#166);
#169=CARTESIAN_POINT('',(3.1E1,0.E0,1.E0));
#170=DIRECTION('',(0.E0,-1.E0,0.E0));
#171=DIRECTION('',(1.E0,0.E0,0.E0));
#172=AXIS2_PLACEMENT_3D('',#169,#170,#171);
#174=CARTESIAN_POINT('',(3.1E1,0.E0,1.E0));
#175=DIRECTION('',(0.E0,-1.E0,0.E0));
#176=DIRECTION('',(-1.E0,0.E0,0.E0));
#177=AXIS2_PLACEMENT_3D('',#174,#175,#176);
#179=DIRECTION('',(0.E0,0.E0,-1.E0));
#180=VECTOR('',#179,8.E0);
#181=CARTESIAN_POINT('',(3.6E1,5.E0,5.E0));
#182=LINE('728',#181,#180);
#183=CARTESIAN_POINT('',(3.1E1,5.E0,1.E0));
#184=DIRECTION('',(0.E0,-1.E0,0.E0));
#185=DIRECTION('',(1.E0,0.E0,0.E0));
#186=AXIS2_PLACEMENT_3D('',#183,#184,#185);
#188=CARTESIAN_POINT('',(3.1E1,5.E0,1.E0));
#189=DIRECTION('',(0.E0,-1.E0,0.E0));
#190=DIRECTION('',(-1.E0,0.E0,0.E0));
#191=AXIS2_PLACEMENT_3D('',#188,#189,#190);
#193=DIRECTION('',(0.E0,0.E0,-1.E0));
#194=VECTOR('',#193,8.E0);
#195=CARTESIAN_POINT('',(2.6E1,2.5E1,5.E0));
#196=LINE('734',#195,#194);
#197=DIRECTION('',(0.E0,0.E0,1.E0));
#198=VECTOR('',#197,8.E0);
#199=CARTESIAN_POINT('',(2.6E1,5.E0,-3.E0));
#200=LINE('735',#199,#198);
#201=DIRECTION('',(1.E0,0.E0,0.E0));
#202=VECTOR('',#201,1.E1);
#203=CARTESIAN_POINT('',(2.6E1,5.E0,-3.E0));
#204=LINE('680',#203,#202);
#205=DIRECTION('',(0.E0,-1.E0,0.E0));
#206=VECTOR('',#205,2.E1);
#207=CARTESIAN_POINT('',(2.6E1,2.5E1,-3.E0));
#208=LINE('687',#207,#206);
#209=DIRECTION('',(1.E0,0.E0,0.E0));
#210=VECTOR('',#209,2.6E1);
#211=CARTESIAN_POINT('',(0.E0,2.5E1,-3.E0));
#212=LINE('686',#211,#210);
#213=DIRECTION('',(0.E0,1.E0,0.E0));
#214=VECTOR('',#213,2.E1);
#215=CARTESIAN_POINT('',(1.467902612904E-14,5.E0,-3.E0));
#216=LINE('685',#215,#214);
#217=DIRECTION('',(1.E0,0.E0,0.E0));
#218=VECTOR('',#217,1.E1);
#219=CARTESIAN_POINT('',(-1.E1,5.E0,-3.E0));
#220=LINE('684',#219,#218);
#221=DIRECTION('',(0.E0,1.E0,0.E0));
#222=VECTOR('',#221,5.E0);
#223=CARTESIAN_POINT('',(-1.E1,0.E0,-3.E0));
#224=LINE('683',#223,#222);
#225=DIRECTION('',(-1.E0,0.E0,0.E0));
#226=VECTOR('',#225,4.6E1);
#227=CARTESIAN_POINT('',(3.6E1,0.E0,-3.E0));
#228=LINE('682',#227,#226);
#229=DIRECTION('',(0.E0,-1.E0,0.E0));
#230=VECTOR('',#229,5.E0);
#231=CARTESIAN_POINT('',(3.6E1,5.E0,-3.E0));
#232=LINE('681',#231,#230);
#233=DIRECTION('',(0.E0,-1.E0,0.E0));
#234=VECTOR('',#233,5.E0);
#235=CARTESIAN_POINT('',(3.26E1,5.E0,1.E0));
#236=LINE('434',#235,#234);
#237=DIRECTION('',(0.E0,-1.E0,0.E0));
#238=VECTOR('',#237,5.E0);
#239=CARTESIAN_POINT('',(2.94E1,5.E0,1.E0));
#240=LINE('435',#239,#238);
#241=DIRECTION('',(0.E0,-1.E0,0.E0));
#242=VECTOR('',#241,5.E0);
#243=CARTESIAN_POINT('',(-3.4E0,5.E0,1.E0));
#244=LINE('405',#243,#242);
#245=DIRECTION('',(0.E0,-1.E0,0.E0));
#246=VECTOR('',#245,5.E0);
#247=CARTESIAN_POINT('',(-6.6E0,5.E0,1.E0));
#248=LINE('406',#247,#246);
#249=DIRECTION('',(0.E0,0.E0,1.E0));
#250=VECTOR('',#249,1.35E0);
#251=CARTESIAN_POINT('',(1.35E1,2.45E1,3.65E0));
#252=LINE('614',#251,#250);
#253=DIRECTION('',(0.E0,0.E0,-1.E0));
#254=VECTOR('',#253,1.35E0);
#255=CARTESIAN_POINT('',(1.35E1,2.E1,5.E0));
#256=LINE('540',#255,#254);
#257=DIRECTION('',(0.E0,0.E0,-1.E0));
#258=VECTOR('',#257,1.35E0);
#259=CARTESIAN_POINT('',(1.25E1,2.E1,5.E0));
#260=LINE('539',#259,#258);
#261=DIRECTION('',(0.E0,0.E0,-1.E0));
#262=VECTOR('',#261,1.35E0);
#263=CARTESIAN_POINT('',(1.25E1,2.45E1,5.E0));
#264=LINE('576',#263,#262);
#265=DIRECTION('',(0.E0,-1.E0,0.E0));
#266=VECTOR('',#265,1.13E1);
#267=CARTESIAN_POINT('',(1.7E1,2.5E1,3.65E0));
#268=LINE('488',#267,#266);
#269=DIRECTION('',(0.E0,0.E0,1.E0));
#270=VECTOR('',#269,2.3E0);
#271=CARTESIAN_POINT('',(9.E0,1.37E1,1.35E0));
#272=LINE('470',#271,#270);
#273=DIRECTION('',(-1.E0,0.E0,0.E0));
#274=VECTOR('',#273,8.E0);
#275=CARTESIAN_POINT('',(1.7E1,1.37E1,1.35E0));
#276=LINE('473',#275,#274);
#277=DIRECTION('',(0.E0,0.E0,-1.E0));
#278=VECTOR('',#277,2.3E0);
#279=CARTESIAN_POINT('',(1.7E1,1.37E1,3.65E0));
#280=LINE('472',#279,#278);
#281=DIRECTION('',(1.E0,0.E0,0.E0));
#282=VECTOR('',#281,8.E0);
#283=CARTESIAN_POINT('',(9.E0,1.37E1,3.65E0));
#284=LINE('471',#283,#282);
#285=DIRECTION('',(0.E0,-1.E0,0.E0));
#286=VECTOR('',#285,1.13E1);
#287=CARTESIAN_POINT('',(9.E0,2.5E1,1.35E0));
#288=LINE('486',#287,#286);
#289=DIRECTION('',(0.E0,-1.E0,0.E0));
#290=VECTOR('',#289,1.13E1);
#291=CARTESIAN_POINT('',(1.7E1,2.5E1,1.35E0));
#292=LINE('489',#291,#290);
#293=CARTESIAN_POINT('',(2.6E1,5.E0,5.E0));
#294=CARTESIAN_POINT('',(2.6E1,2.5E1,5.E0));
#295=VERTEX_POINT('',#293);
#296=VERTEX_POINT('',#294);
#297=CARTESIAN_POINT('',(0.E0,2.5E1,5.E0));
#298=CARTESIAN_POINT('',(1.467902612904E-14,5.E0,5.E0));
#299=VERTEX_POINT('',#297);
#300=VERTEX_POINT('',#298);
#301=CARTESIAN_POINT('',(3.6E1,0.E0,5.E0));
#302=CARTESIAN_POINT('',(3.6E1,5.E0,5.E0));
#303=VERTEX_POINT('',#301);
#304=VERTEX_POINT('',#302);
#305=CARTESIAN_POINT('',(-1.E1,5.E0,5.E0));
#306=VERTEX_POINT('',#305);
#307=CARTESIAN_POINT('',(-1.E1,0.E0,5.E0));
#308=VERTEX_POINT('',#307);
#309=CARTESIAN_POINT('',(-3.4E0,5.E0,1.E0));
#310=CARTESIAN_POINT('',(-6.6E0,5.E0,1.E0));
#311=VERTEX_POINT('',#309);
#312=VERTEX_POINT('',#310);
#313=CARTESIAN_POINT('',(-3.4E0,0.E0,1.E0));
#314=VERTEX_POINT('',#313);
#315=CARTESIAN_POINT('',(-6.6E0,0.E0,1.E0));
#316=VERTEX_POINT('',#315);
#317=CARTESIAN_POINT('',(3.26E1,5.E0,1.E0));
#318=CARTESIAN_POINT('',(3.26E1,0.E0,1.E0));
#319=VERTEX_POINT('',#317);
#320=VERTEX_POINT('',#318);
#321=CARTESIAN_POINT('',(2.94E1,5.E0,1.E0));
#322=CARTESIAN_POINT('',(2.94E1,0.E0,1.E0));
#323=VERTEX_POINT('',#321);
#324=VERTEX_POINT('',#322);
#325=CARTESIAN_POINT('',(9.E0,1.37E1,1.35E0));
#326=CARTESIAN_POINT('',(9.E0,1.37E1,3.65E0));
#327=VERTEX_POINT('',#325);
#328=VERTEX_POINT('',#326);
#329=CARTESIAN_POINT('',(1.7E1,1.37E1,3.65E0));
#330=VERTEX_POINT('',#329);
#331=CARTESIAN_POINT('',(1.7E1,1.37E1,1.35E0));
#332=VERTEX_POINT('',#331);
#333=CARTESIAN_POINT('',(9.E0,2.5E1,1.35E0));
#334=CARTESIAN_POINT('',(9.E0,2.5E1,3.65E0));
#335=VERTEX_POINT('',#333);
#336=VERTEX_POINT('',#334);
#337=CARTESIAN_POINT('',(1.7E1,2.5E1,3.65E0));
#338=CARTESIAN_POINT('',(1.7E1,2.5E1,1.35E0));
#339=VERTEX_POINT('',#337);
#340=VERTEX_POINT('',#338);
#341=CARTESIAN_POINT('',(1.25E1,2.E1,5.E0));
#342=CARTESIAN_POINT('',(1.35E1,2.E1,5.E0));
#343=VERTEX_POINT('',#341);
#344=VERTEX_POINT('',#342);
#345=CARTESIAN_POINT('',(1.25E1,2.E1,3.65E0));
#346=CARTESIAN_POINT('',(1.35E1,2.E1,3.65E0));
#347=VERTEX_POINT('',#345);
#348=VERTEX_POINT('',#346);
#349=CARTESIAN_POINT('',(1.2E1,2.5E1,3.65E0));
#350=CARTESIAN_POINT('',(1.25E1,2.45E1,3.65E0));
#351=VERTEX_POINT('',#349);
#352=VERTEX_POINT('',#350);
#353=CARTESIAN_POINT('',(1.25E1,2.45E1,5.E0));
#354=VERTEX_POINT('',#353);
#355=CARTESIAN_POINT('',(1.2E1,2.5E1,5.E0));
#356=VERTEX_POINT('',#355);
#357=CARTESIAN_POINT('',(1.4E1,2.5E1,5.E0));
#358=CARTESIAN_POINT('',(1.35E1,2.45E1,5.E0));
#359=VERTEX_POINT('',#357);
#360=VERTEX_POINT('',#358);
#361=CARTESIAN_POINT('',(1.35E1,2.45E1,3.65E0));
#362=VERTEX_POINT('',#361);
#363=CARTESIAN_POINT('',(1.4E1,2.5E1,3.65E0));
#364=VERTEX_POINT('',#363);
#365=CARTESIAN_POINT('',(2.6E1,5.E0,-3.E0));
#366=CARTESIAN_POINT('',(3.6E1,5.E0,-3.E0));
#367=VERTEX_POINT('',#365);
#368=VERTEX_POINT('',#366);
#369=CARTESIAN_POINT('',(3.6E1,0.E0,-3.E0));
#370=VERTEX_POINT('',#369);
#371=CARTESIAN_POINT('',(-1.E1,0.E0,-3.E0));
#372=VERTEX_POINT('',#371);
#373=CARTESIAN_POINT('',(-1.E1,5.E0,-3.E0));
#374=VERTEX_POINT('',#373);
#375=CARTESIAN_POINT('',(1.421085471520E-14,5.E0,-3.E0));
#376=VERTEX_POINT('',#375);
#377=CARTESIAN_POINT('',(0.E0,2.5E1,-3.E0));
#378=VERTEX_POINT('',#377);
#379=CARTESIAN_POINT('',(2.6E1,2.5E1,-3.E0));
#380=VERTEX_POINT('',#379);
#381=CARTESIAN_POINT('',(0.E0,0.E0,5.E0));
#382=DIRECTION('',(0.E0,0.E0,1.E0));
#383=DIRECTION('',(1.E0,0.E0,0.E0));
#384=AXIS2_PLACEMENT_3D('',#381,#382,#383);
#385=PLANE('62',#384);
#387=ORIENTED_EDGE('577',*,*,#386,.F.);
#389=ORIENTED_EDGE('579',*,*,#388,.T.);
#391=ORIENTED_EDGE('527',*,*,#390,.T.);
#393=ORIENTED_EDGE('617',*,*,#392,.F.);
#395=ORIENTED_EDGE('613',*,*,#394,.F.);
#397=ORIENTED_EDGE('619',*,*,#396,.F.);
#399=ORIENTED_EDGE('64',*,*,#398,.F.);
#401=ORIENTED_EDGE('365',*,*,#400,.F.);
#403=ORIENTED_EDGE('364',*,*,#402,.F.);
#405=ORIENTED_EDGE('821',*,*,#404,.F.);
#407=ORIENTED_EDGE('367',*,*,#406,.F.);
#409=ORIENTED_EDGE('366',*,*,#408,.F.);
#411=ORIENTED_EDGE('66',*,*,#410,.F.);
#413=ORIENTED_EDGE('581',*,*,#412,.F.);
#414=EDGE_LOOP('62',(#387,#389,#391,#393,#395,#397,#399,#401,#403,#405,#407,
#409,#411,#413));
#415=FACE_OUTER_BOUND('62',#414,.F.);
#417=CARTESIAN_POINT('',(1.2E1,2.45E1,1.1518E1));
#418=DIRECTION('',(0.E0,0.E0,-1.E0));
#419=DIRECTION('',(0.E0,1.E0,0.E0));
#420=AXIS2_PLACEMENT_3D('',#417,#418,#419);
#421=CYLINDRICAL_SURFACE('552',#420,5.E-1);
#423=ORIENTED_EDGE('575',*,*,#422,.T.);
#425=ORIENTED_EDGE('576',*,*,#424,.F.);
#426=ORIENTED_EDGE('577',*,*,#386,.T.);
#428=ORIENTED_EDGE('578',*,*,#427,.T.);
#429=EDGE_LOOP('552',(#423,#425,#426,#428));
#430=FACE_OUTER_BOUND('552',#429,.F.);
#432=CARTESIAN_POINT('',(9.E0,2.5E1,3.65E0));
#433=DIRECTION('',(0.E0,0.E0,1.E0));
#434=DIRECTION('',(1.E0,0.E0,0.E0));
#435=AXIS2_PLACEMENT_3D('',#432,#433,#434);
#436=PLANE('476',#435);
#437=ORIENTED_EDGE('575',*,*,#422,.F.);
#439=ORIENTED_EDGE('582',*,*,#438,.F.);
#441=ORIENTED_EDGE('487',*,*,#440,.T.);
#443=ORIENTED_EDGE('471',*,*,#442,.T.);
#445=ORIENTED_EDGE('488',*,*,#444,.F.);
#447=ORIENTED_EDGE('620',*,*,#446,.F.);
#449=ORIENTED_EDGE('615',*,*,#448,.F.);
#451=ORIENTED_EDGE('618',*,*,#450,.T.);
#453=ORIENTED_EDGE('532',*,*,#452,.F.);
#455=ORIENTED_EDGE('580',*,*,#454,.F.);
#456=EDGE_LOOP('476',(#437,#439,#441,#443,#445,#447,#449,#451,#453,#455));
#457=FACE_OUTER_BOUND('476',#456,.F.);
#459=CARTESIAN_POINT('',(2.6E1,2.5E1,0.E0));
#460=DIRECTION('',(0.E0,1.E0,0.E0));
#461=DIRECTION('',(-1.E0,0.E0,0.E0));
#462=AXIS2_PLACEMENT_3D('',#459,#460,#461);
#463=PLANE('71',#462);
#465=ORIENTED_EDGE('733',*,*,#464,.T.);
#467=ORIENTED_EDGE('686',*,*,#466,.T.);
#469=ORIENTED_EDGE('734',*,*,#468,.F.);
#470=ORIENTED_EDGE('619',*,*,#396,.T.);
#472=ORIENTED_EDGE('616',*,*,#471,.F.);
#473=ORIENTED_EDGE('620',*,*,#446,.T.);
#475=ORIENTED_EDGE('484',*,*,#474,.T.);
#477=ORIENTED_EDGE('485',*,*,#476,.T.);
#479=ORIENTED_EDGE('482',*,*,#478,.T.);
#480=ORIENTED_EDGE('582',*,*,#438,.T.);
#481=ORIENTED_EDGE('578',*,*,#427,.F.);
#482=ORIENTED_EDGE('581',*,*,#412,.T.);
#483=EDGE_LOOP('71',(#465,#467,#469,#470,#472,#473,#475,#477,#479,#480,#481,
#482));
#484=FACE_OUTER_BOUND('71',#483,.F.);
#486=CARTESIAN_POINT('',(0.E0,2.5E1,0.E0));
#487=DIRECTION('',(-1.E0,0.E0,0.E0));
#488=DIRECTION('',(0.E0,-1.E0,0.E0));
#489=AXIS2_PLACEMENT_3D('',#486,#487,#488);
#490=PLANE('73',#489);
#492=ORIENTED_EDGE('732',*,*,#491,.T.);
#494=ORIENTED_EDGE('685',*,*,#493,.T.);
#495=ORIENTED_EDGE('733',*,*,#464,.F.);
#496=ORIENTED_EDGE('66',*,*,#410,.T.);
#497=EDGE_LOOP('73',(#492,#494,#495,#496));
#498=FACE_OUTER_BOUND('73',#497,.F.);
#500=CARTESIAN_POINT('',(1.467902612904E-14,5.E0,0.E0));
#501=DIRECTION('',(0.E0,1.E0,0.E0));
#502=DIRECTION('',(-1.E0,0.E0,0.E0));
#503=AXIS2_PLACEMENT_3D('',#500,#501,#502);
#504=PLANE('377',#503);
#506=ORIENTED_EDGE('731',*,*,#505,.T.);
#508=ORIENTED_EDGE('684',*,*,#507,.T.);
#509=ORIENTED_EDGE('732',*,*,#491,.F.);
#510=ORIENTED_EDGE('366',*,*,#408,.T.);
#511=EDGE_LOOP('377',(#506,#508,#509,#510));
#512=FACE_OUTER_BOUND('377',#511,.F.);
#514=ORIENTED_EDGE('401',*,*,#513,.F.);
#516=ORIENTED_EDGE('402',*,*,#515,.F.);
#517=EDGE_LOOP('377',(#514,#516));
#518=FACE_BOUND('377',#517,.F.);
#520=CARTESIAN_POINT('',(-1.E1,5.E0,0.E0));
#521=DIRECTION('',(-1.E0,0.E0,0.E0));
#522=DIRECTION('',(0.E0,-1.E0,0.E0));
#523=AXIS2_PLACEMENT_3D('',#520,#521,#522);
#524=PLANE('379',#523);
#526=ORIENTED_EDGE('730',*,*,#525,.T.);
#528=ORIENTED_EDGE('683',*,*,#527,.T.);
#529=ORIENTED_EDGE('731',*,*,#505,.F.);
#530=ORIENTED_EDGE('367',*,*,#406,.T.);
#531=EDGE_LOOP('379',(#526,#528,#529,#530));
#532=FACE_OUTER_BOUND('379',#531,.F.);
#534=CARTESIAN_POINT('',(0.E0,0.E0,0.E0));
#535=DIRECTION('',(0.E0,-1.E0,0.E0));
#536=DIRECTION('',(1.E0,0.E0,0.E0));
#537=AXIS2_PLACEMENT_3D('',#534,#535,#536);
#538=PLANE('67',#537);
#539=ORIENTED_EDGE('821',*,*,#404,.T.);
#541=ORIENTED_EDGE('729',*,*,#540,.T.);
#543=ORIENTED_EDGE('682',*,*,#542,.T.);
#544=ORIENTED_EDGE('730',*,*,#525,.F.);
#545=EDGE_LOOP('67',(#539,#541,#543,#544));
#546=FACE_OUTER_BOUND('67',#545,.F.);
#548=ORIENTED_EDGE('822',*,*,#547,.T.);
#550=ORIENTED_EDGE('823',*,*,#549,.T.);
#551=EDGE_LOOP('67',(#548,#550));
#552=FACE_BOUND('67',#551,.F.);
#554=ORIENTED_EDGE('442',*,*,#553,.T.);
#556=ORIENTED_EDGE('443',*,*,#555,.T.);
#557=EDGE_LOOP('67',(#554,#556));
#558=FACE_BOUND('67',#557,.F.);
#560=CARTESIAN_POINT('',(3.6E1,0.E0,0.E0));
#561=DIRECTION('',(1.E0,0.E0,0.E0));
#562=DIRECTION('',(0.E0,1.E0,0.E0));
#563=AXIS2_PLACEMENT_3D('',#560,#561,#562);
#564=PLANE('372',#563);
#566=ORIENTED_EDGE('728',*,*,#565,.T.);
#568=ORIENTED_EDGE('681',*,*,#567,.T.);
#569=ORIENTED_EDGE('729',*,*,#540,.F.);
#570=ORIENTED_EDGE('364',*,*,#402,.T.);
#571=EDGE_LOOP('372',(#566,#568,#569,#570));
#572=FACE_OUTER_BOUND('372',#571,.F.);
#574=CARTESIAN_POINT('',(3.6E1,5.E0,0.E0));
#575=DIRECTION('',(0.E0,1.E0,0.E0));
#576=DIRECTION('',(-1.E0,0.E0,0.E0));
#577=AXIS2_PLACEMENT_3D('',#574,#575,#576);
#578=PLANE('374',#577);
#580=ORIENTED_EDGE('735',*,*,#579,.F.);
#582=ORIENTED_EDGE('680',*,*,#581,.T.);
#583=ORIENTED_EDGE('728',*,*,#565,.F.);
#584=ORIENTED_EDGE('365',*,*,#400,.T.);
#585=EDGE_LOOP('374',(#580,#582,#583,#584));
#586=FACE_OUTER_BOUND('374',#585,.F.);
#588=ORIENTED_EDGE('444',*,*,#587,.F.);
#590=ORIENTED_EDGE('445',*,*,#589,.F.);
#591=EDGE_LOOP('374',(#588,#590));
#592=FACE_BOUND('374',#591,.F.);
#594=CARTESIAN_POINT('',(2.6E1,5.E0,0.E0));
#595=DIRECTION('',(1.E0,0.E0,0.E0));
#596=DIRECTION('',(0.E0,1.E0,0.E0));
#597=AXIS2_PLACEMENT_3D('',#594,#595,#596);
#598=PLANE('69',#597);
#599=ORIENTED_EDGE('734',*,*,#468,.T.);
#601=ORIENTED_EDGE('687',*,*,#600,.T.);
#602=ORIENTED_EDGE('735',*,*,#579,.T.);
#603=ORIENTED_EDGE('64',*,*,#398,.T.);
#604=EDGE_LOOP('69',(#599,#601,#602,#603));
#605=FACE_OUTER_BOUND('69',#604,.F.);
#607=CARTESIAN_POINT('',(0.E0,0.E0,-3.E0));
#608=DIRECTION('',(0.E0,0.E0,-1.E0));
#609=DIRECTION('',(-1.E0,0.E0,0.E0));
#610=AXIS2_PLACEMENT_3D('',#607,#608,#609);
#611=PLANE('679',#610);
#612=ORIENTED_EDGE('680',*,*,#581,.F.);
#613=ORIENTED_EDGE('687',*,*,#600,.F.);
#614=ORIENTED_EDGE('686',*,*,#466,.F.);
#615=ORIENTED_EDGE('685',*,*,#493,.F.);
#616=ORIENTED_EDGE('684',*,*,#507,.F.);
#617=ORIENTED_EDGE('683',*,*,#527,.F.);
#618=ORIENTED_EDGE('682',*,*,#542,.F.);
#619=ORIENTED_EDGE('681',*,*,#567,.F.);
#620=EDGE_LOOP('679',(#612,#613,#614,#615,#616,#617,#618,#619));
#621=FACE_OUTER_BOUND('679',#620,.F.);
#623=CARTESIAN_POINT('',(3.1E1,5.E0,1.E0));
#624=DIRECTION('',(0.E0,-1.E0,0.E0));
#625=DIRECTION('',(1.E0,0.E0,0.E0));
#626=AXIS2_PLACEMENT_3D('',#623,#624,#625);
#627=CYLINDRICAL_SURFACE('426',#626,1.6E0);
#629=ORIENTED_EDGE('434',*,*,#628,.F.);
#630=ORIENTED_EDGE('444',*,*,#587,.T.);
#632=ORIENTED_EDGE('435',*,*,#631,.T.);
#633=ORIENTED_EDGE('442',*,*,#553,.F.);
#634=EDGE_LOOP('426',(#629,#630,#632,#633));
#635=FACE_OUTER_BOUND('426',#634,.F.);
#637=CARTESIAN_POINT('',(3.1E1,5.E0,1.E0));
#638=DIRECTION('',(0.E0,-1.E0,0.E0));
#639=DIRECTION('',(1.E0,0.E0,0.E0));
#640=AXIS2_PLACEMENT_3D('',#637,#638,#639);
#641=CYLINDRICAL_SURFACE('427',#640,1.6E0);
#642=ORIENTED_EDGE('434',*,*,#628,.T.);
#643=ORIENTED_EDGE('443',*,*,#555,.F.);
#644=ORIENTED_EDGE('435',*,*,#631,.F.);
#645=ORIENTED_EDGE('445',*,*,#589,.T.);
#646=EDGE_LOOP('427',(#642,#643,#644,#645));
#647=FACE_OUTER_BOUND('427',#646,.F.);
#649=CARTESIAN_POINT('',(-5.E0,5.E0,1.E0));
#650=DIRECTION('',(0.E0,-1.E0,0.E0));
#651=DIRECTION('',(1.E0,0.E0,0.E0));
#652=AXIS2_PLACEMENT_3D('',#649,#650,#651);
#653=CYLINDRICAL_SURFACE('395',#652,1.6E0);
#654=ORIENTED_EDGE('401',*,*,#513,.T.);
#656=ORIENTED_EDGE('406',*,*,#655,.T.);
#657=ORIENTED_EDGE('822',*,*,#547,.F.);
#659=ORIENTED_EDGE('405',*,*,#658,.F.);
#660=EDGE_LOOP('395',(#654,#656,#657,#659));
#661=FACE_OUTER_BOUND('395',#660,.F.);
#663=CARTESIAN_POINT('',(-5.E0,5.E0,1.E0));
#664=DIRECTION('',(0.E0,-1.E0,0.E0));
#665=DIRECTION('',(1.E0,0.E0,0.E0));
#666=AXIS2_PLACEMENT_3D('',#663,#664,#665);
#667=CYLINDRICAL_SURFACE('397',#666,1.6E0);
#668=ORIENTED_EDGE('402',*,*,#515,.T.);
#669=ORIENTED_EDGE('405',*,*,#658,.T.);
#670=ORIENTED_EDGE('823',*,*,#549,.F.);
#671=ORIENTED_EDGE('406',*,*,#655,.F.);
#672=EDGE_LOOP('397',(#668,#669,#670,#671));
#673=FACE_OUTER_BOUND('397',#672,.F.);
#675=CARTESIAN_POINT('',(1.4E1,2.45E1,-6.518E0));
#676=DIRECTION('',(0.E0,0.E0,1.E0));
#677=DIRECTION('',(0.E0,1.E0,0.E0));
#678=AXIS2_PLACEMENT_3D('',#675,#676,#677);
#679=CYLINDRICAL_SURFACE('590',#678,5.E-1);
#680=ORIENTED_EDGE('613',*,*,#394,.T.);
#682=ORIENTED_EDGE('614',*,*,#681,.F.);
#683=ORIENTED_EDGE('615',*,*,#448,.T.);
#684=ORIENTED_EDGE('616',*,*,#471,.T.);
#685=EDGE_LOOP('590',(#680,#682,#683,#684));
#686=FACE_OUTER_BOUND('590',#685,.F.);
#688=CARTESIAN_POINT('',(1.35E1,2.E1,5.E0));
#689=DIRECTION('',(1.E0,0.E0,0.E0));
#690=DIRECTION('',(0.E0,1.E0,0.E0));
#691=AXIS2_PLACEMENT_3D('',#688,#689,#690);
#692=PLANE('521',#691);
#693=ORIENTED_EDGE('614',*,*,#681,.T.);
#694=ORIENTED_EDGE('617',*,*,#392,.T.);
#696=ORIENTED_EDGE('540',*,*,#695,.T.);
#697=ORIENTED_EDGE('618',*,*,#450,.F.);
#698=EDGE_LOOP('521',(#693,#694,#696,#697));
#699=FACE_OUTER_BOUND('521',#698,.F.);
#701=CARTESIAN_POINT('',(1.25E1,2.E1,5.E0));
#702=DIRECTION('',(0.E0,-1.E0,0.E0));
#703=DIRECTION('',(1.E0,0.E0,0.E0));
#704=AXIS2_PLACEMENT_3D('',#701,#702,#703);
#705=PLANE('519',#704);
#706=ORIENTED_EDGE('527',*,*,#390,.F.);
#708=ORIENTED_EDGE('539',*,*,#707,.T.);
#709=ORIENTED_EDGE('532',*,*,#452,.T.);
#710=ORIENTED_EDGE('540',*,*,#695,.F.);
#711=EDGE_LOOP('519',(#706,#708,#709,#710));
#712=FACE_OUTER_BOUND('519',#711,.F.);
#714=CARTESIAN_POINT('',(1.25E1,3.E1,5.E0));
#715=DIRECTION('',(-1.E0,0.E0,0.E0));
#716=DIRECTION('',(0.E0,-1.E0,0.E0));
#717=AXIS2_PLACEMENT_3D('',#714,#715,#716);
#718=PLANE('525',#717);
#719=ORIENTED_EDGE('576',*,*,#424,.T.);
#720=ORIENTED_EDGE('580',*,*,#454,.T.);
#721=ORIENTED_EDGE('539',*,*,#707,.F.);
#722=ORIENTED_EDGE('579',*,*,#388,.F.);
#723=EDGE_LOOP('525',(#719,#720,#721,#722));
#724=FACE_OUTER_BOUND('525',#723,.F.);
#726=CARTESIAN_POINT('',(1.7E1,2.5E1,3.65E0));
#727=DIRECTION('',(1.E0,0.E0,0.E0));
#728=DIRECTION('',(0.E0,0.E0,-1.E0));
#729=AXIS2_PLACEMENT_3D('',#726,#727,#728);
#730=PLANE('478',#729);
#731=ORIENTED_EDGE('484',*,*,#474,.F.);
#732=ORIENTED_EDGE('488',*,*,#444,.T.);
#734=ORIENTED_EDGE('472',*,*,#733,.T.);
#736=ORIENTED_EDGE('489',*,*,#735,.F.);
#737=EDGE_LOOP('478',(#731,#732,#734,#736));
#738=FACE_OUTER_BOUND('478',#737,.F.);
#740=CARTESIAN_POINT('',(0.E0,1.37E1,0.E0));
#741=DIRECTION('',(0.E0,1.E0,0.E0));
#742=DIRECTION('',(1.E0,0.E0,0.E0));
#743=AXIS2_PLACEMENT_3D('',#740,#741,#742);
#744=PLANE('469',#743);
#746=ORIENTED_EDGE('470',*,*,#745,.F.);
#748=ORIENTED_EDGE('473',*,*,#747,.F.);
#749=ORIENTED_EDGE('472',*,*,#733,.F.);
#750=ORIENTED_EDGE('471',*,*,#442,.F.);
#751=EDGE_LOOP('469',(#746,#748,#749,#750));
#752=FACE_OUTER_BOUND('469',#751,.F.);
#754=CARTESIAN_POINT('',(9.E0,2.5E1,1.35E0));
#755=DIRECTION('',(-1.E0,0.E0,0.E0));
#756=DIRECTION('',(0.E0,0.E0,1.E0));
#757=AXIS2_PLACEMENT_3D('',#754,#755,#756);
#758=PLANE('474',#757);
#759=ORIENTED_EDGE('482',*,*,#478,.F.);
#761=ORIENTED_EDGE('486',*,*,#760,.T.);
#762=ORIENTED_EDGE('470',*,*,#745,.T.);
#763=ORIENTED_EDGE('487',*,*,#440,.F.);
#764=EDGE_LOOP('474',(#759,#761,#762,#763));
#765=FACE_OUTER_BOUND('474',#764,.F.);
#767=CARTESIAN_POINT('',(1.7E1,2.5E1,1.35E0));
#768=DIRECTION('',(0.E0,0.E0,-1.E0));
#769=DIRECTION('',(-1.E0,0.E0,0.E0));
#770=AXIS2_PLACEMENT_3D('',#767,#768,#769);
#771=PLANE('480',#770);
#772=ORIENTED_EDGE('485',*,*,#476,.F.);
#773=ORIENTED_EDGE('489',*,*,#735,.T.);
#774=ORIENTED_EDGE('473',*,*,#747,.T.);
#775=ORIENTED_EDGE('486',*,*,#760,.F.);
#776=EDGE_LOOP('480',(#772,#773,#774,#775));
#777=FACE_OUTER_BOUND('480',#776,.F.);
#781=CARTESIAN_POINT('',(0.E0,0.E0,0.E0));
#782=DIRECTION('',(1.E0,0.E0,0.E0));
#783=DIRECTION('',(0.E0,1.E0,0.E0));
#784=AXIS2_PLACEMENT_3D('',#781,#782,#783);
#785=PLANE('RIGHT',#784);
#786=CARTESIAN_POINT('',(0.E0,0.E0,0.E0));
#787=DIRECTION('',(0.E0,1.E0,0.E0));
#788=DIRECTION('',(0.E0,0.E0,1.E0));
#789=AXIS2_PLACEMENT_3D('',#786,#787,#788);
#790=PLANE('TOP',#789);
#791=CARTESIAN_POINT('',(0.E0,0.E0,0.E0));
#792=DIRECTION('',(0.E0,0.E0,1.E0));
#793=DIRECTION('',(1.E0,0.E0,0.E0));
#794=AXIS2_PLACEMENT_3D('',#791,#792,#793);
#795=PLANE('FRONT',#794);
#796=CARTESIAN_POINT('',(0.E0,0.E0,0.E0));
#797=DIRECTION('',(0.E0,0.E0,1.E0));
#798=DIRECTION('',(1.E0,0.E0,0.E0));
#799=AXIS2_PLACEMENT_3D('PRT_CSYS_DEF',#796,#797,#798);
#800=DRAUGHTING_PRE_DEFINED_CURVE_FONT('continuous');
#801=CURVE_STYLE('',#800,POSITIVE_LENGTH_MEASURE(2.E-2),#6);
#802=PRESENTATION_STYLE_ASSIGNMENT((#801));
#803=STYLED_ITEM('',(#802),#799);
#804=DIRECTION('',(-1.E0,0.E0,0.E0));
#805=VECTOR('',#804,4.6E1);
#806=CARTESIAN_POINT('',(3.6E1,0.E0,0.E0));
#807=LINE('',#806,#805);
#809=CURVE_STYLE('',#800,POSITIVE_LENGTH_MEASURE(2.E-2),#4);
#810=PRESENTATION_STYLE_ASSIGNMENT((#809));
#811=STYLED_ITEM('',(#810),#808);
#812=DIRECTION('',(1.E0,0.E0,0.E0));
#813=VECTOR('',#812,2.6E1);
#814=CARTESIAN_POINT('',(0.E0,0.E0,0.E0));
#815=LINE('',#814,#813);
#817=CURVE_STYLE('',#800,POSITIVE_LENGTH_MEASURE(2.E-2),#1);
#818=PRESENTATION_STYLE_ASSIGNMENT((#817));
#819=STYLED_ITEM('',(#818),#816);
#821=DIRECTION('',(1.E0,0.E0,0.E0));
#822=VECTOR('',#821,1.E1);
#823=CARTESIAN_POINT('',(2.6E1,0.E0,0.E0));
#824=LINE('',#823,#822);
#826=CURVE_STYLE('',#800,POSITIVE_LENGTH_MEASURE(2.E-2),#1);
#827=PRESENTATION_STYLE_ASSIGNMENT((#826));
#828=STYLED_ITEM('',(#827),#825);
#830=DIRECTION('',(0.E0,1.E0,0.E0));
#831=VECTOR('',#830,5.E0);
#832=CARTESIAN_POINT('',(3.6E1,0.E0,0.E0));
#833=LINE('',#832,#831);
#835=CURVE_STYLE('',#800,POSITIVE_LENGTH_MEASURE(2.E-2),#1);
#836=PRESENTATION_STYLE_ASSIGNMENT((#835));
#837=STYLED_ITEM('',(#836),#834);
#839=DIRECTION('',(-1.E0,0.E0,0.E0));
#840=VECTOR('',#839,1.E1);
#841=CARTESIAN_POINT('',(3.6E1,5.E0,0.E0));
#842=LINE('',#841,#840);
#844=CURVE_STYLE('',#800,POSITIVE_LENGTH_MEASURE(2.E-2),#1);
#845=PRESENTATION_STYLE_ASSIGNMENT((#844));
#846=STYLED_ITEM('',(#845),#843);
#848=DIRECTION('',(0.E0,1.E0,0.E0));
#849=VECTOR('',#848,2.E1);
#850=CARTESIAN_POINT('',(2.6E1,5.E0,0.E0));
#851=LINE('',#850,#849);
#853=CURVE_STYLE('',#800,POSITIVE_LENGTH_MEASURE(2.E-2),#1);
#854=PRESENTATION_STYLE_ASSIGNMENT((#853));
#855=STYLED_ITEM('',(#854),#852);
#857=DIRECTION('',(-1.E0,0.E0,0.E0));
#858=VECTOR('',#857,2.6E1);
#859=CARTESIAN_POINT('',(2.6E1,2.5E1,0.E0));
#860=LINE('',#859,#858);
#862=CURVE_STYLE('',#800,POSITIVE_LENGTH_MEASURE(2.E-2),#1);
#863=PRESENTATION_STYLE_ASSIGNMENT((#862));
#864=STYLED_ITEM('',(#863),#861);
#866=DIRECTION('',(0.E0,-1.E0,0.E0));
#867=VECTOR('',#866,2.E1);
#868=CARTESIAN_POINT('',(0.E0,2.5E1,0.E0));
#869=LINE('',#868,#867);
#871=CURVE_STYLE('',#800,POSITIVE_LENGTH_MEASURE(2.E-2),#1);
#872=PRESENTATION_STYLE_ASSIGNMENT((#871));
#873=STYLED_ITEM('',(#872),#870);
#875=DIRECTION('',(-1.E0,0.E0,0.E0));
#876=VECTOR('',#875,1.E1);
#877=CARTESIAN_POINT('',(1.467902612904E-14,5.E0,0.E0));
#878=LINE('',#877,#876);
#880=CURVE_STYLE('',#800,POSITIVE_LENGTH_MEASURE(2.E-2),#1);
#881=PRESENTATION_STYLE_ASSIGNMENT((#880));
#882=STYLED_ITEM('',(#881),#879);
#884=DIRECTION('',(0.E0,-1.E0,0.E0));
#885=VECTOR('',#884,5.E0);
#886=CARTESIAN_POINT('',(-1.E1,5.E0,0.E0));
#887=LINE('',#886,#885);
#889=CURVE_STYLE('',#800,POSITIVE_LENGTH_MEASURE(2.E-2),#1);
#890=PRESENTATION_STYLE_ASSIGNMENT((#889));
#891=STYLED_ITEM('',(#890),#888);
#893=DIRECTION('',(1.E0,0.E0,0.E0));
#894=VECTOR('',#893,1.E1);
#895=CARTESIAN_POINT('',(-1.E1,0.E0,0.E0));
#896=LINE('',#895,#894);
#898=CURVE_STYLE('',#800,POSITIVE_LENGTH_MEASURE(2.E-2),#1);
#899=PRESENTATION_STYLE_ASSIGNMENT((#898));
#900=STYLED_ITEM('',(#899),#897);
#904=DIRECTION('',(0.E0,0.E0,1.E0));
#905=VECTOR('',#904,2.3E0);
#906=CARTESIAN_POINT('',(9.E0,2.5E1,1.35E0));
#907=LINE('',#906,#905);
#909=CURVE_STYLE('',#800,POSITIVE_LENGTH_MEASURE(2.E-2),#1);
#910=PRESENTATION_STYLE_ASSIGNMENT((#909));
#911=STYLED_ITEM('',(#910),#908);
#913=DIRECTION('',(1.E0,0.E0,0.E0));
#914=VECTOR('',#913,8.E0);
#915=CARTESIAN_POINT('',(9.E0,2.5E1,3.65E0));
#916=LINE('',#915,#914);
#918=CURVE_STYLE('',#800,POSITIVE_LENGTH_MEASURE(2.E-2),#1);
#919=PRESENTATION_STYLE_ASSIGNMENT((#918));
#920=STYLED_ITEM('',(#919),#917);
#922=DIRECTION('',(0.E0,0.E0,-1.E0));
#923=VECTOR('',#922,2.3E0);
#924=CARTESIAN_POINT('',(1.7E1,2.5E1,3.65E0));
#925=LINE('',#924,#923);
#927=CURVE_STYLE('',#800,POSITIVE_LENGTH_MEASURE(2.E-2),#1);
#928=PRESENTATION_STYLE_ASSIGNMENT((#927));
#929=STYLED_ITEM('',(#928),#926);
#931=DIRECTION('',(-1.E0,0.E0,0.E0));
#932=VECTOR('',#931,8.E0);
#933=CARTESIAN_POINT('',(1.7E1,2.5E1,1.35E0));
#934=LINE('',#933,#932);
#936=CURVE_STYLE('',#800,POSITIVE_LENGTH_MEASURE(2.E-2),#1);
#937=PRESENTATION_STYLE_ASSIGNMENT((#936));
#938=STYLED_ITEM('',(#937),#935);
#941=DIRECTION('',(1.E0,0.E0,0.E0));
#942=VECTOR('',#941,1.E0);
#943=CARTESIAN_POINT('',(1.25E1,2.E1,5.E0));
#944=LINE('',#943,#942);
#946=CURVE_STYLE('',#800,POSITIVE_LENGTH_MEASURE(2.E-2),#1);
#947=PRESENTATION_STYLE_ASSIGNMENT((#946));
#948=STYLED_ITEM('',(#947),#945);
#950=DIRECTION('',(0.E0,1.E0,0.E0));
#951=VECTOR('',#950,1.E1);
#952=CARTESIAN_POINT('',(1.35E1,2.E1,5.E0));
#953=LINE('',#952,#951);
#955=CURVE_STYLE('',#800,POSITIVE_LENGTH_MEASURE(2.E-2),#1);
#956=PRESENTATION_STYLE_ASSIGNMENT((#955));
#957=STYLED_ITEM('',(#956),#954);
#959=DIRECTION('',(-1.E0,0.E0,0.E0));
#960=VECTOR('',#959,1.E0);
#961=CARTESIAN_POINT('',(1.35E1,3.E1,5.E0));
#962=LINE('',#961,#960);
#964=CURVE_STYLE('',#800,POSITIVE_LENGTH_MEASURE(2.E-2),#1);
#965=PRESENTATION_STYLE_ASSIGNMENT((#964));
#966=STYLED_ITEM('',(#965),#963);
#968=DIRECTION('',(0.E0,-1.E0,0.E0));
#969=VECTOR('',#968,1.E1);
#970=CARTESIAN_POINT('',(1.25E1,3.E1,5.E0));
#971=LINE('',#970,#969);
#973=CURVE_STYLE('',#800,POSITIVE_LENGTH_MEASURE(2.E-2),#1);
#974=PRESENTATION_STYLE_ASSIGNMENT((#973));
#975=STYLED_ITEM('',(#974),#972);
#978=DIRECTION('',(1.E0,0.E0,0.E0));
#979=VECTOR('',#978,1.E1);
#980=CARTESIAN_POINT('',(2.6E1,5.E0,0.E0));
#981=LINE('',#980,#979);
#983=CURVE_STYLE('',#800,POSITIVE_LENGTH_MEASURE(2.E-2),#1);
#984=PRESENTATION_STYLE_ASSIGNMENT((#983));
#985=STYLED_ITEM('',(#984),#982);
#987=DIRECTION('',(0.E0,-1.E0,0.E0));
#988=VECTOR('',#987,5.E0);
#989=CARTESIAN_POINT('',(3.6E1,5.E0,0.E0));
#990=LINE('',#989,#988);
#992=CURVE_STYLE('',#800,POSITIVE_LENGTH_MEASURE(2.E-2),#1);
#993=PRESENTATION_STYLE_ASSIGNMENT((#992));
#994=STYLED_ITEM('',(#993),#991);
#996=DIRECTION('',(-1.E0,0.E0,0.E0));
#997=VECTOR('',#996,4.6E1);
#998=CARTESIAN_POINT('',(3.6E1,0.E0,0.E0));
#999=LINE('',#998,#997);
#1001=CURVE_STYLE('',#800,POSITIVE_LENGTH_MEASURE(2.E-2),#1);
#1002=PRESENTATION_STYLE_ASSIGNMENT((#1001));
#1003=STYLED_ITEM('',(#1002),#1000);
#1005=DIRECTION('',(0.E0,1.E0,0.E0));
#1006=VECTOR('',#1005,5.E0);
#1007=CARTESIAN_POINT('',(-1.E1,0.E0,0.E0));
#1008=LINE('',#1007,#1006);
#1010=CURVE_STYLE('',#800,POSITIVE_LENGTH_MEASURE(2.E-2),#1);
#1011=PRESENTATION_STYLE_ASSIGNMENT((#1010));
#1012=STYLED_ITEM('',(#1011),#1009);
#1014=DIRECTION('',(1.E0,0.E0,0.E0));
#1015=VECTOR('',#1014,1.E1);
#1016=CARTESIAN_POINT('',(-1.E1,5.E0,0.E0));
#1017=LINE('',#1016,#1015);
#1019=CURVE_STYLE('',#800,POSITIVE_LENGTH_MEASURE(2.E-2),#1);
#1020=PRESENTATION_STYLE_ASSIGNMENT((#1019));
#1021=STYLED_ITEM('',(#1020),#1018);
#1023=DIRECTION('',(0.E0,1.E0,0.E0));
#1024=VECTOR('',#1023,2.E1);
#1025=CARTESIAN_POINT('',(1.467902612904E-14,5.E0,0.E0));
#1026=LINE('',#1025,#1024);
#1028=CURVE_STYLE('',#800,POSITIVE_LENGTH_MEASURE(2.E-2),#1);
#1029=PRESENTATION_STYLE_ASSIGNMENT((#1028));
#1030=STYLED_ITEM('',(#1029),#1027);
#1032=DIRECTION('',(1.E0,0.E0,0.E0));
#1033=VECTOR('',#1032,2.6E1);
#1034=CARTESIAN_POINT('',(0.E0,2.5E1,0.E0));
#1035=LINE('',#1034,#1033);
#1037=CURVE_STYLE('',#800,POSITIVE_LENGTH_MEASURE(2.E-2),#1);
#1038=PRESENTATION_STYLE_ASSIGNMENT((#1037));
#1039=STYLED_ITEM('',(#1038),#1036);
#1041=DIRECTION('',(0.E0,-1.E0,0.E0));
#1042=VECTOR('',#1041,2.E1);
#1043=CARTESIAN_POINT('',(2.6E1,2.5E1,0.E0));
#1044=LINE('',#1043,#1042);
#1046=CURVE_STYLE('',#800,POSITIVE_LENGTH_MEASURE(2.E-2),#1);
#1047=PRESENTATION_STYLE_ASSIGNMENT((#1046));
#1048=STYLED_ITEM('',(#1047),#1045);
#1051=DIRECTION('',(0.E0,-1.E0,0.E0));
#1052=VECTOR('',#1051,5.E0);
#1053=CARTESIAN_POINT('',(-5.E0,5.E0,1.E0));
#1054=LINE('',#1053,#1052);
#1056=CURVE_STYLE('',#800,POSITIVE_LENGTH_MEASURE(2.E-2),#4);
#1057=PRESENTATION_STYLE_ASSIGNMENT((#1056));
#1058=STYLED_ITEM('',(#1057),#1055);
#1059=DIRECTION('',(0.E0,-1.E0,0.E0));
#1060=VECTOR('',#1059,5.E0);
#1061=CARTESIAN_POINT('',(3.1E1,5.E0,1.E0));
#1062=LINE('',#1061,#1060);
#1064=CURVE_STYLE('',#800,POSITIVE_LENGTH_MEASURE(2.E-2),#4);
#1065=PRESENTATION_STYLE_ASSIGNMENT((#1064));
#1066=STYLED_ITEM('',(#1065),#1063);
#1067=PRESENTATION_LAYER_ASSIGNMENT('_26_BEZUGSACHSEN','',(#808,#1055,#1063));
#1068=PRESENTATION_LAYER_ASSIGNMENT('_27_BEZUGSEBENEN','',(#785,#790,#795));
#1069=PRESENTATION_LAYER_ASSIGNMENT('_29_KOORDINATENSYSTEME','',(#799));
#1070=PRESENTATION_LAYER_ASSIGNMENT('_00_PRT_START_FEATURES','',(#785,#790,#795,
#799,#808));
#1071=PRESENTATION_LAYER_ASSIGNMENT('_21_KURVEN','',(#902,#940,#977,#1050));
#1072=PRESENTATION_LAYER_ASSIGNMENT('.BLACK_HOLE','',(#902,#940,#977,#1050));
#1073=PRESENTATION_LAYER_ASSIGNMENT('_30_VOLUMEN','',(#1055,#1063));
#1074=PRESENTATION_LAYER_ASSIGNMENT('_34_BOHRUNGEN','',(#1055,#1063));
#1075=INVISIBILITY((#1072));
#1078=PLANE_ANGLE_MEASURE_WITH_UNIT(PLANE_ANGLE_MEASURE(1.745329251994E-2),
#1077);
#1079=(CONVERSION_BASED_UNIT('DEGREE',#1078)NAMED_UNIT(*)PLANE_ANGLE_UNIT());
#1081=UNCERTAINTY_MEASURE_WITH_UNIT(LENGTH_MEASURE(1.E-2),#1076,'closure',
'Maximum model space distance between geometric entities at asserted connectivities');
#903=GEOMETRIC_CURVE_SET('48',(#902,#940,#977,#1050));
#1086=CARTESIAN_POINT('',(0.E0,0.E0,0.E0));
#1087=DIRECTION('',(0.E0,0.E0,1.E0));
#1088=DIRECTION('',(1.E0,0.E0,0.E0));
#1091=SHAPE_REPRESENTATION_RELATIONSHIP('','',#1090,#1083);
#1092=SHAPE_REPRESENTATION_RELATIONSHIP('','',#1090,#1084);
#1093=CONSTRUCTIVE_GEOMETRY_REPRESENTATION_RELATIONSHIP('','',#1090,#1085);
#1094=MECHANICAL_DESIGN_GEOMETRIC_PRESENTATION_REPRESENTATION('',(#803,#811,
#819,#828,#837,#846,#855,#864,#873,#882,#891,#900,#911,#920,#929,#938,#948,#957,
#966,#975,#985,#994,#1003,#1012,#1021,#1030,#1039,#1048,#1058,#1066),#1082);
#1095=APPLICATION_CONTEXT('automotive design');
#1096=APPLICATION_PROTOCOL_DEFINITION('international standard',
'config_control_design',1994,#1095);
#1097=PRODUCT_DEFINITION_CONTEXT('',#1095,'design');
#1098=PRODUCT_CONTEXT('',#1095,'mechanical');
#1099=PRODUCT('IMMERSION_HEATER_MOUNT','IMMERSION_HEATER_MOUNT','NOT SPECIFIED',
(#1098));
#1100=PRODUCT_DEFINITION_FORMATION_WITH_SPECIFIED_SOURCE('8','LAST_VERSION',
#1099,.MADE.);
#1108=DERIVED_UNIT_ELEMENT(#1107,-3.E0);
#1110=DERIVED_UNIT_ELEMENT(#1109,1.E0);
#1111=DERIVED_UNIT((#1108,#1110));
#1112=MEASURE_REPRESENTATION_ITEM('density measure',POSITIVE_RATIO_MEASURE(
7.85E-6),#1111);
#1116=DESCRIPTIVE_REPRESENTATION_ITEM('STAHL_ALLGEMEIN','');
#1125=DERIVED_UNIT_ELEMENT(#1124,2.E0);
#1126=AREA_UNIT((#1125));
#1127=MEASURE_REPRESENTATION_ITEM('surface area measure',AREA_MEASURE(
2.939847029350E3),#1126);
#1132=DERIVED_UNIT_ELEMENT(#1131,3.E0);
#1133=VOLUME_UNIT((#1132));
#1134=MEASURE_REPRESENTATION_ITEM('volume measure',VOLUME_MEASURE(
5.704760189543E3),#1133);
#1138=CARTESIAN_POINT('centre point',(1.3E1,1.097683386952E1,
9.413112225894E-1));
#1143=DERIVED_UNIT_ELEMENT(#1142,2.E0);
#1144=AREA_UNIT((#1143));
#1145=MEASURE_REPRESENTATION_ITEM('surface area measure',AREA_MEASURE(
2.939847029350E3),#1144);
#1150=DERIVED_UNIT_ELEMENT(#1149,3.E0);
#1151=VOLUME_UNIT((#1150));
#1152=MEASURE_REPRESENTATION_ITEM('volume measure',VOLUME_MEASURE(
5.704760189543E3),#1151);
#1156=CARTESIAN_POINT('centre point',(1.3E1,1.097683386952E1,
9.413112225894E-1));
#1160=PRODUCT_CONTEXT('',#1095,'mechanical');
#1161=PRODUCT('STAHL_ALLGEMEIN','allgemeiner Stahl','NOT SPECIFIED',(#1160));
#1162=PRODUCT_DEFINITION_FORMATION_WITH_SPECIFIED_SOURCE('','LAST_VERSION',
#1161,.MADE.);
#1165=DIMENSIONAL_EXPONENTS(0.E0,0.E0,0.E0,0.E0,0.E0,0.E0,0.E0);
#1166=NAMED_UNIT(#1165);
#1167=MEASURE_WITH_UNIT(COUNT_MEASURE(1.E0),#1166);
#1169=DERIVED_UNIT_ELEMENT(#1168,-3.E0);
#1171=DERIVED_UNIT_ELEMENT(#1170,1.E0);
#1172=DERIVED_UNIT((#1169,#1171));
#1173=MEASURE_REPRESENTATION_ITEM('density measure',POSITIVE_RATIO_MEASURE(
7.85E-6),#1172);
#1178=DRAUGHTING_MODEL('Default',(#1192,#1194,#1196,#1207,#1208),#1082);
#1179=CARTESIAN_POINT('',(0.E0,0.E0,0.E0));
#1180=DIRECTION('',(0.E0,0.E0,1.E0));
#1181=DIRECTION('',(1.E0,0.E0,0.E0));
#1182=AXIS2_PLACEMENT_3D('',#1179,#1180,#1181);
#1183=REPRESENTATION_MAP(#1182,#1090);
#1184=MAPPED_ITEM('',#1183,#1182);
#1185=PRESENTATION_STYLE_ASSIGNMENT((.NULL.));
#1186=STYLED_ITEM('',(#1185),#1184);
#1187=DRAUGHTING_MODEL('',(#1182,#1184,#1186),#1082);
#1188=MECHANICAL_DESIGN_AND_DRAUGHTING_RELATIONSHIP('','',#1178,#1187);
#1189=CARTESIAN_POINT('',(0.E0,0.E0,0.E0));
#1190=DIRECTION('',(0.E0,0.E0,1.E0));
#1191=DIRECTION('',(1.E0,0.E0,0.E0));
#1192=AXIS2_PLACEMENT_3D('',#1189,#1190,#1191);
#1193=REPRESENTATION_MAP(#1192,#1090);
#1194=MAPPED_ITEM('',#1193,#1192);
#1195=PRESENTATION_STYLE_ASSIGNMENT((.NULL.));
#1196=STYLED_ITEM('',(#1195),#1194);
#1197=CARTESIAN_POINT('',(0.E0,0.E0,0.E0));
#1198=CARTESIAN_POINT('',(-2.676352211334E1,-2.007885736172E1,
1.291367290321E2));
#1199=DIRECTION('',(0.E0,0.E0,1.E0));
#1200=DIRECTION('',(1.E0,0.E0,0.E0));
#1201=AXIS2_PLACEMENT_3D('',#1198,#1199,#1200);
#1203=VIEW_VOLUME(.PARALLEL.,#1197,1.291367290321E2,1.291367290321E2,.T.,0.E0,
.F.,.T.,#1202);
#1204=CARTESIAN_POINT('',(2.563737467012E1,8.885387593896E1,9.614288930873E1));
#1205=DIRECTION('',(-3.894183423087E-1,-7.214918620107E-1,-5.725406952575E-1));
#1206=DIRECTION('',(-9.210609940029E-1,3.050418666329E-1,2.420663234065E-1));
#1207=AXIS2_PLACEMENT_3D('',#1204,#1205,#1206);
#1208=CAMERA_MODEL_D3('DEFAULT',#1207,#1203);
#1210=GENERAL_PROPERTY('','CAD_APPROVED_BY','user defined attribute');
#1211=GENERAL_PROPERTY_ASSOCIATION('user defined attribute','',#1210,#1209);
#1212=DESCRIPTIVE_REPRESENTATION_ITEM('CAD_APPROVED_BY','-');
#1216=GENERAL_PROPERTY('','CAD_APPROVED_ON','user defined attribute');
#1217=GENERAL_PROPERTY_ASSOCIATION('user defined attribute','',#1216,#1215);
#1218=DESCRIPTIVE_REPRESENTATION_ITEM('CAD_APPROVED_ON','jjjj-mm-dd');
#1222=GENERAL_PROPERTY('','CAD_CHANGE_NO','user defined attribute');
#1223=GENERAL_PROPERTY_ASSOCIATION('user defined attribute','',#1222,#1221);
#1224=DESCRIPTIVE_REPRESENTATION_ITEM('CAD_CHANGE_NO','-');
#1228=GENERAL_PROPERTY('','CAD_CHANGE_TEXT','user defined attribute');
#1229=GENERAL_PROPERTY_ASSOCIATION('user defined attribute','',#1228,#1227);
#1230=DESCRIPTIVE_REPRESENTATION_ITEM('CAD_CHANGE_TEXT','-');
#1234=GENERAL_PROPERTY('','CAD_CREATED_BY','user defined attribute');
#1235=GENERAL_PROPERTY_ASSOCIATION('user defined attribute','',#1234,#1233);
#1236=DESCRIPTIVE_REPRESENTATION_ITEM('CAD_CREATED_BY','-');
#1240=GENERAL_PROPERTY('','CAD_CREATED_ON','user defined attribute');
#1241=GENERAL_PROPERTY_ASSOCIATION('user defined attribute','',#1240,#1239);
#1242=DESCRIPTIVE_REPRESENTATION_ITEM('CAD_CREATED_ON','jjjj-mm-dd');
#1246=GENERAL_PROPERTY('','CAD_LIFECYCLE_STATE','user defined attribute');
#1247=GENERAL_PROPERTY_ASSOCIATION('user defined attribute','',#1246,#1245);
#1248=DESCRIPTIVE_REPRESENTATION_ITEM('CAD_LIFECYCLE_STATE','-');
#1252=GENERAL_PROPERTY('','CAD_MODIFIED_BY','user defined attribute');
#1253=GENERAL_PROPERTY_ASSOCIATION('user defined attribute','',#1252,#1251);
#1254=DESCRIPTIVE_REPRESENTATION_ITEM('CAD_MODIFIED_BY','-');
#1258=GENERAL_PROPERTY('','CAD_MODIFIED_ON','user defined attribute');
#1259=GENERAL_PROPERTY_ASSOCIATION('user defined attribute','',#1258,#1257);
#1260=DESCRIPTIVE_REPRESENTATION_ITEM('CAD_MODIFIED_ON','jjjj-mm-dd');
#1264=GENERAL_PROPERTY('','CAD_REVISION','user defined attribute');
#1265=GENERAL_PROPERTY_ASSOCIATION('user defined attribute','',#1264,#1263);
#1266=DESCRIPTIVE_REPRESENTATION_ITEM('CAD_REVISION','-');
#1270=GENERAL_PROPERTY('','DEPARTMENT','user defined attribute');
#1271=GENERAL_PROPERTY_ASSOCIATION('user defined attribute','',#1270,#1269);
#1272=DESCRIPTIVE_REPRESENTATION_ITEM('DEPARTMENT','DEV');
#1276=GENERAL_PROPERTY('','DESCRIPTION_1_DE','user defined attribute');
#1277=GENERAL_PROPERTY_ASSOCIATION('user defined attribute','',#1276,#1275);
#1278=DESCRIPTIVE_REPRESENTATION_ITEM('DESCRIPTION_1_DE','-');
#1282=GENERAL_PROPERTY('','DESCRIPTION_1_EN','user defined attribute');
#1283=GENERAL_PROPERTY_ASSOCIATION('user defined attribute','',#1282,#1281);
#1284=DESCRIPTIVE_REPRESENTATION_ITEM('DESCRIPTION_1_EN','-');
#1288=GENERAL_PROPERTY('','DESCRIPTION_2_DE','user defined attribute');
#1289=GENERAL_PROPERTY_ASSOCIATION('user defined attribute','',#1288,#1287);
#1290=DESCRIPTIVE_REPRESENTATION_ITEM('DESCRIPTION_2_DE','-');
#1294=GENERAL_PROPERTY('','DESCRIPTION_2_EN','user defined attribute');
#1295=GENERAL_PROPERTY_ASSOCIATION('user defined attribute','',#1294,#1293);
#1296=DESCRIPTIVE_REPRESENTATION_ITEM('DESCRIPTION_2_EN','-');
#1300=GENERAL_PROPERTY('','DRAWING_NO','user defined attribute');
#1301=GENERAL_PROPERTY_ASSOCIATION('user defined attribute','',#1300,#1299);
#1302=DESCRIPTIVE_REPRESENTATION_ITEM('DRAWING_NO','-');
#1306=GENERAL_PROPERTY('','MC_CHECKTYPE','user defined attribute');
#1307=GENERAL_PROPERTY_ASSOCIATION('user defined attribute','',#1306,#1305);
#1308=DESCRIPTIVE_REPRESENTATION_ITEM('MC_CHECKTYPE','SUT_INT_DE');
#1312=GENERAL_PROPERTY('','COATING','user defined attribute');
#1313=GENERAL_PROPERTY_ASSOCIATION('user defined attribute','',#1312,#1311);
#1314=DESCRIPTIVE_REPRESENTATION_ITEM('COATING','-');
#1318=GENERAL_PROPERTY('','COLORING','user defined attribute');
#1319=GENERAL_PROPERTY_ASSOCIATION('user defined attribute','',#1318,#1317);
#1320=DESCRIPTIVE_REPRESENTATION_ITEM('COLORING','-');
#1324=GENERAL_PROPERTY('','DESC_SEMIFINISHED','user defined attribute');
#1325=GENERAL_PROPERTY_ASSOCIATION('user defined attribute','',#1324,#1323);
#1326=DESCRIPTIVE_REPRESENTATION_ITEM('DESC_SEMIFINISHED','-');
#1330=GENERAL_PROPERTY('','DIMENSION','user defined attribute');
#1331=GENERAL_PROPERTY_ASSOCIATION('user defined attribute','',#1330,#1329);
#1332=DESCRIPTIVE_REPRESENTATION_ITEM('DIMENSION','-');
#1336=GENERAL_PROPERTY('','HARDNESS','user defined attribute');
#1337=GENERAL_PROPERTY_ASSOCIATION('user defined attribute','',#1336,#1335);
#1338=DESCRIPTIVE_REPRESENTATION_ITEM('HARDNESS','-');
#1342=GENERAL_PROPERTY('','MASS','user defined attribute');
#1343=GENERAL_PROPERTY_ASSOCIATION('user defined attribute','',#1342,#1341);
#1344=REAL_REPRESENTATION_ITEM('MASS',4.4E-2);
#1348=GENERAL_PROPERTY('','MATERIAL','user defined attribute');
#1349=GENERAL_PROPERTY_ASSOCIATION('user defined attribute','',#1348,#1347);
#1350=DESCRIPTIVE_REPRESENTATION_ITEM('MATERIAL','Stahl allg.');
#1354=GENERAL_PROPERTY('','PART_NO','user defined attribute');
#1355=GENERAL_PROPERTY_ASSOCIATION('user defined attribute','',#1354,#1353);
#1356=DESCRIPTIVE_REPRESENTATION_ITEM('PART_NO','-');
#1360=GENERAL_PROPERTY('','PART_NO_SEMIFINISHED','user defined attribute');
#1361=GENERAL_PROPERTY_ASSOCIATION('user defined attribute','',#1360,#1359);
#1362=DESCRIPTIVE_REPRESENTATION_ITEM('PART_NO_SEMIFINISHED','-');
#1366=GENERAL_PROPERTY('','STANDARD','user defined attribute');
#1367=GENERAL_PROPERTY_ASSOCIATION('user defined attribute','',#1366,#1365);
#1368=DESCRIPTIVE_REPRESENTATION_ITEM('STANDARD','-');
#1372=GENERAL_PROPERTY('','STANDARD_DIMENSION','user defined attribute');
#1373=GENERAL_PROPERTY_ASSOCIATION('user defined attribute','',#1372,#1371);
#1374=DESCRIPTIVE_REPRESENTATION_ITEM('STANDARD_DIMENSION','DIN EN ISO 14405');
#1378=GENERAL_PROPERTY('','STANDARD_EDGE','user defined attribute');
#1379=GENERAL_PROPERTY_ASSOCIATION('user defined attribute','',#1378,#1377);
#1380=DESCRIPTIVE_REPRESENTATION_ITEM('STANDARD_EDGE','ISO 13715');
#1384=GENERAL_PROPERTY('','STANDARD_INFO_DE','user defined attribute');
#1385=GENERAL_PROPERTY_ASSOCIATION('user defined attribute','',#1384,#1383);
#1386=DESCRIPTIVE_REPRESENTATION_ITEM('STANDARD_INFO_DE','-');
#1390=GENERAL_PROPERTY('','STANDARD_INFO_EN','user defined attribute');
#1391=GENERAL_PROPERTY_ASSOCIATION('user defined attribute','',#1390,#1389);
#1392=DESCRIPTIVE_REPRESENTATION_ITEM('STANDARD_INFO_EN','-');
#1396=GENERAL_PROPERTY('','STANDARD_SURFACE','user defined attribute');
#1397=GENERAL_PROPERTY_ASSOCIATION('user defined attribute','',#1396,#1395);
#1398=DESCRIPTIVE_REPRESENTATION_ITEM('STANDARD_SURFACE','ISO 1302');
#1402=GENERAL_PROPERTY('','STANDARD_TOL_CLASS','user defined attribute');
#1403=GENERAL_PROPERTY_ASSOCIATION('user defined attribute','',#1402,#1401);
#1404=DESCRIPTIVE_REPRESENTATION_ITEM('STANDARD_TOL_CLASS','ISO 2768-mK');
#1408=GENERAL_PROPERTY('','SUPPLIER','user defined attribute');
#1409=GENERAL_PROPERTY_ASSOCIATION('user defined attribute','',#1408,#1407);
#1410=DESCRIPTIVE_REPRESENTATION_ITEM('SUPPLIER','-');
#1414=GENERAL_PROPERTY('','CLASSIFICATION','user defined attribute');
#1415=GENERAL_PROPERTY_ASSOCIATION('user defined attribute','',#1414,#1413);
#1416=DESCRIPTIVE_REPRESENTATION_ITEM('CLASSIFICATION','FERTIGUNG');
#1420=GENERAL_PROPERTY('','CATEGORY','user defined attribute');
#1421=GENERAL_PROPERTY_ASSOCIATION('user defined attribute','',#1420,#1419);
#1422=INTEGER_REPRESENTATION_ITEM('CATEGORY',1);
#1426=GENERAL_PROPERTY('','PROJECT','user defined attribute');
#1427=GENERAL_PROPERTY_ASSOCIATION('user defined attribute','',#1426,#1425);
#1428=DESCRIPTIVE_REPRESENTATION_ITEM('PROJECT','-');
#1432=GENERAL_PROPERTY('','PROJECT_NO','user defined attribute');
#1433=GENERAL_PROPERTY_ASSOCIATION('user defined attribute','',#1432,#1431);
#1434=DESCRIPTIVE_REPRESENTATION_ITEM('PROJECT_NO','-');
#1438=GENERAL_PROPERTY('','ORDER_CODE','user defined attribute');
#1439=GENERAL_PROPERTY_ASSOCIATION('user defined attribute','',#1438,#1437);
#1440=DESCRIPTIVE_REPRESENTATION_ITEM('ORDER_CODE','-');
#1444=GENERAL_PROPERTY('','STANDARD_WELDING','user defined attribute');
#1445=GENERAL_PROPERTY_ASSOCIATION('user defined attribute','',#1444,#1443);
#1446=DESCRIPTIVE_REPRESENTATION_ITEM('STANDARD_WELDING','ISO 9692');
#1450=GENERAL_PROPERTY('','CUSTOMER','user defined attribute');
#1451=GENERAL_PROPERTY_ASSOCIATION('user defined attribute','',#1450,#1449);
#1452=DESCRIPTIVE_REPRESENTATION_ITEM('CUSTOMER','-');
#1456=GENERAL_PROPERTY('','HEAT_TREATMENT','user defined attribute');
#1457=GENERAL_PROPERTY_ASSOCIATION('user defined attribute','',#1456,#1455);
#1458=DESCRIPTIVE_REPRESENTATION_ITEM('HEAT_TREATMENT','-');
#1462=GENERAL_PROPERTY('','PTC_COMMON_NAME','user defined attribute');
#1463=GENERAL_PROPERTY_ASSOCIATION('user defined attribute','',#1462,#1461);
#1464=DESCRIPTIVE_REPRESENTATION_ITEM('PTC_COMMON_NAME',
'tauchsieder_halter.prt');
#1468=GENERAL_PROPERTY('','PTC_MASTER_MATERIAL','user defined attribute');
#1469=GENERAL_PROPERTY_ASSOCIATION('user defined attribute','',#1468,#1467);
#1470=DESCRIPTIVE_REPRESENTATION_ITEM('PTC_MASTER_MATERIAL','STAHL_ALLGEMEIN');
#1=COLOUR_RGB('',0.E0,7.450980392157E-1,9.215686274510E-1);
#2=DRAUGHTING_PRE_DEFINED_COLOUR('green');
#3=COLOUR_RGB('',1.1E-2,1.2E-2,1.E0);
#4=COLOUR_RGB('',2.156862745098E-1,0.E0,3.725490196078E-1);
#5=COLOUR_RGB('',4.1E-1,2.61589E-1,1.12848E-1);
#6=COLOUR_RGB('',4.705882352941E-1,3.137254901961E-1,3.333333333333E-1);
#7=COLOUR_RGB('',5.04854E-1,1.5455E-2,1.5455E-2);
#8=COLOUR_RGB('',6.35294E-1,6.86275E-1,7.4902E-1);
#9=COLOUR_RGB('',6.40777E-1,6.40777E-1,6.40777E-1);
#10=COLOUR_RGB('',6.69062E-1,6.69903E-1,6.55217E-1);
#11=COLOUR_RGB('',9.21569E-1,7.05882E-1,4.70588E-1);
#12=DRAUGHTING_PRE_DEFINED_COLOUR('red');
#13=DRAUGHTING_PRE_DEFINED_COLOUR('yellow');
#14=COLOUR_RGB('',1.E0,1.E0,5.3E-1);
#15=COLOUR_RGB('',1.E0,1.E0,9.49E-1);
#16=DRAUGHTING_PRE_DEFINED_COLOUR('white');
#21=CIRCLE('577',#20,5.E-1);
#38=CIRCLE('613',#37,5.E-1);
#75=CIRCLE('575',#74,5.E-1);
#84=CIRCLE('615',#83,5.E-1);
#141=CIRCLE('401',#140,1.6E0);
#146=CIRCLE('402',#145,1.6E0);
#163=CIRCLE('822',#162,1.6E0);
#168=CIRCLE('823',#167,1.6E0);
#173=CIRCLE('442',#172,1.6E0);
#178=CIRCLE('443',#177,1.6E0);
#187=CIRCLE('444',#186,1.6E0);
#192=CIRCLE('445',#191,1.6E0);
#386=EDGE_CURVE('577',#354,#356,#21,.T.);
#388=EDGE_CURVE('579',#354,#343,#25,.T.);
#390=EDGE_CURVE('527',#343,#344,#29,.T.);
#392=EDGE_CURVE('617',#360,#344,#33,.T.);
#394=EDGE_CURVE('613',#359,#360,#38,.T.);
#396=EDGE_CURVE('619',#296,#359,#42,.T.);
#398=EDGE_CURVE('64',#295,#296,#46,.T.);
#400=EDGE_CURVE('365',#304,#295,#50,.T.);
#402=EDGE_CURVE('364',#303,#304,#54,.T.);
#404=EDGE_CURVE('821',#308,#303,#154,.T.);
#406=EDGE_CURVE('367',#306,#308,#58,.T.);
#408=EDGE_CURVE('366',#300,#306,#62,.T.);
#410=EDGE_CURVE('66',#299,#300,#66,.T.);
#412=EDGE_CURVE('581',#356,#299,#70,.T.);
#416=ADVANCED_FACE('62',(#415),#385,.T.);
#422=EDGE_CURVE('575',#351,#352,#75,.T.);
#424=EDGE_CURVE('576',#354,#352,#264,.T.);
#427=EDGE_CURVE('578',#356,#351,#128,.T.);
#431=ADVANCED_FACE('552',(#430),#421,.T.);
#438=EDGE_CURVE('582',#336,#351,#124,.T.);
#440=EDGE_CURVE('487',#336,#328,#79,.T.);
#442=EDGE_CURVE('471',#328,#330,#284,.T.);
#444=EDGE_CURVE('488',#339,#330,#268,.T.);
#446=EDGE_CURVE('620',#364,#339,#108,.T.);
#448=EDGE_CURVE('615',#362,#364,#84,.T.);
#450=EDGE_CURVE('618',#362,#348,#88,.T.);
#452=EDGE_CURVE('532',#347,#348,#92,.T.);
#454=EDGE_CURVE('580',#352,#347,#96,.T.);
#458=ADVANCED_FACE('476',(#457),#436,.F.);
#464=EDGE_CURVE('733',#299,#378,#100,.T.);
#466=EDGE_CURVE('686',#378,#380,#212,.T.);
#468=EDGE_CURVE('734',#296,#380,#196,.T.);
#471=EDGE_CURVE('616',#364,#359,#104,.T.);
#474=EDGE_CURVE('484',#339,#340,#112,.T.);
#476=EDGE_CURVE('485',#340,#335,#116,.T.);
#478=EDGE_CURVE('482',#335,#336,#120,.T.);
#485=ADVANCED_FACE('71',(#484),#463,.T.);
#491=EDGE_CURVE('732',#300,#376,#132,.T.);
#493=EDGE_CURVE('685',#376,#378,#216,.T.);
#499=ADVANCED_FACE('73',(#498),#490,.T.);
#505=EDGE_CURVE('731',#306,#374,#136,.T.);
#507=EDGE_CURVE('684',#374,#376,#220,.T.);
#513=EDGE_CURVE('401',#311,#312,#141,.T.);
#515=EDGE_CURVE('402',#312,#311,#146,.T.);
#519=ADVANCED_FACE('377',(#512,#518),#504,.T.);
#525=EDGE_CURVE('730',#308,#372,#150,.T.);
#527=EDGE_CURVE('683',#372,#374,#224,.T.);
#533=ADVANCED_FACE('379',(#532),#524,.T.);
#540=EDGE_CURVE('729',#303,#370,#158,.T.);
#542=EDGE_CURVE('682',#370,#372,#228,.T.);
#547=EDGE_CURVE('822',#314,#316,#163,.T.);
#549=EDGE_CURVE('823',#316,#314,#168,.T.);
#553=EDGE_CURVE('442',#320,#324,#173,.T.);
#555=EDGE_CURVE('443',#324,#320,#178,.T.);
#559=ADVANCED_FACE('67',(#546,#552,#558),#538,.T.);
#565=EDGE_CURVE('728',#304,#368,#182,.T.);
#567=EDGE_CURVE('681',#368,#370,#232,.T.);
#573=ADVANCED_FACE('372',(#572),#564,.T.);
#579=EDGE_CURVE('735',#367,#295,#200,.T.);
#581=EDGE_CURVE('680',#367,#368,#204,.T.);
#587=EDGE_CURVE('444',#319,#323,#187,.T.);
#589=EDGE_CURVE('445',#323,#319,#192,.T.);
#593=ADVANCED_FACE('374',(#586,#592),#578,.T.);
#600=EDGE_CURVE('687',#380,#367,#208,.T.);
#606=ADVANCED_FACE('69',(#605),#598,.T.);
#622=ADVANCED_FACE('679',(#621),#611,.T.);
#628=EDGE_CURVE('434',#319,#320,#236,.T.);
#631=EDGE_CURVE('435',#323,#324,#240,.T.);
#636=ADVANCED_FACE('426',(#635),#627,.F.);
#648=ADVANCED_FACE('427',(#647),#641,.F.);
#655=EDGE_CURVE('406',#312,#316,#248,.T.);
#658=EDGE_CURVE('405',#311,#314,#244,.T.);
#662=ADVANCED_FACE('395',(#661),#653,.F.);
#674=ADVANCED_FACE('397',(#673),#667,.F.);
#681=EDGE_CURVE('614',#362,#360,#252,.T.);
#687=ADVANCED_FACE('590',(#686),#679,.T.);
#695=EDGE_CURVE('540',#344,#348,#256,.T.);
#700=ADVANCED_FACE('521',(#699),#692,.F.);
#707=EDGE_CURVE('539',#343,#347,#260,.T.);
#713=ADVANCED_FACE('519',(#712),#705,.F.);
#725=ADVANCED_FACE('525',(#724),#718,.F.);
#733=EDGE_CURVE('472',#330,#332,#280,.T.);
#735=EDGE_CURVE('489',#340,#332,#292,.T.);
#739=ADVANCED_FACE('478',(#738),#730,.F.);
#745=EDGE_CURVE('470',#327,#328,#272,.T.);
#747=EDGE_CURVE('473',#332,#327,#276,.T.);
#753=ADVANCED_FACE('469',(#752),#744,.T.);
#760=EDGE_CURVE('486',#335,#327,#288,.T.);
#766=ADVANCED_FACE('474',(#765),#758,.F.);
#778=ADVANCED_FACE('480',(#777),#771,.F.);
#779=CLOSED_SHELL('',(#416,#431,#458,#485,#499,#519,#533,#559,#573,#593,#606,
#622,#636,#648,#662,#674,#687,#700,#713,#725,#739,#753,#766,#778));
#780=MANIFOLD_SOLID_BREP('',#779);
#808=TRIMMED_CURVE('A_PRT_X',#807,(PARAMETER_VALUE(0.E0)),(PARAMETER_VALUE
(1.E0)),.T.,.UNSPECIFIED.);
#816=TRIMMED_CURVE('49',#815,(PARAMETER_VALUE(0.E0)),(PARAMETER_VALUE(1.E0)),
.T.,.UNSPECIFIED.);
#820=COMPOSITE_CURVE_SEGMENT(.CONTINUOUS.,.T.,#816);
#825=TRIMMED_CURVE('351',#824,(PARAMETER_VALUE(0.E0)),(PARAMETER_VALUE(1.E0)),
.T.,.UNSPECIFIED.);
#829=COMPOSITE_CURVE_SEGMENT(.CONTINUOUS.,.T.,#825);
#834=TRIMMED_CURVE('352',#833,(PARAMETER_VALUE(0.E0)),(PARAMETER_VALUE(1.E0)),
.T.,.UNSPECIFIED.);
#838=COMPOSITE_CURVE_SEGMENT(.CONTINUOUS.,.T.,#834);
#843=TRIMMED_CURVE('353',#842,(PARAMETER_VALUE(0.E0)),(PARAMETER_VALUE(1.E0)),
.T.,.UNSPECIFIED.);
#847=COMPOSITE_CURVE_SEGMENT(.CONTINUOUS.,.T.,#843);
#852=TRIMMED_CURVE('50',#851,(PARAMETER_VALUE(0.E0)),(PARAMETER_VALUE(1.E0)),
.T.,.UNSPECIFIED.);
#856=COMPOSITE_CURVE_SEGMENT(.CONTINUOUS.,.T.,#852);
#861=TRIMMED_CURVE('51',#860,(PARAMETER_VALUE(0.E0)),(PARAMETER_VALUE(1.E0)),
.T.,.UNSPECIFIED.);
#865=COMPOSITE_CURVE_SEGMENT(.CONTINUOUS.,.T.,#861);
#870=TRIMMED_CURVE('52',#869,(PARAMETER_VALUE(0.E0)),(PARAMETER_VALUE(1.E0)),
.T.,.UNSPECIFIED.);
#874=COMPOSITE_CURVE_SEGMENT(.CONTINUOUS.,.T.,#870);
#879=TRIMMED_CURVE('354',#878,(PARAMETER_VALUE(0.E0)),(PARAMETER_VALUE(1.E0)),
.T.,.UNSPECIFIED.);
#883=COMPOSITE_CURVE_SEGMENT(.CONTINUOUS.,.T.,#879);
#888=TRIMMED_CURVE('355',#887,(PARAMETER_VALUE(0.E0)),(PARAMETER_VALUE(1.E0)),
.T.,.UNSPECIFIED.);
#892=COMPOSITE_CURVE_SEGMENT(.CONTINUOUS.,.T.,#888);
#897=TRIMMED_CURVE('356',#896,(PARAMETER_VALUE(0.E0)),(PARAMETER_VALUE(1.E0)),
.T.,.UNSPECIFIED.);
#901=COMPOSITE_CURVE_SEGMENT(.CONTINUOUS.,.T.,#897);
#902=COMPOSITE_CURVE('48',(#820,#829,#838,#847,#856,#865,#874,#883,#892,#901),
.F.);
#908=TRIMMED_CURVE('457',#907,(PARAMETER_VALUE(0.E0)),(PARAMETER_VALUE(1.E0)),
.T.,.UNSPECIFIED.);
#912=COMPOSITE_CURVE_SEGMENT(.CONTINUOUS.,.T.,#908);
#917=TRIMMED_CURVE('458',#916,(PARAMETER_VALUE(0.E0)),(PARAMETER_VALUE(1.E0)),
.T.,.UNSPECIFIED.);
#921=COMPOSITE_CURVE_SEGMENT(.CONTINUOUS.,.T.,#917);
#926=TRIMMED_CURVE('459',#925,(PARAMETER_VALUE(0.E0)),(PARAMETER_VALUE(1.E0)),
.T.,.UNSPECIFIED.);
#930=COMPOSITE_CURVE_SEGMENT(.CONTINUOUS.,.T.,#926);
#935=TRIMMED_CURVE('460',#934,(PARAMETER_VALUE(0.E0)),(PARAMETER_VALUE(1.E0)),
.T.,.UNSPECIFIED.);
#939=COMPOSITE_CURVE_SEGMENT(.CONTINUOUS.,.T.,#935);
#940=COMPOSITE_CURVE('456',(#912,#921,#930,#939),.F.);
#945=TRIMMED_CURVE('502',#944,(PARAMETER_VALUE(0.E0)),(PARAMETER_VALUE(1.E0)),
.T.,.UNSPECIFIED.);
#949=COMPOSITE_CURVE_SEGMENT(.CONTINUOUS.,.T.,#945);
#954=TRIMMED_CURVE('503',#953,(PARAMETER_VALUE(0.E0)),(PARAMETER_VALUE(1.E0)),
.T.,.UNSPECIFIED.);
#958=COMPOSITE_CURVE_SEGMENT(.CONTINUOUS.,.T.,#954);
#963=TRIMMED_CURVE('504',#962,(PARAMETER_VALUE(0.E0)),(PARAMETER_VALUE(1.E0)),
.T.,.UNSPECIFIED.);
#967=COMPOSITE_CURVE_SEGMENT(.CONTINUOUS.,.T.,#963);
#972=TRIMMED_CURVE('505',#971,(PARAMETER_VALUE(0.E0)),(PARAMETER_VALUE(1.E0)),
.T.,.UNSPECIFIED.);
#976=COMPOSITE_CURVE_SEGMENT(.CONTINUOUS.,.T.,#972);
#977=COMPOSITE_CURVE('501',(#949,#958,#967,#976),.F.);
#982=TRIMMED_CURVE('659',#981,(PARAMETER_VALUE(0.E0)),(PARAMETER_VALUE(1.E0)),
.T.,.UNSPECIFIED.);
#986=COMPOSITE_CURVE_SEGMENT(.CONTINUOUS.,.T.,#982);
#991=TRIMMED_CURVE('660',#990,(PARAMETER_VALUE(0.E0)),(PARAMETER_VALUE(1.E0)),
.T.,.UNSPECIFIED.);
#995=COMPOSITE_CURVE_SEGMENT(.CONTINUOUS.,.T.,#991);
#1000=TRIMMED_CURVE('661',#999,(PARAMETER_VALUE(0.E0)),(PARAMETER_VALUE(1.E0)),
.T.,.UNSPECIFIED.);
#1004=COMPOSITE_CURVE_SEGMENT(.CONTINUOUS.,.T.,#1000);
#1009=TRIMMED_CURVE('662',#1008,(PARAMETER_VALUE(0.E0)),(PARAMETER_VALUE(1.E0)),
.T.,.UNSPECIFIED.);
#1013=COMPOSITE_CURVE_SEGMENT(.CONTINUOUS.,.T.,#1009);
#1018=TRIMMED_CURVE('663',#1017,(PARAMETER_VALUE(0.E0)),(PARAMETER_VALUE(1.E0)),
.T.,.UNSPECIFIED.);
#1022=COMPOSITE_CURVE_SEGMENT(.CONTINUOUS.,.T.,#1018);
#1027=TRIMMED_CURVE('664',#1026,(PARAMETER_VALUE(0.E0)),(PARAMETER_VALUE(1.E0)),
.T.,.UNSPECIFIED.);
#1031=COMPOSITE_CURVE_SEGMENT(.CONTINUOUS.,.T.,#1027);
#1036=TRIMMED_CURVE('665',#1035,(PARAMETER_VALUE(0.E0)),(PARAMETER_VALUE(1.E0)),
.T.,.UNSPECIFIED.);
#1040=COMPOSITE_CURVE_SEGMENT(.CONTINUOUS.,.T.,#1036);
#1045=TRIMMED_CURVE('666',#1044,(PARAMETER_VALUE(0.E0)),(PARAMETER_VALUE(1.E0)),
.T.,.UNSPECIFIED.);
#1049=COMPOSITE_CURVE_SEGMENT(.CONTINUOUS.,.T.,#1045);
#1050=COMPOSITE_CURVE('658',(#986,#995,#1004,#1013,#1022,#1031,#1040,#1049),
.F.);
#1055=TRIMMED_CURVE('A_1',#1054,(PARAMETER_VALUE(0.E0)),(PARAMETER_VALUE(1.E0)),
.T.,.UNSPECIFIED.);
#1063=TRIMMED_CURVE('A_2',#1062,(PARAMETER_VALUE(0.E0)),(PARAMETER_VALUE(1.E0)),
.T.,.UNSPECIFIED.);
#1076=(LENGTH_UNIT()NAMED_UNIT(*)SI_UNIT(.MILLI.,.METRE.));
#1077=(NAMED_UNIT(*)PLANE_ANGLE_UNIT()SI_UNIT($,.RADIAN.));
#1080=(NAMED_UNIT(*)SI_UNIT($,.STERADIAN.)SOLID_ANGLE_UNIT());
#1082=(GEOMETRIC_REPRESENTATION_CONTEXT(3)GLOBAL_UNCERTAINTY_ASSIGNED_CONTEXT((
#1081))GLOBAL_UNIT_ASSIGNED_CONTEXT((#1076,#1079,#1080))REPRESENTATION_CONTEXT(
'ID1','3'));
#1083=ADVANCED_BREP_SHAPE_REPRESENTATION('',(#780),#1082);
#1084=GEOMETRICALLY_BOUNDED_WIREFRAME_SHAPE_REPRESENTATION('',(#903),#1082);
#1085=CONSTRUCTIVE_GEOMETRY_REPRESENTATION('supplemental geometry',(#785,#790,
#795,#799,#808,#1055,#1063),#1082);
#1089=AXIS2_PLACEMENT_3D('',#1086,#1087,#1088);
#1090=SHAPE_REPRESENTATION('',(#1089),#1082);
#1101=PRODUCT_DEFINITION('design','',#1100,#1097);
#1102=PRODUCT_DEFINITION_SHAPE('','SHAPE FOR IMMERSION_HEATER_MOUNT.',#1101);
#1103=SHAPE_ASPECT('','solid data associated with IMMERSION_HEATER_MOUNT',#1102,
.F.);
#1104=PROPERTY_DEFINITION('',
'shape for solid data with which properties are associated',#1103);
#1105=SHAPE_REPRESENTATION('',(#780),#1082);
#1106=SHAPE_DEFINITION_REPRESENTATION(#1104,#1105);
#1107=(LENGTH_UNIT()NAMED_UNIT(*)SI_UNIT(.MILLI.,.METRE.));
#1109=(MASS_UNIT()NAMED_UNIT(*)SI_UNIT(.KILO.,.GRAM.));
#1113=PROPERTY_DEFINITION('material_property','density',#1103);
#1114=REPRESENTATION('density',(#1112),#1082);
#1115=PROPERTY_DEFINITION_REPRESENTATION(#1113,#1114);
#1117=PROPERTY_DEFINITION('material property','material name',#1103);
#1118=REPRESENTATION('material name',(#1116),#1082);
#1119=PROPERTY_DEFINITION_REPRESENTATION(#1117,#1118);
#1120=SHAPE_ASPECT('','solid data associated with IMMERSION_HEATER_MOUNT',#1102,
.F.);
#1121=PROPERTY_DEFINITION('',
'shape for solid data with which properties are associated',#1120);
#1122=SHAPE_REPRESENTATION('',(#780),#1082);
#1123=SHAPE_DEFINITION_REPRESENTATION(#1121,#1122);
#1124=(LENGTH_UNIT()NAMED_UNIT(*)SI_UNIT(.MILLI.,.METRE.));
#1128=PROPERTY_DEFINITION('geometric validation property',
'area of IMMERSION_HEATER_MOUNT',#1120);
#1129=REPRESENTATION('surface area',(#1127),#1082);
#1130=PROPERTY_DEFINITION_REPRESENTATION(#1128,#1129);
#1131=(LENGTH_UNIT()NAMED_UNIT(*)SI_UNIT(.MILLI.,.METRE.));
#1135=PROPERTY_DEFINITION('geometric validation property',
'volume of IMMERSION_HEATER_MOUNT',#1120);
#1136=REPRESENTATION('volume',(#1134),#1082);
#1137=PROPERTY_DEFINITION_REPRESENTATION(#1135,#1136);
#1139=PROPERTY_DEFINITION('geometric validation property',
'centroid of IMMERSION_HEATER_MOUNT',#1120);
#1140=REPRESENTATION('centroid',(#1138),#1082);
#1141=PROPERTY_DEFINITION_REPRESENTATION(#1139,#1140);
#1142=(LENGTH_UNIT()NAMED_UNIT(*)SI_UNIT(.MILLI.,.METRE.));
#1146=PROPERTY_DEFINITION('geometric validation property',
'area of IMMERSION_HEATER_MOUNT',#1102);
#1147=REPRESENTATION('surface area',(#1145),#1082);
#1148=PROPERTY_DEFINITION_REPRESENTATION(#1146,#1147);
#1149=(LENGTH_UNIT()NAMED_UNIT(*)SI_UNIT(.MILLI.,.METRE.));
#1153=PROPERTY_DEFINITION('geometric validation property',
'volume of IMMERSION_HEATER_MOUNT',#1102);
#1154=REPRESENTATION('volume',(#1152),#1082);
#1155=PROPERTY_DEFINITION_REPRESENTATION(#1153,#1154);
#1157=PROPERTY_DEFINITION('geometric validation property',
'centroid of IMMERSION_HEATER_MOUNT',#1102);
#1158=REPRESENTATION('centroid',(#1156),#1082);
#1159=PROPERTY_DEFINITION_REPRESENTATION(#1157,#1158);
#1163=PRODUCT_DEFINITION('design','',#1162,#1097);
#1164=MAKE_FROM_USAGE_OPTION(
'Assign material STAHL_ALLGEMEIN to IMMERSION_HEATER_MOUNT','make from','',
#1101,#1163,1,'',#1167);
#1168=(LENGTH_UNIT()NAMED_UNIT(*)SI_UNIT(.MILLI.,.METRE.));
#1170=(MASS_UNIT()NAMED_UNIT(*)SI_UNIT(.KILO.,.GRAM.));
#1174=PROPERTY_DEFINITION('material_property','density',#1163);
#1175=REPRESENTATION('density',(#1173),#1082);
#1176=PROPERTY_DEFINITION_REPRESENTATION(#1174,#1175);
#1177=SHAPE_DEFINITION_REPRESENTATION(#1102,#1090);
#1202=PLANAR_BOX('',6.783924142496E1,5.723935995231E1,#1201);
#1209=PROPERTY_DEFINITION('CAD_APPROVED_BY','user defined attribute',#1163);
#1213=REPRESENTATION('',(#1212),#1082);
#1214=PROPERTY_DEFINITION_REPRESENTATION(#1209,#1213);
#1215=PROPERTY_DEFINITION('CAD_APPROVED_ON','user defined attribute',#1163);
#1219=REPRESENTATION('',(#1218),#1082);
#1220=PROPERTY_DEFINITION_REPRESENTATION(#1215,#1219);
#1221=PROPERTY_DEFINITION('CAD_CHANGE_NO','user defined attribute',#1163);
#1225=REPRESENTATION('',(#1224),#1082);
#1226=PROPERTY_DEFINITION_REPRESENTATION(#1221,#1225);
#1227=PROPERTY_DEFINITION('CAD_CHANGE_TEXT','user defined attribute',#1163);
#1231=REPRESENTATION('',(#1230),#1082);
#1232=PROPERTY_DEFINITION_REPRESENTATION(#1227,#1231);
#1233=PROPERTY_DEFINITION('CAD_CREATED_BY','user defined attribute',#1163);
#1237=REPRESENTATION('',(#1236),#1082);
#1238=PROPERTY_DEFINITION_REPRESENTATION(#1233,#1237);
#1239=PROPERTY_DEFINITION('CAD_CREATED_ON','user defined attribute',#1163);
#1243=REPRESENTATION('',(#1242),#1082);
#1244=PROPERTY_DEFINITION_REPRESENTATION(#1239,#1243);
#1245=PROPERTY_DEFINITION('CAD_LIFECYCLE_STATE','user defined attribute',#1163);
#1249=REPRESENTATION('',(#1248),#1082);
#1250=PROPERTY_DEFINITION_REPRESENTATION(#1245,#1249);
#1251=PROPERTY_DEFINITION('CAD_MODIFIED_BY','user defined attribute',#1163);
#1255=REPRESENTATION('',(#1254),#1082);
#1256=PROPERTY_DEFINITION_REPRESENTATION(#1251,#1255);
#1257=PROPERTY_DEFINITION('CAD_MODIFIED_ON','user defined attribute',#1163);
#1261=REPRESENTATION('',(#1260),#1082);
#1262=PROPERTY_DEFINITION_REPRESENTATION(#1257,#1261);
#1263=PROPERTY_DEFINITION('CAD_REVISION','user defined attribute',#1163);
#1267=REPRESENTATION('',(#1266),#1082);
#1268=PROPERTY_DEFINITION_REPRESENTATION(#1263,#1267);
#1269=PROPERTY_DEFINITION('DEPARTMENT','user defined attribute',#1163);
#1273=REPRESENTATION('',(#1272),#1082);
#1274=PROPERTY_DEFINITION_REPRESENTATION(#1269,#1273);
#1275=PROPERTY_DEFINITION('DESCRIPTION_1_DE','user defined attribute',#1163);
#1279=REPRESENTATION('',(#1278),#1082);
#1280=PROPERTY_DEFINITION_REPRESENTATION(#1275,#1279);
#1281=PROPERTY_DEFINITION('DESCRIPTION_1_EN','user defined attribute',#1163);
#1285=REPRESENTATION('',(#1284),#1082);
#1286=PROPERTY_DEFINITION_REPRESENTATION(#1281,#1285);
#1287=PROPERTY_DEFINITION('DESCRIPTION_2_DE','user defined attribute',#1163);
#1291=REPRESENTATION('',(#1290),#1082);
#1292=PROPERTY_DEFINITION_REPRESENTATION(#1287,#1291);
#1293=PROPERTY_DEFINITION('DESCRIPTION_2_EN','user defined attribute',#1163);
#1297=REPRESENTATION('',(#1296),#1082);
#1298=PROPERTY_DEFINITION_REPRESENTATION(#1293,#1297);
#1299=PROPERTY_DEFINITION('DRAWING_NO','user defined attribute',#1163);
#1303=REPRESENTATION('',(#1302),#1082);
#1304=PROPERTY_DEFINITION_REPRESENTATION(#1299,#1303);
#1305=PROPERTY_DEFINITION('MC_CHECKTYPE','user defined attribute',#1163);
#1309=REPRESENTATION('',(#1308),#1082);
#1310=PROPERTY_DEFINITION_REPRESENTATION(#1305,#1309);
#1311=PROPERTY_DEFINITION('COATING','user defined attribute',#1163);
#1315=REPRESENTATION('',(#1314),#1082);
#1316=PROPERTY_DEFINITION_REPRESENTATION(#1311,#1315);
#1317=PROPERTY_DEFINITION('COLORING','user defined attribute',#1163);
#1321=REPRESENTATION('',(#1320),#1082);
#1322=PROPERTY_DEFINITION_REPRESENTATION(#1317,#1321);
#1323=PROPERTY_DEFINITION('DESC_SEMIFINISHED','user defined attribute',#1163);
#1327=REPRESENTATION('',(#1326),#1082);
#1328=PROPERTY_DEFINITION_REPRESENTATION(#1323,#1327);
#1329=PROPERTY_DEFINITION('DIMENSION','user defined attribute',#1163);
#1333=REPRESENTATION('',(#1332),#1082);
#1334=PROPERTY_DEFINITION_REPRESENTATION(#1329,#1333);
#1335=PROPERTY_DEFINITION('HARDNESS','user defined attribute',#1163);
#1339=REPRESENTATION('',(#1338),#1082);
#1340=PROPERTY_DEFINITION_REPRESENTATION(#1335,#1339);
#1341=PROPERTY_DEFINITION('MASS','user defined attribute',#1163);
#1345=REPRESENTATION('',(#1344),#1082);
#1346=PROPERTY_DEFINITION_REPRESENTATION(#1341,#1345);
#1347=PROPERTY_DEFINITION('MATERIAL','user defined attribute',#1163);
#1351=REPRESENTATION('',(#1350),#1082);
#1352=PROPERTY_DEFINITION_REPRESENTATION(#1347,#1351);
#1353=PROPERTY_DEFINITION('PART_NO','user defined attribute',#1163);
#1357=REPRESENTATION('',(#1356),#1082);
#1358=PROPERTY_DEFINITION_REPRESENTATION(#1353,#1357);
#1359=PROPERTY_DEFINITION('PART_NO_SEMIFINISHED','user defined attribute',
#1163);
#1363=REPRESENTATION('',(#1362),#1082);
#1364=PROPERTY_DEFINITION_REPRESENTATION(#1359,#1363);
#1365=PROPERTY_DEFINITION('STANDARD','user defined attribute',#1163);
#1369=REPRESENTATION('',(#1368),#1082);
#1370=PROPERTY_DEFINITION_REPRESENTATION(#1365,#1369);
#1371=PROPERTY_DEFINITION('STANDARD_DIMENSION','user defined attribute',#1163);
#1375=REPRESENTATION('',(#1374),#1082);
#1376=PROPERTY_DEFINITION_REPRESENTATION(#1371,#1375);
#1377=PROPERTY_DEFINITION('STANDARD_EDGE','user defined attribute',#1163);
#1381=REPRESENTATION('',(#1380),#1082);
#1382=PROPERTY_DEFINITION_REPRESENTATION(#1377,#1381);
#1383=PROPERTY_DEFINITION('STANDARD_INFO_DE','user defined attribute',#1163);
#1387=REPRESENTATION('',(#1386),#1082);
#1388=PROPERTY_DEFINITION_REPRESENTATION(#1383,#1387);
#1389=PROPERTY_DEFINITION('STANDARD_INFO_EN','user defined attribute',#1163);
#1393=REPRESENTATION('',(#1392),#1082);
#1394=PROPERTY_DEFINITION_REPRESENTATION(#1389,#1393);
#1395=PROPERTY_DEFINITION('STANDARD_SURFACE','user defined attribute',#1163);
#1399=REPRESENTATION('',(#1398),#1082);
#1400=PROPERTY_DEFINITION_REPRESENTATION(#1395,#1399);
#1401=PROPERTY_DEFINITION('STANDARD_TOL_CLASS','user defined attribute',#1163);
#1405=REPRESENTATION('',(#1404),#1082);
#1406=PROPERTY_DEFINITION_REPRESENTATION(#1401,#1405);
#1407=PROPERTY_DEFINITION('SUPPLIER','user defined attribute',#1163);
#1411=REPRESENTATION('',(#1410),#1082);
#1412=PROPERTY_DEFINITION_REPRESENTATION(#1407,#1411);
#1413=PROPERTY_DEFINITION('CLASSIFICATION','user defined attribute',#1163);
#1417=REPRESENTATION('',(#1416),#1082);
#1418=PROPERTY_DEFINITION_REPRESENTATION(#1413,#1417);
#1419=PROPERTY_DEFINITION('CATEGORY','user defined attribute',#1163);
#1423=REPRESENTATION('',(#1422),#1082);
#1424=PROPERTY_DEFINITION_REPRESENTATION(#1419,#1423);
#1425=PROPERTY_DEFINITION('PROJECT','user defined attribute',#1163);
#1429=REPRESENTATION('',(#1428),#1082);
#1430=PROPERTY_DEFINITION_REPRESENTATION(#1425,#1429);
#1431=PROPERTY_DEFINITION('PROJECT_NO','user defined attribute',#1163);
#1435=REPRESENTATION('',(#1434),#1082);
#1436=PROPERTY_DEFINITION_REPRESENTATION(#1431,#1435);
#1437=PROPERTY_DEFINITION('ORDER_CODE','user defined attribute',#1163);
#1441=REPRESENTATION('',(#1440),#1082);
#1442=PROPERTY_DEFINITION_REPRESENTATION(#1437,#1441);
#1443=PROPERTY_DEFINITION('STANDARD_WELDING','user defined attribute',#1163);
#1447=REPRESENTATION('',(#1446),#1082);
#1448=PROPERTY_DEFINITION_REPRESENTATION(#1443,#1447);
#1449=PROPERTY_DEFINITION('CUSTOMER','user defined attribute',#1163);
#1453=REPRESENTATION('',(#1452),#1082);
#1454=PROPERTY_DEFINITION_REPRESENTATION(#1449,#1453);
#1455=PROPERTY_DEFINITION('HEAT_TREATMENT','user defined attribute',#1163);
#1459=REPRESENTATION('',(#1458),#1082);
#1460=PROPERTY_DEFINITION_REPRESENTATION(#1455,#1459);
#1461=PROPERTY_DEFINITION('PTC_COMMON_NAME','user defined attribute',#1163);
#1465=REPRESENTATION('',(#1464),#1082);
#1466=PROPERTY_DEFINITION_REPRESENTATION(#1461,#1465);
#1467=PROPERTY_DEFINITION('PTC_MASTER_MATERIAL','user defined attribute',#1163);
#1471=REPRESENTATION('',(#1470),#1082);
#1472=PROPERTY_DEFINITION_REPRESENTATION(#1467,#1471);
ENDSEC;
END-ISO-10303-21;
